<svg width="27" height="29" viewBox="0 0 27 29" fill="none" xmlns="http://www.w3.org/2000/svg">
<g clip-path="url(#clip0_1342_86458)">
<path d="M0 28.9998C0 28.9998 0 22.1979 0 19.7372C0 19.7005 0.00703125 19.6637 0.0140625 19.6123C1.20234 19.6123 2.37656 19.6123 3.58594 19.6123C3.58594 21.4707 3.58594 23.3365 3.58594 25.2169C10.1953 25.2169 16.7836 25.2169 23.393 25.2169C23.393 23.3512 23.393 21.4928 23.393 19.6123C24.6023 19.6123 25.7766 19.6123 27 19.6123C27 19.7225 27 19.8327 27 19.9429C27 22.1979 27 28.9998 27 28.9998C19.0125 28.9998 0 28.9998 0 28.9998Z" fill="#002773"/>
<path d="M16.2008 12.076L21.8891 12.054L13.5008 21.4782L5.28125 12.1421L10.8008 12.076C10.8008 12.076 10.8008 3.95187 10.8008 0.0734549L16.2008 0C16.2008 3.89311 16.2008 11.9217 16.2008 12.076Z" fill="#002773"/>
</g>
<defs>
<clipPath id="clip0_1342_86458">
<rect width="27" height="29" fill="white"/>
</clipPath>
</defs>
</svg>
