<svg width="99" height="46" viewBox="0 0 99 46" fill="none" xmlns="http://www.w3.org/2000/svg">
<g clip-path="url(#clip0_703_1461)">
<path fill-rule="evenodd" clip-rule="evenodd" d="M36.3274 12L48.0712 23.0196L47.9537 23.2941L71.1281 46.1569H62.242L39.7722 21.2941L36.3274 12Z" fill="#D68A36"/>
<path fill-rule="evenodd" clip-rule="evenodd" d="M13.6619 44.8627L30.2597 20.5098L36.3273 12L43.3736 21.8824L62.2419 46.1569L13.6619 44.8627Z" fill="#FFBC5A"/>
<path fill-rule="evenodd" clip-rule="evenodd" d="M30.2598 20.5098L43.3736 21.8824L48.0712 23.0196L36.3274 12L30.2598 20.5098Z" fill="#FFBC5A"/>
<path fill-rule="evenodd" clip-rule="evenodd" d="M35.0747 21.4902L30.4555 20.9019L30.2598 20.5098L40.242 21.6078L43.1388 21.2941L44.1566 21.9215L48.0712 23.0196L47.9537 23.2941L43.4519 22.1568H43.0213" fill="#F3B754"/>
<path opacity="0.3" fill-rule="evenodd" clip-rule="evenodd" d="M48.0711 28.4704L42.1209 28.4312L42.4341 29.2939H47.6013L48.58 30.3527L38.2063 30.7057V35.0978L43.765 34.9802L44.0782 35.6076L38.2063 35.8429V38.1959L53.0426 37.8429L53.7472 38.5488H49.6761L50.733 40.9802H54.5301L54.765 41.6076H48.0319L48.58 43.0978L59.9323 43.2547L48.6191 29.49L48.0711 28.4704Z" fill="#FFE095"/>
<path fill-rule="evenodd" clip-rule="evenodd" d="M39.0676 27.0589L39.2634 24.9805H45.2918L46.8185 26.8628L39.0676 27.0589Z" fill="#F3B754"/>
<path fill-rule="evenodd" clip-rule="evenodd" d="M46.8184 26.8628L52.0639 27.3334L53.434 28.7059H51.1636L51.5942 29.3726H54.1386L58.0924 33.255L51.6725 32.9412L46.8184 26.8628Z" fill="#F3B754"/>
<path fill-rule="evenodd" clip-rule="evenodd" d="M54.4519 36.4312H57.3096L59.3843 38.2743H55.9394L54.4519 36.4312Z" fill="#F3B754"/>
<path fill-rule="evenodd" clip-rule="evenodd" d="M28.0284 24.3726L58.758 43.3137L64.2775 40.3726L71.1281 47.1569L13.6619 45.8628L28.0284 24.3726Z" fill="#D68A36"/>
<path fill-rule="evenodd" clip-rule="evenodd" d="M0 46.4706L13.7402 28.3529L17.8114 23.098L21.6868 18L29.8683 32.8235L39.5765 46.4706H0Z" fill="#FFBC5A"/>
<path fill-rule="evenodd" clip-rule="evenodd" d="M51.5942 46.5098L39.5764 46.4706L37.5409 43.6078L36.3273 41.8824L34.9181 39.8823L29.8683 32.8235L21.6868 18L28.4199 24.1961L43.2562 40.0392L45.0177 40.4706L45.6049 41.0588L46.3487 41.8039L47.5622 42.9804L48.7757 44.1569L51.5159 46.4706L51.5942 46.5098Z" fill="#D68A36"/>
<path opacity="0.3" fill-rule="evenodd" clip-rule="evenodd" d="M2.30961 43.1961L9.90392 43V44.0196H22L22.7046 46.1373L0 46.2549L2.30961 43.1961Z" fill="#FFE095"/>
<path opacity="0.3" fill-rule="evenodd" clip-rule="evenodd" d="M28.7476 31H22.8835L23.1553 31.8753H28.2816L29.2913 32.9098L19 33.2679V37.7639L24.4757 37.6048L24.7864 38.2414L19 38.5199V40.9072L33.7184 40.5093L34.4175 41.2653H30.3786L31.4272 43.7321H35.1942L35.4272 44.3289H28.7476L29.2913 45.8806L39 46L29.3301 32.0345L28.7476 31Z" fill="#FFE095"/>
<path fill-rule="evenodd" clip-rule="evenodd" d="M12.605 44.1765L16.0107 44.1373V44.6863H13.5836L12.9573 45.7843H20.669L20.9039 43.5882H18.3203V43.1961L27.4413 42.7647L26.4235 40.8824H31.0819L28.8505 38.8824H25.3274L24.9359 38.1765H28.0285L27.2847 37.5098L18.1637 37L17.6157 37.7059H20.0818V38.2549L17.2242 38.1765L13.8576 42.451L12.605 44.1765Z" fill="#F3B754"/>
<path fill-rule="evenodd" clip-rule="evenodd" d="M21.0605 46.2745L21.2563 44.1961L25.2883 44L25.7581 46.2745H21.0605Z" fill="#F3B754"/>
<path opacity="0.3" fill-rule="evenodd" clip-rule="evenodd" d="M15.0712 45.5882L15.2669 45H20.121L19.9644 45.4706L15.0712 45.5882Z" fill="#FFE095"/>
<path fill-rule="evenodd" clip-rule="evenodd" d="M83.0676 41.7644L78.4484 41.8036L58.0925 41.8428L75.3167 41.4507L83.0676 41.7644Z" fill="#FFC272"/>
<path fill-rule="evenodd" clip-rule="evenodd" d="M61.4983 38.3135H74.9645L79.5445 38.1175L76.6478 37.9214L63.847 38.1959L61.4983 38.3135Z" fill="#FFDE8B"/>
<path fill-rule="evenodd" clip-rule="evenodd" d="M71.4805 41.5292V38.3135H74.9645H77.5089L77.9787 41.0978L79.2314 41.1762L79.0356 40.4311L80.1317 40.588L80.4449 41.7645L75.3168 41.4507L71.4805 41.5292Z" fill="#F8EBE8"/>
<path fill-rule="evenodd" clip-rule="evenodd" d="M65.6477 38.1565L66.4698 35.4507L67.9965 35.333L67.4093 38.1565H65.6477Z" fill="#F8EBE8"/>
<path fill-rule="evenodd" clip-rule="evenodd" d="M13 46L18.9858 38.431L23.4093 32.3525L29 46H13Z" fill="#F9A455"/>
<path fill-rule="evenodd" clip-rule="evenodd" d="M28.6206 45.9996H40.0073L23.4094 32.3525L28.6206 45.9996Z" fill="#D68A36"/>
<path opacity="0.3" fill-rule="evenodd" clip-rule="evenodd" d="M15.0712 43.0976L27.4395 42.9706L26.7349 41.0098L21.6868 40.7839L26.5 40.5L25.7954 38.7353L19.5729 37.6074L18.516 38.98L15.0712 43.0976Z" fill="#FFE095"/>
<path fill-rule="evenodd" clip-rule="evenodd" d="M21.0605 35.7251H24.7403L24.3488 34.7447H26.3452L23.4093 32.3525L21.0605 35.7251Z" fill="#F3B754"/>
<path d="M61.3418 20.647H60.0891V27.7058H61.3418V20.647Z" fill="#B2641D"/>
<path d="M96.0251 11.0394H95.8293L95.9076 8.96094H95.9468L96.0251 11.0394Z" fill="#D68A36"/>
<path opacity="0.1" d="M96.0251 11.0394H95.8293L95.9076 8.96094H95.9468L96.0251 11.0394Z" fill="black"/>
<path d="M95.9467 12.2157C96.3143 12.2157 96.6122 11.9172 96.6122 11.549C96.6122 11.1808 96.3143 10.8823 95.9467 10.8823C95.5792 10.8823 95.2812 11.1808 95.2812 11.549C95.2812 11.9172 95.5792 12.2157 95.9467 12.2157Z" fill="#D68A36"/>
<path d="M96.1424 13.7449C96.1424 13.3528 96.4164 12.9606 96.8862 12.9606C96.9253 12.9606 96.9645 12.9606 97.0036 12.9606C97.0036 12.8822 97.0428 12.8038 97.0428 12.7253C97.0428 12.1371 96.5339 11.6665 95.9467 11.6665C95.3595 11.6665 94.8506 12.1371 94.8506 12.7253C94.8506 12.843 94.8506 12.9214 94.8897 12.9998C95.3203 13.0391 95.6335 13.3528 95.6335 13.7841C95.6335 14.0587 95.4769 14.294 95.2812 14.4508C95.4378 14.6469 95.6727 14.7645 95.9467 14.7645C96.2207 14.7645 96.4556 14.6469 96.6122 14.4508C96.299 14.3332 96.1424 14.0587 96.1424 13.7449Z" fill="#D68A36"/>
<path d="M95.9466 14.2939C94.968 14.2939 94.1851 15.1959 94.1851 16.3332H97.669C97.669 15.2351 96.8861 14.2939 95.9466 14.2939Z" fill="#D68A36"/>
<path d="M95.9466 17.0785C96.3357 17.0785 96.6512 16.78 96.6512 16.4118C96.6512 16.0436 96.3357 15.7451 95.9466 15.7451C95.5574 15.7451 95.2419 16.0436 95.2419 16.4118C95.2419 16.78 95.5574 17.0785 95.9466 17.0785Z" fill="#A35413"/>
<path d="M97.9821 16.3726H93.8718V17.1177H97.9821V16.3726Z" fill="#E2984D"/>
<path d="M98.4521 22.4116H93.4023L92.8542 20.9214H99.0002L98.4521 22.4116Z" fill="#E2984D"/>
<path opacity="0.1" d="M98.4521 22.4116H93.4023L92.8542 20.9214H99.0002L98.4521 22.4116Z" fill="black"/>
<path opacity="0.1" d="M97.6692 16.3725C97.6692 15.549 97.1994 14.7647 96.6123 14.451C96.2991 14.3333 96.1425 14.0588 96.1425 13.7451C96.1425 13.3137 96.4165 12.9608 96.8863 12.9608C96.9254 12.9608 96.9646 12.9608 97.0037 12.9608C97.0037 12.8823 97.0429 12.8039 97.0429 12.7255C97.0429 12.3333 96.8863 12.0196 96.534 11.8235C96.5731 11.7451 96.6123 11.6274 96.6123 11.549C96.6123 11.196 96.3382 10.8823 95.9468 10.8823V16.3725H97.6692Z" fill="black"/>
<path d="M95.9468 10.7255C96.0765 10.7255 96.1817 10.6201 96.1817 10.4902C96.1817 10.3602 96.0765 10.2549 95.9468 10.2549C95.8171 10.2549 95.7119 10.3602 95.7119 10.4902C95.7119 10.6201 95.8171 10.7255 95.9468 10.7255Z" fill="#D68A36"/>
<path d="M95.9468 10.1766C96.0765 10.1766 96.1817 10.0713 96.1817 9.94135C96.1817 9.8114 96.0765 9.70605 95.9468 9.70605C95.8171 9.70605 95.7119 9.8114 95.7119 9.94135C95.7119 10.0713 95.8171 10.1766 95.9468 10.1766Z" fill="#D68A36"/>
<path d="M95.9468 9.62733C96.0765 9.62733 96.1817 9.52198 96.1817 9.39203C96.1817 9.26208 96.0765 9.15674 95.9468 9.15674C95.8171 9.15674 95.7119 9.26208 95.7119 9.39203C95.7119 9.52198 95.8171 9.62733 95.9468 9.62733Z" fill="#D68A36"/>
<path d="M97.7475 17.1177H94.1069V20.2157H97.7475V17.1177Z" fill="#D68A36"/>
<path d="M96.8078 17.1177H95.0071V20.2157H96.8078V17.1177Z" fill="#C17325"/>
<path d="M97.7473 17.1177H96.8469V20.2157H97.7473V17.1177Z" fill="#B2641D"/>
<path d="M98.2563 22.3726H93.5979V28.9608H98.2563V22.3726Z" fill="#D68A36"/>
<path d="M97.0818 22.3726H94.7722V28.9608H97.0818V22.3726Z" fill="#C17325"/>
<path d="M98.2562 22.3726H97.0818V28.9608H98.2562V22.3726Z" fill="#B2641D"/>
<path opacity="0.1" d="M97.7475 17.1177H94.1069V17.5883H97.7475V17.1177Z" fill="black"/>
<path d="M98.2563 32.4902H93.5979V29.0392L95.9467 25.7451L98.2563 29.0392V32.4902Z" fill="#D68A36"/>
<path d="M98.6085 32.4902H93.2847V46.3334H98.6085V32.4902Z" fill="#E59D48"/>
<path d="M95.9466 20.8431C96.3357 20.8431 96.6512 20.5446 96.6512 20.1764C96.6512 19.8082 96.3357 19.5098 95.9466 19.5098C95.5574 19.5098 95.2419 19.8082 95.2419 20.1764C95.2419 20.5446 95.5574 20.8431 95.9466 20.8431Z" fill="#A35413"/>
<path d="M98.6869 32.4902H93.1282V32.8432H98.6869V32.4902Z" fill="#EFAC6A"/>
<path d="M99.0002 20.1763H92.8542V20.9214H99.0002V20.1763Z" fill="#E2984D"/>
<path opacity="0.05" d="M98.6087 32.8433H95.9468V46.3727H98.6087V32.8433Z" fill="black"/>
<path d="M61.1852 29.1963C61.1852 29.1963 61.0286 29.157 60.9112 29.2355C60.872 29.157 60.7546 29.0786 60.7546 29.0786C60.7546 29.0786 60.6763 29.157 60.598 29.2355C60.4806 29.157 60.324 29.1963 60.324 29.1963C60.324 29.1963 60.324 29.2747 60.324 29.3531C60.3631 29.3531 60.3631 29.3531 60.4023 29.3531C60.5197 29.3531 60.598 29.4316 60.598 29.5492C60.598 29.5884 60.598 29.6276 60.5588 29.6276H60.5197V29.7061H60.4023V29.9414H61.0286V29.7061H60.9112V29.6276H60.872C60.872 29.5884 60.872 29.5884 60.872 29.5492C60.872 29.4316 60.9503 29.3531 61.0677 29.3531C61.1069 29.3531 61.1069 29.3531 61.146 29.3531C61.1852 29.2355 61.1852 29.1963 61.1852 29.1963Z" fill="#E59D48"/>
<path d="M62.5553 29.1963C62.5553 29.1963 62.3987 29.157 62.2813 29.2355C62.2421 29.157 62.1247 29.0786 62.1247 29.0786C62.1247 29.0786 62.0464 29.157 61.9681 29.2355C61.8507 29.157 61.6941 29.1963 61.6941 29.1963C61.6941 29.1963 61.6941 29.2747 61.6941 29.3531C61.7332 29.3531 61.7332 29.3531 61.7724 29.3531C61.8898 29.3531 61.9681 29.4316 61.9681 29.5492C61.9681 29.5884 61.9681 29.6276 61.9681 29.6276H61.929V29.7061H61.8115V29.9414H62.4379V29.7061H62.3204V29.6276H62.2813C62.2813 29.5884 62.2813 29.5884 62.2813 29.5492C62.2813 29.4316 62.3596 29.3531 62.477 29.3531C62.5162 29.3531 62.5162 29.3531 62.5553 29.3531C62.5553 29.2355 62.5553 29.1963 62.5553 29.1963Z" fill="#E59D48"/>
<path d="M63.9254 29.1963C63.9254 29.1963 63.7688 29.157 63.6514 29.2355C63.6123 29.157 63.4948 29.0786 63.4948 29.0786C63.4948 29.0786 63.4165 29.157 63.3382 29.2355C63.2208 29.157 63.0642 29.1963 63.0642 29.1963C63.0642 29.1963 63.0642 29.2747 63.0642 29.3531C63.1034 29.3531 63.1034 29.3531 63.1425 29.3531C63.2599 29.3531 63.3382 29.4316 63.3382 29.5492C63.3382 29.5884 63.3382 29.6276 63.3382 29.6276H63.2991V29.7061H63.1816V29.9414H63.808V29.7061H63.6905V29.6276H63.6514C63.6514 29.5884 63.6514 29.5884 63.6514 29.5492C63.6514 29.4316 63.7297 29.3531 63.8471 29.3531C63.8863 29.3531 63.8863 29.3531 63.9254 29.3531C63.9254 29.2355 63.9254 29.1963 63.9254 29.1963Z" fill="#E59D48"/>
<path d="M65.2955 29.1963C65.2955 29.1963 65.139 29.157 65.0215 29.2355C64.9824 29.157 64.8649 29.0786 64.8649 29.0786C64.8649 29.0786 64.7866 29.157 64.7083 29.2355C64.5909 29.157 64.4343 29.1963 64.4343 29.1963C64.4343 29.1963 64.4343 29.2747 64.4343 29.3531C64.4735 29.3531 64.4735 29.3531 64.5126 29.3531C64.6301 29.3531 64.7083 29.4316 64.7083 29.5492C64.7083 29.5884 64.7083 29.6276 64.7083 29.6276H64.6692V29.7061H64.5518V29.9414H65.1781V29.7061H65.0607V29.6276H65.0215C65.0215 29.5884 65.0215 29.5884 65.0215 29.5492C65.0215 29.4316 65.0998 29.3531 65.2172 29.3531C65.2564 29.3531 65.2564 29.3531 65.2955 29.3531C65.2955 29.2355 65.2955 29.1963 65.2955 29.1963Z" fill="#E59D48"/>
<path d="M66.6657 29.1963C66.6657 29.1963 66.5091 29.157 66.3916 29.2355C66.3525 29.157 66.235 29.0786 66.235 29.0786C66.235 29.0786 66.1568 29.157 66.0785 29.2355C65.961 29.157 65.8044 29.1963 65.8044 29.1963C65.8044 29.1963 65.8044 29.2747 65.8044 29.3531C65.8436 29.3531 65.8436 29.3531 65.8827 29.3531C66.0002 29.3531 66.0785 29.4316 66.0785 29.5492C66.0785 29.5884 66.0785 29.6276 66.0785 29.6276H66.0393V29.7061H65.9219V29.9414H66.5482V29.7061H66.4308V29.6276H66.3916C66.3916 29.5884 66.3916 29.5884 66.3916 29.5492C66.3916 29.4316 66.4699 29.3531 66.5874 29.3531C66.6265 29.3531 66.6265 29.3531 66.6657 29.3531C66.6657 29.2355 66.6657 29.1963 66.6657 29.1963Z" fill="#E59D48"/>
<path d="M68.0355 29.1963C68.0355 29.1963 67.8789 29.157 67.7615 29.2355C67.7224 29.157 67.6049 29.0786 67.6049 29.0786C67.6049 29.0786 67.5266 29.157 67.4483 29.2355C67.3309 29.157 67.1743 29.1963 67.1743 29.1963C67.1743 29.1963 67.1743 29.2747 67.1743 29.3531C67.2135 29.3531 67.2135 29.3531 67.2526 29.3531C67.37 29.3531 67.4483 29.4316 67.4483 29.5492C67.4483 29.5884 67.4483 29.6276 67.4092 29.6276H67.37V29.7061H67.2526V29.9414H67.8789V29.7061H67.7615V29.6276H67.7224C67.7224 29.5884 67.7224 29.5884 67.7224 29.5492C67.7224 29.4316 67.8006 29.3531 67.9181 29.3531C67.9572 29.3531 67.9572 29.3531 67.9964 29.3531C68.0355 29.2355 68.0355 29.1963 68.0355 29.1963Z" fill="#E59D48"/>
<path d="M69.4056 29.1963C69.4056 29.1963 69.2491 29.157 69.1316 29.2355C69.0925 29.157 68.975 29.0786 68.975 29.0786C68.975 29.0786 68.8967 29.157 68.8185 29.2355C68.701 29.157 68.5444 29.1963 68.5444 29.1963C68.5444 29.1963 68.5444 29.2747 68.5444 29.3531C68.5836 29.3531 68.5836 29.3531 68.6227 29.3531C68.7402 29.3531 68.8185 29.4316 68.8185 29.5492C68.8185 29.5884 68.8185 29.6276 68.8185 29.6276H68.7793V29.7061H68.6619V29.9414H69.2882V29.7061H69.1708V29.6276H69.1316C69.1316 29.5884 69.1316 29.5884 69.1316 29.5492C69.1316 29.4316 69.2099 29.3531 69.3274 29.3531C69.3665 29.3531 69.3665 29.3531 69.4056 29.3531C69.4056 29.2355 69.4056 29.1963 69.4056 29.1963Z" fill="#E59D48"/>
<path d="M70.7758 29.1963C70.7758 29.1963 70.6192 29.157 70.5017 29.2355C70.4626 29.157 70.3452 29.0786 70.3452 29.0786C70.3452 29.0786 70.2669 29.157 70.1886 29.2355C70.0711 29.157 69.9146 29.1963 69.9146 29.1963C69.9146 29.1963 69.9146 29.2747 69.9146 29.3531C69.9537 29.3531 69.9537 29.3531 69.9928 29.3531C70.1103 29.3531 70.1886 29.4316 70.1886 29.5492C70.1886 29.5884 70.1886 29.6276 70.1886 29.6276H70.1494V29.7061H70.032V29.9414H70.6583V29.7061H70.5409V29.6276H70.5017C70.5017 29.5884 70.4626 29.5884 70.4626 29.5492C70.4626 29.4316 70.5409 29.3531 70.6583 29.3531C70.6975 29.3531 70.6975 29.3531 70.7366 29.3531C70.7758 29.2355 70.7758 29.1963 70.7758 29.1963Z" fill="#E59D48"/>
<path d="M72.1459 29.1963C72.1459 29.1963 71.9893 29.157 71.8719 29.2355C71.8327 29.157 71.7153 29.0786 71.7153 29.0786C71.7153 29.0786 71.637 29.157 71.5587 29.2355C71.4413 29.157 71.2847 29.1963 71.2847 29.1963C71.2847 29.1963 71.2847 29.2747 71.2847 29.3531C71.3238 29.3531 71.3238 29.3531 71.363 29.3531C71.4804 29.3531 71.5587 29.4316 71.5587 29.5492C71.5587 29.5884 71.5587 29.6276 71.5587 29.6276H71.5195V29.7061H71.4021V29.9414H72.0284V29.7061H71.911V29.6276H71.8719C71.8719 29.5884 71.8327 29.5884 71.8327 29.5492C71.8327 29.4316 71.911 29.3531 72.0284 29.3531C72.0676 29.3531 72.0676 29.3531 72.1067 29.3531C72.1459 29.2355 72.1459 29.1963 72.1459 29.1963Z" fill="#E59D48"/>
<path d="M73.516 29.1963C73.516 29.1963 73.3594 29.157 73.242 29.2355C73.2028 29.157 73.0854 29.0786 73.0854 29.0786C73.0854 29.0786 73.0071 29.157 72.9288 29.2355C72.8114 29.157 72.6548 29.1963 72.6548 29.1963C72.6548 29.1963 72.6548 29.2747 72.6548 29.3531C72.6939 29.3531 72.6939 29.3531 72.7331 29.3531C72.8505 29.3531 72.9288 29.4316 72.9288 29.5492C72.9288 29.5884 72.9288 29.6276 72.9288 29.6276H72.8897V29.7061H72.7722V29.9414H73.3986V29.7061H73.2811V29.6276H73.242C73.242 29.5884 73.2028 29.5884 73.2028 29.5492C73.2028 29.4316 73.2811 29.3531 73.3986 29.3531C73.4377 29.3531 73.4377 29.3531 73.4768 29.3531C73.516 29.2355 73.516 29.1963 73.516 29.1963Z" fill="#E59D48"/>
<path d="M74.8861 29.1963C74.8861 29.1963 74.7295 29.157 74.6121 29.2355C74.5729 29.157 74.4555 29.0786 74.4555 29.0786C74.4555 29.0786 74.3772 29.157 74.2989 29.2355C74.1815 29.157 74.0249 29.1963 74.0249 29.1963C74.0249 29.1963 74.0249 29.2747 74.0249 29.3531C74.064 29.3531 74.064 29.3531 74.1032 29.3531C74.2206 29.3531 74.2989 29.4316 74.2989 29.5492C74.2989 29.5884 74.2989 29.6276 74.2989 29.6276H74.2598V29.7061H74.1423V29.9414H74.7687V29.7061H74.6512V29.6276H74.6121C74.6121 29.5884 74.6121 29.5884 74.6121 29.5492C74.6121 29.4316 74.6904 29.3531 74.8078 29.3531C74.847 29.3531 74.847 29.3531 74.8861 29.3531C74.8861 29.2355 74.8861 29.1963 74.8861 29.1963Z" fill="#E59D48"/>
<path d="M76.2562 29.1963C76.2562 29.1963 76.0996 29.157 75.9822 29.2355C75.9431 29.157 75.8256 29.0786 75.8256 29.0786C75.8256 29.0786 75.7473 29.157 75.669 29.2355C75.5516 29.157 75.395 29.1963 75.395 29.1963C75.395 29.1963 75.395 29.2747 75.395 29.3531C75.4342 29.3531 75.4342 29.3531 75.4733 29.3531C75.5907 29.3531 75.669 29.4316 75.669 29.5492C75.669 29.5884 75.669 29.6276 75.669 29.6276H75.6299V29.7061H75.5125V29.9414H76.1388V29.7061H76.0214V29.6276H75.9822C75.9822 29.5884 75.9822 29.5884 75.9822 29.5492C75.9822 29.4316 76.0605 29.3531 76.1779 29.3531C76.2171 29.3531 76.2171 29.3531 76.2562 29.3531C76.2562 29.2355 76.2562 29.1963 76.2562 29.1963Z" fill="#E59D48"/>
<path d="M77.7047 29.1963C77.7047 29.1963 77.5481 29.157 77.4307 29.2355C77.3915 29.157 77.2741 29.0786 77.2741 29.0786C77.2741 29.0786 77.1958 29.157 77.1175 29.2355C77.0001 29.157 76.8435 29.1963 76.8435 29.1963C76.8435 29.1963 76.8435 29.2747 76.8435 29.3531C76.8827 29.3531 76.8827 29.3531 76.9218 29.3531C77.0392 29.3531 77.1175 29.4316 77.1175 29.5492C77.1175 29.5884 77.1175 29.6276 77.1175 29.6276H77.0784V29.7061H76.9609V29.9414H77.5873V29.7061H77.509V29.6276H77.4698C77.4698 29.5884 77.4698 29.5884 77.4698 29.5492C77.4698 29.4316 77.5481 29.3531 77.6656 29.3531C77.7047 29.3531 77.7047 29.3531 77.7439 29.3531C77.7047 29.2355 77.7047 29.1963 77.7047 29.1963Z" fill="#E59D48"/>
<path d="M79.1139 29.1963C79.1139 29.1963 78.9573 29.157 78.8399 29.2355C78.8007 29.157 78.6833 29.0786 78.6833 29.0786C78.6833 29.0786 78.605 29.157 78.5267 29.2355C78.4093 29.157 78.2527 29.1963 78.2527 29.1963C78.2527 29.1963 78.2527 29.2747 78.2527 29.3531C78.2918 29.3531 78.2918 29.3531 78.331 29.3531C78.4484 29.3531 78.5267 29.4316 78.5267 29.5492C78.5267 29.5884 78.5267 29.6276 78.5267 29.6276H78.4876V29.7061H78.3701V29.9414H78.9965V29.7061H78.879V29.6276H78.8399C78.8399 29.5884 78.8007 29.5884 78.8007 29.5492C78.8007 29.4316 78.879 29.3531 78.9965 29.3531C79.0356 29.3531 79.0356 29.3531 79.0748 29.3531C79.1139 29.2355 79.1139 29.1963 79.1139 29.1963Z" fill="#E59D48"/>
<path d="M80.484 29.1963C80.484 29.1963 80.3274 29.157 80.21 29.2355C80.1708 29.157 80.0534 29.0786 80.0534 29.0786C80.0534 29.0786 79.9751 29.157 79.8968 29.2355C79.7794 29.157 79.6228 29.1963 79.6228 29.1963C79.6228 29.1963 79.6228 29.2747 79.6228 29.3531C79.6619 29.3531 79.662 29.3531 79.7011 29.3531C79.8185 29.3531 79.8968 29.4316 79.8968 29.5492C79.8968 29.5884 79.8968 29.6276 79.8968 29.6276H79.8577V29.7061H79.7402V29.9414H80.3666V29.7061H80.2491V29.6276H80.21C80.21 29.5884 80.21 29.5884 80.21 29.5492C80.21 29.4316 80.2883 29.3531 80.4057 29.3531C80.4449 29.3531 80.4449 29.3531 80.484 29.3531C80.484 29.2355 80.484 29.1963 80.484 29.1963Z" fill="#E59D48"/>
<path d="M81.6193 29.1963C81.6193 29.1963 81.4627 29.157 81.3452 29.2355C81.3061 29.157 81.1887 29.0786 81.1887 29.0786C81.1887 29.0786 81.1104 29.157 81.0321 29.2355C80.9146 29.157 80.7581 29.1963 80.7581 29.1963C80.7581 29.1963 80.7581 29.2747 80.7581 29.3531C80.7972 29.3531 80.7972 29.3531 80.8363 29.3531C80.9538 29.3531 81.0321 29.4316 81.0321 29.5492C81.0321 29.5884 81.0321 29.6276 81.0321 29.6276H80.9929V29.7061H80.8755V29.9414H81.5018V29.7061H81.4235V29.6276H81.3844C81.3844 29.5884 81.3452 29.5884 81.3452 29.5492C81.3452 29.4316 81.4235 29.3531 81.541 29.3531C81.5801 29.3531 81.5801 29.3531 81.6193 29.3531C81.6193 29.2355 81.6193 29.1963 81.6193 29.1963Z" fill="#E59D48"/>
<path d="M82.9894 29.1963C82.9894 29.1963 82.8328 29.157 82.7154 29.2355C82.6762 29.157 82.5588 29.0786 82.5588 29.0786C82.5588 29.0786 82.4805 29.157 82.4022 29.2355C82.2848 29.157 82.1282 29.1963 82.1282 29.1963C82.1282 29.1963 82.1282 29.2747 82.1282 29.3531C82.1673 29.3531 82.1673 29.3531 82.2065 29.3531C82.3239 29.3531 82.4022 29.4316 82.4022 29.5492C82.4022 29.5884 82.4022 29.6276 82.4022 29.6276H82.363V29.7061H82.2456V29.9414H82.8719V29.7061H82.7545V29.6276H82.7154C82.7154 29.5884 82.7154 29.5884 82.7154 29.5492C82.7154 29.4316 82.7937 29.3531 82.9111 29.3531C82.9502 29.3531 82.9502 29.3531 82.9894 29.3531C82.9894 29.2355 82.9894 29.1963 82.9894 29.1963Z" fill="#E59D48"/>
<path d="M72.6156 29.1963C72.6156 29.1963 72.459 29.157 72.3416 29.2355C72.3024 29.157 72.185 29.0786 72.185 29.0786C72.185 29.0786 72.1067 29.157 72.0284 29.2355C71.911 29.157 71.7544 29.1963 71.7544 29.1963C71.7544 29.1963 71.7544 29.2747 71.7544 29.3531C71.7935 29.3531 71.7935 29.3531 71.8327 29.3531C71.9501 29.3531 72.0284 29.4316 72.0284 29.5492C72.0284 29.5884 72.0284 29.6276 72.0284 29.6276H71.9893V29.7061H71.8718V29.9414H72.4982V29.7061H72.4199V29.6276H72.3807C72.3807 29.5884 72.3807 29.5884 72.3807 29.5492C72.3807 29.4316 72.459 29.3531 72.5765 29.3531C72.6156 29.3531 72.6156 29.3531 72.6548 29.3531C72.6548 29.2355 72.6156 29.1963 72.6156 29.1963Z" fill="#E59D48"/>
<path d="M73.9857 29.1963C73.9857 29.1963 73.8291 29.157 73.7117 29.2355C73.6726 29.157 73.5551 29.0786 73.5551 29.0786C73.5551 29.0786 73.4768 29.157 73.3985 29.2355C73.2811 29.157 73.1245 29.1963 73.1245 29.1963C73.1245 29.1963 73.1245 29.2747 73.1245 29.3531C73.1637 29.3531 73.1637 29.3531 73.2028 29.3531C73.3202 29.3531 73.3985 29.4316 73.3985 29.5492C73.3985 29.5884 73.3985 29.6276 73.3985 29.6276H73.3594V29.7061H73.242V29.9414H73.8683V29.7061H73.7508V29.6276H73.7117C73.7117 29.5884 73.7117 29.5884 73.7117 29.5492C73.7117 29.4316 73.79 29.3531 73.9074 29.3531C73.9466 29.3531 73.9466 29.3531 73.9857 29.3531C74.0249 29.2355 73.9857 29.1963 73.9857 29.1963Z" fill="#E59D48"/>
<path d="M75.3558 29.1963C75.3558 29.1963 75.1993 29.157 75.0818 29.2355C75.0427 29.157 74.9252 29.0786 74.9252 29.0786C74.9252 29.0786 74.8469 29.157 74.7686 29.2355C74.6512 29.157 74.4946 29.1963 74.4946 29.1963C74.4946 29.1963 74.4946 29.2747 74.4946 29.3531C74.5338 29.3531 74.5338 29.3531 74.5729 29.3531C74.6904 29.3531 74.7686 29.4316 74.7686 29.5492C74.7686 29.5884 74.7686 29.6276 74.7686 29.6276H74.7295V29.7061H74.6121V29.9414H75.2384V29.7061H75.1601V29.6276H75.121C75.121 29.5884 75.0818 29.5884 75.0818 29.5492C75.0818 29.4316 75.1601 29.3531 75.2775 29.3531C75.3167 29.3531 75.3167 29.3531 75.3558 29.3531C75.395 29.2355 75.3558 29.1963 75.3558 29.1963Z" fill="#E59D48"/>
<path d="M76.726 29.1963C76.726 29.1963 76.5694 29.157 76.4519 29.2355C76.4128 29.157 76.2953 29.0786 76.2953 29.0786C76.2953 29.0786 76.2171 29.157 76.1388 29.2355C76.0213 29.157 75.8647 29.1963 75.8647 29.1963C75.8647 29.1963 75.8647 29.2747 75.8647 29.3531C75.9039 29.3531 75.9039 29.3531 75.943 29.3531C76.0605 29.3531 76.1388 29.4316 76.1388 29.5492C76.1388 29.5884 76.1388 29.6276 76.1388 29.6276H76.0996V29.7061H75.9822V29.9414H76.6085V29.7061H76.4911V29.6276H76.4519C76.4519 29.5884 76.4519 29.5884 76.4519 29.5492C76.4519 29.4316 76.5302 29.3531 76.6477 29.3531C76.6868 29.3531 76.6868 29.3531 76.726 29.3531C76.726 29.2355 76.726 29.1963 76.726 29.1963Z" fill="#E59D48"/>
<path d="M78.0961 29.1963C78.0961 29.1963 77.9395 29.157 77.8221 29.2355C77.7829 29.157 77.6655 29.0786 77.6655 29.0786C77.6655 29.0786 77.5872 29.157 77.5089 29.2355C77.3914 29.157 77.2349 29.1963 77.2349 29.1963C77.2349 29.1963 77.2349 29.2747 77.2349 29.3531C77.274 29.3531 77.274 29.3531 77.3132 29.3531C77.4306 29.3531 77.5089 29.4316 77.5089 29.5492C77.5089 29.5884 77.5089 29.6276 77.5089 29.6276H77.4697V29.7061H77.3523V29.9414H77.9786V29.7061H77.9003V29.6276H77.8612C77.8612 29.5884 77.8612 29.5884 77.8612 29.5492C77.8612 29.4316 77.9395 29.3531 78.0569 29.3531C78.0961 29.3531 78.0961 29.3531 78.1352 29.3531C78.0961 29.2355 78.0961 29.1963 78.0961 29.1963Z" fill="#E59D48"/>
<path d="M79.4662 29.1963C79.4662 29.1963 79.3096 29.157 79.1922 29.2355C79.153 29.157 79.0356 29.0786 79.0356 29.0786C79.0356 29.0786 78.9573 29.157 78.879 29.2355C78.7616 29.157 78.605 29.1963 78.605 29.1963C78.605 29.1963 78.605 29.2747 78.605 29.3531C78.6441 29.3531 78.6441 29.3531 78.6833 29.3531C78.8007 29.3531 78.879 29.4316 78.879 29.5492C78.879 29.5884 78.879 29.6276 78.879 29.6276H78.8399V29.7061H78.7224V29.9414H79.3488V29.7061H79.2313V29.6276H79.1922C79.1922 29.5884 79.153 29.5884 79.153 29.5492C79.153 29.4316 79.2313 29.3531 79.3488 29.3531C79.3879 29.3531 79.3879 29.3531 79.427 29.3531C79.4662 29.2355 79.4662 29.1963 79.4662 29.1963Z" fill="#E59D48"/>
<path d="M80.8363 29.1963C80.8363 29.1963 80.6797 29.157 80.5623 29.2355C80.5231 29.157 80.4057 29.0786 80.4057 29.0786C80.4057 29.0786 80.3274 29.157 80.2491 29.2355C80.1317 29.157 79.9751 29.1963 79.9751 29.1963C79.9751 29.1963 79.9751 29.2747 79.9751 29.3531C80.0142 29.3531 80.0142 29.3531 80.0534 29.3531C80.1708 29.3531 80.2491 29.4316 80.2491 29.5492C80.2491 29.5884 80.2491 29.6276 80.2491 29.6276H80.21V29.7061H80.0925V29.9414H80.7189V29.7061H80.6406V29.6276H80.6014C80.6014 29.5884 80.6014 29.5884 80.6014 29.5492C80.6014 29.4316 80.6797 29.3531 80.7972 29.3531C80.8363 29.3531 80.8363 29.3531 80.8755 29.3531C80.8363 29.2355 80.8363 29.1963 80.8363 29.1963Z" fill="#E59D48"/>
<path d="M82.2064 29.1963C82.2064 29.1963 82.0498 29.157 81.9324 29.2355C81.8933 29.157 81.7758 29.0786 81.7758 29.0786C81.7758 29.0786 81.6975 29.157 81.6192 29.2355C81.5018 29.157 81.3452 29.1963 81.3452 29.1963C81.3452 29.1963 81.3452 29.2747 81.3452 29.3531C81.3844 29.3531 81.3844 29.3531 81.4235 29.3531C81.5409 29.3531 81.6192 29.4316 81.6192 29.5492C81.6192 29.5884 81.6192 29.6276 81.6192 29.6276H81.5801V29.7061H81.4627V29.9414H82.089V29.7061H81.9715V29.6276H81.9324C81.9324 29.5884 81.9324 29.5884 81.9324 29.5492C81.9324 29.4316 82.0107 29.3531 82.1281 29.3531C82.1673 29.3531 82.1673 29.3531 82.2064 29.3531C82.2064 29.2355 82.2064 29.1963 82.2064 29.1963Z" fill="#E59D48"/>
<path d="M83.5765 29.1963C83.5765 29.1963 83.42 29.157 83.3025 29.2355C83.2634 29.157 83.1459 29.0786 83.1459 29.0786C83.1459 29.0786 83.0676 29.157 82.9894 29.2355C82.8719 29.157 82.7153 29.1963 82.7153 29.1963C82.7153 29.1963 82.7153 29.2747 82.7153 29.3531C82.7545 29.3531 82.7545 29.3531 82.7936 29.3531C82.9111 29.3531 82.9894 29.4316 82.9894 29.5492C82.9894 29.5884 82.9894 29.6276 82.9894 29.6276H82.9502V29.7061H82.8328V29.9414H83.4591V29.7061H83.3808V29.6276H83.3417C83.3417 29.5884 83.3025 29.5884 83.3025 29.5492C83.3025 29.4316 83.3808 29.3531 83.4983 29.3531C83.5374 29.3531 83.5374 29.3531 83.5765 29.3531C83.5765 29.2355 83.5765 29.1963 83.5765 29.1963Z" fill="#E59D48"/>
<path d="M84.9467 29.1963C84.9467 29.1963 84.7901 29.157 84.6726 29.2355C84.6335 29.157 84.5161 29.0786 84.5161 29.0786C84.5161 29.0786 84.4378 29.157 84.3595 29.2355C84.242 29.157 84.0854 29.1963 84.0854 29.1963C84.0854 29.1963 84.0854 29.2747 84.0854 29.3531C84.1246 29.3531 84.1246 29.3531 84.1637 29.3531C84.2812 29.3531 84.3595 29.4316 84.3595 29.5492C84.3595 29.5884 84.3595 29.6276 84.3595 29.6276H84.3203V29.7061H84.2029V29.9414H84.8292V29.7061H84.7118V29.6276H84.6726C84.6726 29.5884 84.6726 29.5884 84.6726 29.5492C84.6726 29.4316 84.7509 29.3531 84.8684 29.3531C84.9075 29.3531 84.9075 29.3531 84.9467 29.3531C84.9467 29.2355 84.9467 29.1963 84.9467 29.1963Z" fill="#E59D48"/>
<path d="M86.3168 29.1963C86.3168 29.1963 86.1602 29.157 86.0428 29.2355C86.0036 29.157 85.8862 29.0786 85.8862 29.0786C85.8862 29.0786 85.8079 29.157 85.7296 29.2355C85.6121 29.157 85.4556 29.1963 85.4556 29.1963C85.4556 29.1963 85.4556 29.2747 85.4556 29.3531C85.4947 29.3531 85.4947 29.3531 85.5339 29.3531C85.6513 29.3531 85.7296 29.4316 85.7296 29.5492C85.7296 29.5884 85.7296 29.6276 85.6904 29.6276H85.6513V29.7061H85.5339V29.9414H86.1602V29.7061H86.121V29.6276H86.0819C86.0819 29.5884 86.0819 29.5884 86.0819 29.5492C86.0819 29.4316 86.1602 29.3531 86.2776 29.3531C86.3168 29.3531 86.3168 29.3531 86.3559 29.3531C86.3168 29.2355 86.3168 29.1963 86.3168 29.1963Z" fill="#E59D48"/>
<path d="M87.6869 29.1963C87.6869 29.1963 87.5303 29.157 87.4129 29.2355C87.3737 29.157 87.2563 29.0786 87.2563 29.0786C87.2563 29.0786 87.178 29.157 87.0997 29.2355C86.9823 29.157 86.8257 29.1963 86.8257 29.1963C86.8257 29.1963 86.8257 29.2747 86.8257 29.3531C86.8648 29.3531 86.8648 29.3531 86.904 29.3531C87.0214 29.3531 87.0997 29.4316 87.0997 29.5492C87.0997 29.5884 87.0997 29.6276 87.0997 29.6276H87.0606V29.7061H86.9431V29.9414H87.5695V29.7061H87.452V29.6276H87.4129C87.4129 29.5884 87.4129 29.5884 87.4129 29.5492C87.4129 29.4316 87.4912 29.3531 87.6086 29.3531C87.6477 29.3531 87.6477 29.3531 87.6869 29.3531C87.6869 29.2355 87.6869 29.1963 87.6869 29.1963Z" fill="#E59D48"/>
<path d="M89.1744 29.1963C89.1744 29.1963 89.0179 29.157 88.9004 29.2355C88.8613 29.157 88.7438 29.0786 88.7438 29.0786C88.7438 29.0786 88.6655 29.157 88.5873 29.2355C88.4698 29.157 88.3132 29.1963 88.3132 29.1963C88.3132 29.1963 88.3132 29.2747 88.3132 29.3531C88.3524 29.3531 88.3524 29.3531 88.3915 29.3531C88.509 29.3531 88.5873 29.4316 88.5873 29.5492C88.5873 29.5884 88.5873 29.6276 88.5873 29.6276H88.5481V29.7061H88.4307V29.9414H89.057V29.7061H88.9396V29.6276H88.9004C88.9004 29.5884 88.8613 29.5884 88.8613 29.5492C88.8613 29.4316 88.9396 29.3531 89.057 29.3531C89.0961 29.3531 89.0961 29.3531 89.1353 29.3531C89.1744 29.2355 89.1744 29.1963 89.1744 29.1963Z" fill="#E59D48"/>
<path d="M90.5446 29.1963C90.5446 29.1963 90.388 29.157 90.2705 29.2355C90.2314 29.157 90.114 29.0786 90.114 29.0786C90.114 29.0786 90.0357 29.157 89.9574 29.2355C89.8399 29.157 89.6833 29.1963 89.6833 29.1963C89.6833 29.1963 89.6833 29.2747 89.6833 29.3531C89.7225 29.3531 89.7225 29.3531 89.7616 29.3531C89.8791 29.3531 89.9574 29.4316 89.9574 29.5492C89.9574 29.5884 89.9574 29.6276 89.9574 29.6276H89.9182V29.7061H89.8008V29.9414H90.4271V29.7061H90.3097V29.6276H90.2705C90.2705 29.5884 90.2705 29.5884 90.2705 29.5492C90.2705 29.4316 90.3488 29.3531 90.4663 29.3531C90.5054 29.3531 90.5054 29.3531 90.5446 29.3531C90.5446 29.2355 90.5446 29.1963 90.5446 29.1963Z" fill="#E59D48"/>
<path d="M91.9147 29.1963C91.9147 29.1963 91.7581 29.157 91.6407 29.2355C91.6015 29.157 91.4841 29.0786 91.4841 29.0786C91.4841 29.0786 91.4058 29.157 91.3275 29.2355C91.21 29.157 91.0535 29.1963 91.0535 29.1963C91.0535 29.1963 91.0535 29.2747 91.0535 29.3531C91.0926 29.3531 91.0926 29.3531 91.1318 29.3531C91.2492 29.3531 91.3275 29.4316 91.3275 29.5492C91.3275 29.5884 91.3275 29.6276 91.3275 29.6276H91.2883V29.7061H91.1709V29.9414H91.7972V29.7061H91.6798V29.6276H91.6407C91.6407 29.5884 91.6407 29.5884 91.6407 29.5492C91.6407 29.4316 91.7189 29.3531 91.8364 29.3531C91.8755 29.3531 91.8755 29.3531 91.9147 29.3531C91.9147 29.2355 91.9147 29.1963 91.9147 29.1963Z" fill="#E59D48"/>
<path d="M93.089 29.1963C93.089 29.1963 92.9324 29.157 92.815 29.2355C92.7758 29.157 92.6584 29.0786 92.6584 29.0786C92.6584 29.0786 92.5801 29.157 92.5018 29.2355C92.3844 29.157 92.2278 29.1963 92.2278 29.1963C92.2278 29.1963 92.2278 29.2747 92.2278 29.3531C92.2669 29.3531 92.2669 29.3531 92.3061 29.3531C92.4235 29.3531 92.5018 29.4316 92.5018 29.5492C92.5018 29.5884 92.5018 29.6276 92.4627 29.6276H92.4235V29.7061H92.3061V29.9414H92.9324V29.7061H92.815V29.6276H92.7758C92.7758 29.5884 92.7758 29.5884 92.7758 29.5492C92.7758 29.4316 92.8541 29.3531 92.9716 29.3531C93.0107 29.3531 93.0107 29.3531 93.0498 29.3531C93.089 29.2355 93.089 29.1963 93.089 29.1963Z" fill="#E59D48"/>
<path d="M94.4591 29.1963C94.4591 29.1963 94.3025 29.157 94.1851 29.2355C94.1459 29.157 94.0285 29.0786 94.0285 29.0786C94.0285 29.0786 93.9502 29.157 93.8719 29.2355C93.7545 29.157 93.5979 29.1963 93.5979 29.1963C93.5979 29.1963 93.5979 29.2747 93.5979 29.3531C93.637 29.3531 93.637 29.3531 93.6762 29.3531C93.7936 29.3531 93.8719 29.4316 93.8719 29.5492C93.8719 29.5884 93.8719 29.6276 93.8719 29.6276H93.8328V29.7061H93.7153V29.9414H94.3417V29.7061H94.2242V29.6276H94.1851C94.1851 29.5884 94.1851 29.5884 94.1851 29.5492C94.1851 29.4316 94.2634 29.3531 94.3808 29.3531C94.42 29.3531 94.42 29.3531 94.4591 29.3531C94.4591 29.2355 94.4591 29.1963 94.4591 29.1963Z" fill="#E59D48"/>
<path d="M94.4592 29.9019H60.324V30.9999H94.4592V29.9019Z" fill="#D68A36"/>
<path d="M92.4236 33.8627H62.3204L60.324 31H94.4592L92.4236 33.8627Z" fill="#CC7A27"/>
<path d="M93.598 32.0981H61.1069V46.3334H93.598V32.0981Z" fill="#D68A36"/>
<path opacity="0.05" d="M86.9431 29.9018L68.0356 29.7842V30.8822L68.7403 32.0195V46.2156L88.6655 46.3332H90.3488H98.4912V35.4705L92.1887 32.0979H92.7759L90.5445 30.9999H89.5659L86.9431 29.9018Z" fill="black"/>
<path opacity="0.05" d="M67.6443 46.3334H61.6941V32.0981L67.6443 35.1962V46.3334Z" fill="black"/>
<path d="M77.2349 14.7646C77.2349 14.7646 70.9324 18.7646 70.9324 23.745H83.5374C83.5374 18.7646 77.2349 14.7646 77.2349 14.7646Z" fill="#FFBC5A"/>
<path d="M77.9396 14.6079H76.6086V14.9216H77.9396V14.6079Z" fill="#FFBC5A"/>
<path d="M77.4306 12.2549H77.1174V15.3137H77.4306V12.2549Z" fill="#FFBC5A"/>
<path d="M77.3524 11.7842H77.1958V14.843H77.3524V11.7842Z" fill="#FFBC5A"/>
<path d="M77.2742 14.4901C77.4688 14.4901 77.6265 14.332 77.6265 14.1371C77.6265 13.9422 77.4688 13.7842 77.2742 13.7842C77.0796 13.7842 76.9219 13.9422 76.9219 14.1371C76.9219 14.332 77.0796 14.4901 77.2742 14.4901Z" fill="#FFBC5A"/>
<path d="M77.2742 13.7845C77.4688 13.7845 77.6265 13.6265 77.6265 13.4316C77.6265 13.2366 77.4688 13.0786 77.2742 13.0786C77.0796 13.0786 76.9219 13.2366 76.9219 13.4316C76.9219 13.6265 77.0796 13.7845 77.2742 13.7845Z" fill="#FFBC5A"/>
<path d="M77.2742 13.0394C77.4688 13.0394 77.6265 12.8814 77.6265 12.6864C77.6265 12.4915 77.4688 12.3335 77.2742 12.3335C77.0796 12.3335 76.9219 12.4915 76.9219 12.6864C76.9219 12.8814 77.0796 13.0394 77.2742 13.0394Z" fill="#FFBC5A"/>
<path d="M77.2742 12.0198C77.4688 12.0198 77.6265 11.8618 77.6265 11.6669C77.6265 11.472 77.4688 11.314 77.2742 11.314C77.0796 11.314 76.9219 11.472 76.9219 11.6669C76.9219 11.8618 77.0796 12.0198 77.2742 12.0198Z" fill="#FFBC5A"/>
<path opacity="0.1" d="M77.509 14.9215H77.9788V14.6077H77.4699V14.4509C77.5873 14.4117 77.6656 14.294 77.6656 14.1372C77.6656 14.0195 77.5873 13.9019 77.4699 13.8234V13.7058C77.5873 13.6666 77.6656 13.5489 77.6656 13.3921C77.6656 13.2744 77.5873 13.1568 77.4699 13.0783V12.9607C77.5873 12.9215 77.6656 12.8038 77.6656 12.647C77.6656 12.5293 77.5873 12.4117 77.4699 12.3332V12.2156H77.3916V11.9803C77.5482 11.9411 77.6656 11.8234 77.6656 11.6274C77.6656 11.4313 77.509 11.2744 77.3133 11.2744C77.3133 11.2744 77.3133 11.2744 77.2742 11.2744V23.745H83.5767C83.5767 19.3528 78.6443 15.7058 77.509 14.9215Z" fill="black"/>
<path d="M84.9858 23.7451H69.5232V24.4902H84.9858V23.7451Z" fill="#FFC373"/>
<path d="M71.0891 21.5488C71.0891 21.5488 70.6194 21.9018 70.6194 22.3331V23.7449H71.5197V22.3331C71.5589 21.9018 71.0891 21.5488 71.0891 21.5488Z" fill="#FFC373"/>
<path opacity="0.1" d="M71.0891 21.5488V23.7449H71.5589V22.3331C71.5589 21.9018 71.0891 21.588 71.0891 21.5488Z" fill="black"/>
<path d="M73.242 21.5488C73.242 21.5488 72.7722 21.9018 72.7722 22.3331V23.7449H73.6726V22.3331C73.7117 21.9018 73.242 21.5488 73.242 21.5488Z" fill="#FFC373"/>
<path opacity="0.1" d="M73.2419 21.5488V23.7449H73.7117V22.3331C73.7117 21.9018 73.2419 21.588 73.2419 21.5488Z" fill="black"/>
<path d="M75.4341 21.5488C75.4341 21.5488 74.9644 21.9018 74.9644 22.3331V23.7449H75.8647V22.3331C75.8647 21.9018 75.4341 21.5488 75.4341 21.5488Z" fill="#FFC373"/>
<path opacity="0.1" d="M75.4343 21.5488V23.7449H75.9041V22.3331C75.8649 21.9018 75.4343 21.588 75.4343 21.5488Z" fill="black"/>
<path d="M79.1531 21.5488C79.1531 21.5488 78.6833 21.9018 78.6833 22.3331V23.7449H79.5837V22.3331C79.5837 21.9018 79.1531 21.5488 79.1531 21.5488Z" fill="#FFC373"/>
<path opacity="0.1" d="M79.1531 21.5488V23.7449H79.6228V22.3331C79.5837 21.9018 79.1531 21.588 79.1531 21.5488Z" fill="black"/>
<path d="M81.3062 21.5488C81.3062 21.5488 80.8364 21.9018 80.8364 22.3331V23.7449H81.7368V22.3331C81.7759 21.9018 81.3062 21.5488 81.3062 21.5488Z" fill="#FFC373"/>
<path opacity="0.1" d="M81.3062 21.5488V23.7449H81.7759V22.3331C81.7759 21.9018 81.3062 21.588 81.3062 21.5488Z" fill="black"/>
<path d="M83.459 21.5488C83.459 21.5488 82.9893 21.9018 82.9893 22.3331V23.7449H83.8896V22.3331C83.9288 21.9018 83.459 21.5488 83.459 21.5488Z" fill="#FFC373"/>
<path opacity="0.1" d="M83.4592 21.5488V23.7449H83.929V22.3331C83.929 21.9018 83.4984 21.588 83.4592 21.5488Z" fill="black"/>
<path d="M77.2742 21.5488C77.2742 21.5488 76.8044 21.9018 76.8044 22.3331V23.7449H77.7048V22.3331C77.7439 21.9018 77.2742 21.5488 77.2742 21.5488Z" fill="#FFC373"/>
<path opacity="0.1" d="M77.2742 21.5488V23.7449H77.7439V22.3331C77.7439 21.9018 77.2742 21.588 77.2742 21.5488Z" fill="black"/>
<path d="M84.9858 24.4902H69.5232L69.9538 25.2745H70.0321V27.1177H84.4769V25.2745H84.5944L84.9858 24.4902Z" fill="#E59D48"/>
<path d="M77.274 24.8037C76.8826 24.8037 76.5303 25.1174 76.5303 25.5488V26.9214H77.9787V25.5488C78.0178 25.1567 77.6655 24.8037 77.274 24.8037Z" fill="#B56F24"/>
<path d="M69.21 24.7646C69.21 24.7646 68.7402 25.1176 68.7402 25.549V26.9607H69.6406V25.549C69.6797 25.1176 69.21 24.7646 69.21 24.7646Z" fill="#FFBC5A"/>
<path opacity="0.1" d="M69.21 24.7646V26.9215H69.6797V25.5097C69.6797 25.1176 69.2491 24.7646 69.21 24.7646Z" fill="black"/>
<path opacity="0.1" d="M84.9075 24.6863H69.6406L69.5232 24.4902H84.9858L84.9075 24.6863Z" fill="black"/>
<path d="M71.0891 24.7646C71.0891 24.7646 70.6194 25.1176 70.6194 25.549V26.9607H71.5197V25.549C71.5589 25.1176 71.0891 24.7646 71.0891 24.7646Z" fill="#FFBC5A"/>
<path opacity="0.1" d="M71.0891 24.7646V26.9215H71.5589V25.5097C71.5589 25.1176 71.0891 24.7646 71.0891 24.7646Z" fill="black"/>
<path d="M73.242 24.7646C73.242 24.7646 72.7722 25.1176 72.7722 25.549V26.9607H73.6726V25.549C73.7117 25.1176 73.242 24.7646 73.242 24.7646Z" fill="#FFBC5A"/>
<path opacity="0.1" d="M73.2419 24.7646V26.9215H73.7117V25.5097C73.7117 25.1176 73.2419 24.7646 73.2419 24.7646Z" fill="black"/>
<path d="M75.4341 24.7646C75.4341 24.7646 74.9644 25.1176 74.9644 25.549V26.9607H75.8647V25.549C75.8647 25.1176 75.4341 24.7646 75.4341 24.7646Z" fill="#FFBC5A"/>
<path opacity="0.1" d="M75.4343 24.7646V26.9215H75.9041V25.5097C75.8649 25.1176 75.4343 24.7646 75.4343 24.7646Z" fill="black"/>
<path d="M79.1531 24.7646C79.1531 24.7646 78.6833 25.1176 78.6833 25.549V26.9607H79.5837V25.549C79.5837 25.1176 79.1531 24.7646 79.1531 24.7646Z" fill="#FFBC5A"/>
<path opacity="0.1" d="M79.1531 24.7646V26.9215H79.6228V25.5097C79.5837 25.1176 79.1531 24.7646 79.1531 24.7646Z" fill="black"/>
<path d="M81.3062 24.7646C81.3062 24.7646 80.8364 25.1176 80.8364 25.549V26.9607H81.7368V25.549C81.7759 25.1176 81.3062 24.7646 81.3062 24.7646Z" fill="#FFBC5A"/>
<path opacity="0.1" d="M81.3062 24.7646V26.9215H81.7759V25.5097C81.7759 25.1176 81.3062 24.7646 81.3062 24.7646Z" fill="black"/>
<path d="M83.459 24.7646C83.459 24.7646 82.9893 25.1176 82.9893 25.549V26.9607H83.8896V25.549C83.9288 25.1176 83.459 24.7646 83.459 24.7646Z" fill="#FFBC5A"/>
<path opacity="0.1" d="M83.4592 24.7646V26.9215H83.929V25.5097C83.929 25.1176 83.4984 24.7646 83.4592 24.7646Z" fill="black"/>
<path d="M85.3382 24.7646C85.3382 24.7646 84.8684 25.1176 84.8684 25.549V26.9607H85.7688V25.549C85.8079 25.1176 85.3382 24.7646 85.3382 24.7646Z" fill="#FFBC5A"/>
<path opacity="0.1" d="M85.3381 24.7646V26.9215H85.8079V25.5097C85.8079 25.1176 85.3381 24.7646 85.3381 24.7646Z" fill="black"/>
<path d="M88.6265 26.9214H65.9219V27.7057H88.6265V26.9214Z" fill="#FFC373"/>
<path d="M86.9432 28.8823H67.6443V46.2941H86.9432V28.8823Z" fill="#E59D48"/>
<path d="M87.2955 29.5881H67.2528L65.9219 27.6665H88.6265L87.2955 29.5881Z" fill="#FFBC5A"/>
<path d="M75.4343 32.0981H71.0891V45.3923H75.4343V32.0981Z" fill="#D68A36"/>
<path d="M83.4983 32.0981H79.1531V45.3923H83.4983V32.0981Z" fill="#D68A36"/>
<path d="M72.5375 34.7646C72.2634 34.7646 72.0286 35.1176 72.0286 35.5882V37.8627H73.0464V35.5882C73.0464 35.1176 72.8506 34.7646 72.5375 34.7646Z" fill="#B56F24"/>
<path d="M74.025 34.7646C73.751 34.7646 73.5161 35.1176 73.5161 35.5882V37.8627H74.5339V35.5882C74.5339 35.1176 74.299 34.7646 74.025 34.7646Z" fill="#B56F24"/>
<path d="M73.2421 34.608C73.5231 34.608 73.7509 34.3797 73.7509 34.0982C73.7509 33.8166 73.5231 33.5884 73.2421 33.5884C72.961 33.5884 72.7332 33.8166 72.7332 34.0982C72.7332 34.3797 72.961 34.608 73.2421 34.608Z" fill="#B56F24"/>
<path d="M80.484 34.7646C80.21 34.7646 79.9751 35.1176 79.9751 35.5882V37.8627H80.9929V35.5882C81.032 35.1176 80.7972 34.7646 80.484 34.7646Z" fill="#B56F24"/>
<path d="M81.9715 34.7646C81.6975 34.7646 81.4626 35.1176 81.4626 35.5882V37.8627H82.4804V35.5882C82.4804 35.1176 82.2456 34.7646 81.9715 34.7646Z" fill="#B56F24"/>
<path d="M81.1886 34.608C81.4696 34.608 81.6975 34.3797 81.6975 34.0982C81.6975 33.8166 81.4696 33.5884 81.1886 33.5884C80.9075 33.5884 80.6797 33.8166 80.6797 34.0982C80.6797 34.3797 80.9075 34.608 81.1886 34.608Z" fill="#B56F24"/>
<path opacity="0.2" d="M72.2243 35.7843C72.2243 35.3137 72.4592 34.9607 72.7332 34.9607C72.7723 34.9607 72.8506 34.9607 72.8898 34.9999C72.8115 34.8431 72.6549 34.7646 72.5375 34.7646C72.2634 34.7646 72.0286 35.1176 72.0286 35.5882V37.8627H72.2243V35.7843Z" fill="black"/>
<path opacity="0.2" d="M73.7117 35.7843C73.7117 35.3137 73.9466 34.9607 74.2206 34.9607C74.2597 34.9607 74.338 34.9607 74.3772 34.9999C74.2989 34.8431 74.1423 34.7646 73.9857 34.7646C73.7117 34.7646 73.4768 35.1176 73.4768 35.5882V37.8627H73.6725V35.7843H73.7117Z" fill="black"/>
<path opacity="0.2" d="M72.929 34.3333C72.929 34.0588 73.1638 33.8235 73.4379 33.8235C73.5162 33.8235 73.6336 33.8627 73.6727 33.902C73.5944 33.7451 73.3987 33.6274 73.203 33.6274C72.929 33.6274 72.6941 33.8627 72.6941 34.1372C72.6941 34.3333 72.8115 34.4902 72.9681 34.6078C72.9681 34.4902 72.929 34.4118 72.929 34.3333Z" fill="black"/>
<path opacity="0.2" d="M80.1709 35.7843C80.1709 35.3137 80.4058 34.9607 80.6798 34.9607C80.719 34.9607 80.7972 34.9607 80.8364 34.9999C80.7581 34.8431 80.6015 34.7646 80.4449 34.7646C80.1709 34.7646 79.936 35.1176 79.936 35.5882V37.8627H80.1318V35.7843H80.1709Z" fill="black"/>
<path opacity="0.2" d="M81.6584 35.7843C81.6584 35.3137 81.8932 34.9607 82.1673 34.9607C82.2064 34.9607 82.2847 34.9607 82.3239 34.9999C82.2456 34.8431 82.089 34.7646 81.9715 34.7646C81.6975 34.7646 81.4626 35.1176 81.4626 35.5882V37.8627H81.6584V35.7843Z" fill="black"/>
<path opacity="0.2" d="M80.8755 34.3333C80.8755 34.0588 81.1104 33.8235 81.3844 33.8235C81.4627 33.8235 81.5801 33.8627 81.6193 33.902C81.541 33.7451 81.3453 33.6274 81.1495 33.6274C80.8755 33.6274 80.6406 33.8627 80.6406 34.1372C80.6406 34.3333 80.7581 34.4902 80.9146 34.6078C80.9146 34.4902 80.8755 34.4118 80.8755 34.3333Z" fill="black"/>
<path d="M74.5339 39.2354H72.0286V45.3922H74.5339V39.2354Z" fill="#B56F24"/>
<path opacity="0.2" d="M74.5339 39.2354H72.3026H72.0286V39.5099V45.3922H72.3026V39.5099H74.5339V39.2354Z" fill="black"/>
<path d="M82.4804 39.2354H79.9751V45.3922H82.4804V39.2354Z" fill="#B56F24"/>
<path opacity="0.2" d="M82.4804 39.2354H80.2491H79.9751V39.5099V45.3922H80.2491V39.5099H82.4804V39.2354Z" fill="black"/>
<path d="M78.8398 32.0981H75.7473V34.9217H78.8398V32.0981Z" fill="#FFBC5A"/>
<path d="M77.274 34.1373C77.6631 34.1373 77.9786 33.8213 77.9786 33.4315C77.9786 33.0416 77.6631 32.7256 77.274 32.7256C76.8848 32.7256 76.5693 33.0416 76.5693 33.4315C76.5693 33.8213 76.8848 34.1373 77.274 34.1373Z" fill="#B56F24"/>
<path opacity="0.2" d="M76.8434 33.706C76.8434 33.3138 77.1565 33.0001 77.548 33.0001C77.6654 33.0001 77.7829 33.0393 77.9003 33.0785C77.7829 32.8432 77.548 32.7256 77.274 32.7256C76.8825 32.7256 76.5693 33.0393 76.5693 33.4315C76.5693 33.706 76.7259 33.9413 76.9608 34.0589C76.8825 33.9413 76.8434 33.8628 76.8434 33.706Z" fill="black"/>
<path d="M75.4343 38.5688H71.0891V38.961H75.4343V38.5688Z" fill="#B56F24"/>
<path d="M75.4343 38.1763H71.0891V38.5684H75.4343V38.1763Z" fill="#E59D48"/>
<path d="M83.4983 38.5688H79.1531V38.961H83.4983V38.5688Z" fill="#B56F24"/>
<path d="M83.4983 38.1763H79.1531V38.5684H83.4983V38.1763Z" fill="#E59D48"/>
<path d="M67.8008 29.5884H67.4485V37.0786H67.8008V29.5884Z" fill="#E59D48"/>
<path d="M87.0996 29.5884H86.7473V37.0786H87.0996V29.5884Z" fill="#E59D48"/>
<path d="M67.5266 37.0786H67.2917V46.2943H67.5266V37.0786Z" fill="#E59D48"/>
<path d="M67.6832 36.9609H67.1743V37.3139H67.6832V36.9609Z" fill="#E59D48"/>
<path d="M67.6832 45.9805H67.1743V46.3334H67.6832V45.9805Z" fill="#E59D48"/>
<path d="M87.2954 37.0786H87.0605V46.2943H87.2954V37.0786Z" fill="#E59D48"/>
<path d="M87.452 36.9609H86.9431V37.3139H87.452V36.9609Z" fill="#E59D48"/>
<path d="M87.452 45.9805H86.9431V46.3334H87.452V45.9805Z" fill="#E59D48"/>
<path opacity="0.1" d="M88.0391 28.4903H66.5089L66.2349 28.0981H88.3523L88.0391 28.4903Z" fill="black"/>
<path opacity="0.1" d="M87.5694 29.1959H67.0178L66.7046 28.8037H87.8434L87.5694 29.1959Z" fill="black"/>
<path d="M66.7831 26.1762C66.7831 26.1762 66.6265 26.137 66.5091 26.2155C66.4699 26.137 66.3525 26.0586 66.3525 26.0586C66.3525 26.0586 66.2742 26.137 66.1959 26.2155C66.0785 26.137 65.9219 26.1762 65.9219 26.1762C65.9219 26.1762 65.9219 26.2547 65.9219 26.3331C65.961 26.3331 65.961 26.3331 66.0002 26.3331C66.1176 26.3331 66.1959 26.4115 66.1959 26.5292C66.1959 26.5684 66.1959 26.6076 66.1568 26.6076V26.686H66.0393V26.9213H66.6657V26.686H66.5482V26.6076C66.5482 26.5684 66.5482 26.5684 66.5482 26.5292C66.5482 26.4115 66.6265 26.3331 66.7439 26.3331C66.7831 26.3331 66.7831 26.3331 66.8222 26.3331C66.7831 26.2547 66.7831 26.1762 66.7831 26.1762Z" fill="#FFD097"/>
<path d="M68.153 26.1762C68.153 26.1762 67.9964 26.137 67.8789 26.2155C67.8398 26.137 67.7224 26.0586 67.7224 26.0586C67.7224 26.0586 67.6441 26.137 67.5658 26.2155C67.4483 26.137 67.2917 26.1762 67.2917 26.1762C67.2917 26.1762 67.2917 26.2547 67.2917 26.3331C67.3309 26.3331 67.3309 26.3331 67.37 26.3331C67.4875 26.3331 67.5658 26.4115 67.5658 26.5292C67.5658 26.5684 67.5658 26.6076 67.5266 26.6076H67.4875V26.686H67.37V26.9213H67.9964V26.686H67.8789V26.6076H67.8398C67.8398 26.5684 67.8398 26.5684 67.8398 26.5292C67.8398 26.4115 67.9181 26.3331 68.0355 26.3331C68.0747 26.3331 68.0747 26.3331 68.1138 26.3331C68.153 26.2547 68.153 26.1762 68.153 26.1762Z" fill="#FFD097"/>
<path d="M69.5231 26.1762C69.5231 26.1762 69.3665 26.137 69.2491 26.2155C69.2099 26.137 69.0925 26.0586 69.0925 26.0586C69.0925 26.0586 69.0142 26.137 68.9359 26.2155C68.8185 26.137 68.6619 26.1762 68.6619 26.1762C68.6619 26.1762 68.6619 26.2547 68.6619 26.3331C68.701 26.3331 68.701 26.3331 68.7402 26.3331C68.8576 26.3331 68.9359 26.4115 68.9359 26.5292C68.9359 26.5684 68.9359 26.6076 68.8967 26.6076V26.686H68.7793V26.9213H69.4056V26.686H69.2882V26.6076C69.2882 26.5684 69.2882 26.5684 69.2882 26.5292C69.2882 26.4115 69.3665 26.3331 69.4839 26.3331C69.5231 26.3331 69.5231 26.3331 69.5622 26.3331C69.5231 26.2547 69.5231 26.1762 69.5231 26.1762Z" fill="#FFD097"/>
<path d="M70.8932 26.1762C70.8932 26.1762 70.7366 26.137 70.6192 26.2155C70.58 26.137 70.4626 26.0586 70.4626 26.0586C70.4626 26.0586 70.3843 26.137 70.306 26.2155C70.1886 26.137 70.032 26.1762 70.032 26.1762C70.032 26.1762 70.032 26.2547 70.032 26.3331C70.0711 26.3331 70.0711 26.3331 70.1103 26.3331C70.2277 26.3331 70.306 26.4115 70.306 26.5292C70.306 26.5684 70.306 26.6076 70.306 26.6076H70.2669V26.686H70.1494V26.9213H70.7758V26.686H70.6583V26.6076H70.6192C70.6192 26.5684 70.6192 26.5684 70.6192 26.5292C70.6192 26.4115 70.6975 26.3331 70.8149 26.3331C70.854 26.3331 70.8541 26.3331 70.8932 26.3331C70.8932 26.2547 70.8932 26.1762 70.8932 26.1762Z" fill="#FFD097"/>
<path d="M72.2633 26.1762C72.2633 26.1762 72.1067 26.137 71.9893 26.2155C71.9501 26.137 71.8327 26.0586 71.8327 26.0586C71.8327 26.0586 71.7544 26.137 71.6761 26.2155C71.5587 26.137 71.4021 26.1762 71.4021 26.1762C71.4021 26.1762 71.4021 26.2547 71.4021 26.3331C71.4412 26.3331 71.4413 26.3331 71.4804 26.3331C71.5978 26.3331 71.6761 26.4115 71.6761 26.5292C71.6761 26.5684 71.6761 26.6076 71.637 26.6076V26.686H71.5195V26.9213H72.1459V26.686H72.0284V26.6076C72.0284 26.5684 72.0284 26.5684 72.0284 26.5292C72.0284 26.4115 72.1067 26.3331 72.2242 26.3331C72.2633 26.3331 72.2633 26.3331 72.3025 26.3331C72.2633 26.2547 72.2633 26.1762 72.2633 26.1762Z" fill="#FFD097"/>
<path d="M73.6334 26.1762C73.6334 26.1762 73.4768 26.137 73.3594 26.2155C73.3203 26.137 73.2028 26.0586 73.2028 26.0586C73.2028 26.0586 73.1245 26.137 73.0462 26.2155C72.9288 26.137 72.7722 26.1762 72.7722 26.1762C72.7722 26.1762 72.7722 26.2547 72.7722 26.3331C72.8114 26.3331 72.8114 26.3331 72.8505 26.3331C72.968 26.3331 73.0462 26.4115 73.0462 26.5292C73.0462 26.5684 73.0462 26.6076 73.0462 26.6076H73.0071V26.686H72.8897V26.9213H73.516V26.686H73.3986V26.6076H73.3594C73.3594 26.5684 73.3594 26.5684 73.3594 26.5292C73.3594 26.4115 73.4377 26.3331 73.5551 26.3331C73.5943 26.3331 73.5943 26.3331 73.6334 26.3331C73.6334 26.2547 73.6334 26.1762 73.6334 26.1762Z" fill="#FFD097"/>
<path d="M75.0035 26.1762C75.0035 26.1762 74.847 26.137 74.7295 26.2155C74.6904 26.137 74.5729 26.0586 74.5729 26.0586C74.5729 26.0586 74.4947 26.137 74.4164 26.2155C74.2989 26.137 74.1423 26.1762 74.1423 26.1762C74.1423 26.1762 74.1423 26.2547 74.1423 26.3331C74.1815 26.3331 74.1815 26.3331 74.2206 26.3331C74.3381 26.3331 74.4164 26.4115 74.4164 26.5292C74.4164 26.5684 74.4164 26.6076 74.4164 26.6076H74.3772V26.686H74.2598V26.9213H74.8861V26.686H74.7687V26.6076C74.7687 26.5684 74.7687 26.5684 74.7687 26.5292C74.7687 26.4115 74.847 26.3331 74.9644 26.3331C75.0035 26.3331 75.0035 26.3331 75.0427 26.3331C75.0035 26.2547 75.0035 26.1762 75.0035 26.1762Z" fill="#FFD097"/>
<path d="M76.3737 26.1762C76.3737 26.1762 76.2171 26.137 76.0996 26.2155C76.0605 26.137 75.9431 26.0586 75.9431 26.0586C75.9431 26.0586 75.8648 26.137 75.7865 26.2155C75.669 26.137 75.5125 26.1762 75.5125 26.1762C75.5125 26.1762 75.5125 26.2547 75.5125 26.3331C75.5516 26.3331 75.5516 26.3331 75.5907 26.3331C75.7082 26.3331 75.7865 26.4115 75.7865 26.5292C75.7865 26.5684 75.7865 26.6076 75.7865 26.6076H75.7473V26.686H75.6299V26.9213H76.2562V26.686H76.1388V26.6076H76.0996C76.0996 26.5684 76.0996 26.5684 76.0996 26.5292C76.0996 26.4115 76.1779 26.3331 76.2954 26.3331C76.3345 26.3331 76.3345 26.3331 76.3737 26.3331C76.3737 26.2547 76.3737 26.1762 76.3737 26.1762Z" fill="#FFD097"/>
<path d="M77.7438 26.1762C77.7438 26.1762 77.5872 26.137 77.4698 26.2155C77.4306 26.137 77.3132 26.0586 77.3132 26.0586C77.3132 26.0586 77.2349 26.137 77.1566 26.2155C77.0392 26.137 76.8826 26.1762 76.8826 26.1762C76.8826 26.1762 76.8826 26.2547 76.8826 26.3331C76.9217 26.3331 76.9217 26.3331 76.9609 26.3331C77.0783 26.3331 77.1566 26.4115 77.1566 26.5292C77.1566 26.5684 77.1566 26.6076 77.1566 26.6076H77.1174V26.686H77V26.9213H77.6263V26.686H77.5089V26.6076C77.5089 26.5684 77.5089 26.5684 77.5089 26.5292C77.5089 26.4115 77.5872 26.3331 77.7046 26.3331C77.7438 26.3331 77.7438 26.3331 77.7829 26.3331C77.7438 26.2547 77.7438 26.1762 77.7438 26.1762Z" fill="#FFD097"/>
<path d="M79.1139 26.1762C79.1139 26.1762 78.9573 26.137 78.8399 26.2155C78.8007 26.137 78.6833 26.0586 78.6833 26.0586C78.6833 26.0586 78.605 26.137 78.5267 26.2155C78.4093 26.137 78.2527 26.1762 78.2527 26.1762C78.2527 26.1762 78.2527 26.2547 78.2527 26.3331C78.2918 26.3331 78.2918 26.3331 78.331 26.3331C78.4484 26.3331 78.5267 26.4115 78.5267 26.5292C78.5267 26.5684 78.5267 26.6076 78.4876 26.6076H78.4484V26.686H78.331V26.9213H78.9573V26.686H78.8399V26.6076H78.8007C78.8007 26.5684 78.8007 26.5684 78.8007 26.5292C78.8007 26.4115 78.879 26.3331 78.9965 26.3331C79.0356 26.3331 79.0356 26.3331 79.0748 26.3331C79.1139 26.2547 79.1139 26.1762 79.1139 26.1762Z" fill="#FFD097"/>
<path d="M80.484 26.1762C80.484 26.1762 80.3274 26.137 80.21 26.2155C80.1708 26.137 80.0534 26.0586 80.0534 26.0586C80.0534 26.0586 79.9751 26.137 79.8968 26.2155C79.7794 26.137 79.6228 26.1762 79.6228 26.1762C79.6228 26.1762 79.6228 26.2547 79.6228 26.3331C79.6619 26.3331 79.662 26.3331 79.7011 26.3331C79.8185 26.3331 79.8968 26.4115 79.8968 26.5292C79.8968 26.5684 79.8968 26.6076 79.8968 26.6076H79.8577V26.686H79.7402V26.9213H80.3666V26.686H80.2491V26.6076C80.2491 26.5684 80.21 26.5684 80.21 26.5292C80.21 26.4115 80.2883 26.3331 80.4057 26.3331C80.4449 26.3331 80.4449 26.3331 80.484 26.3331C80.484 26.2547 80.484 26.1762 80.484 26.1762Z" fill="#FFD097"/>
<path d="M81.8541 26.1762C81.8541 26.1762 81.6975 26.137 81.5801 26.2155C81.541 26.137 81.4235 26.0586 81.4235 26.0586C81.4235 26.0586 81.3452 26.137 81.2669 26.2155C81.1495 26.137 80.9929 26.1762 80.9929 26.1762C80.9929 26.1762 80.9929 26.2547 80.9929 26.3331C81.0321 26.3331 81.0321 26.3331 81.0712 26.3331C81.1887 26.3331 81.2669 26.4115 81.2669 26.5292C81.2669 26.5684 81.2669 26.6076 81.2278 26.6076H81.1886V26.686H81.0712V26.9213H81.6975V26.686H81.5801V26.6076H81.541C81.541 26.5684 81.541 26.5684 81.541 26.5292C81.541 26.4115 81.6193 26.3331 81.7367 26.3331C81.7758 26.3331 81.7758 26.3331 81.815 26.3331C81.8541 26.2547 81.8541 26.1762 81.8541 26.1762Z" fill="#FFD097"/>
<path d="M83.3026 26.1762C83.3026 26.1762 83.146 26.137 83.0286 26.2155C82.9894 26.137 82.872 26.0586 82.872 26.0586C82.872 26.0586 82.7937 26.137 82.7154 26.2155C82.598 26.137 82.4414 26.1762 82.4414 26.1762C82.4414 26.1762 82.4414 26.2547 82.4414 26.3331C82.4806 26.3331 82.4806 26.3331 82.5197 26.3331C82.6371 26.3331 82.7154 26.4115 82.7154 26.5292C82.7154 26.5684 82.7154 26.6076 82.7154 26.6076H82.6763V26.686H82.5588V26.9213H83.1852V26.686H83.0677V26.6076H83.0286C83.0286 26.5684 82.9894 26.5684 82.9894 26.5292C82.9894 26.4115 83.0677 26.3331 83.1852 26.3331C83.2243 26.3331 83.2243 26.3331 83.2635 26.3331C83.3418 26.2547 83.3026 26.1762 83.3026 26.1762Z" fill="#FFD097"/>
<path d="M84.7118 26.1762C84.7118 26.1762 84.5552 26.137 84.4378 26.2155C84.3986 26.137 84.2812 26.0586 84.2812 26.0586C84.2812 26.0586 84.2029 26.137 84.1246 26.2155C84.0072 26.137 83.8506 26.1762 83.8506 26.1762C83.8506 26.1762 83.8506 26.2547 83.8506 26.3331C83.8897 26.3331 83.8897 26.3331 83.9289 26.3331C84.0463 26.3331 84.1246 26.4115 84.1246 26.5292C84.1246 26.5684 84.1246 26.6076 84.1246 26.6076H84.0855V26.686H83.968V26.9213H84.5944V26.686H84.4769V26.6076H84.4378C84.4378 26.5684 84.4378 26.5684 84.4378 26.5292C84.4378 26.4115 84.5161 26.3331 84.6335 26.3331C84.6727 26.3331 84.6726 26.3331 84.7118 26.3331C84.7118 26.2547 84.7118 26.1762 84.7118 26.1762Z" fill="#FFD097"/>
<path d="M86.0819 26.1762C86.0819 26.1762 85.9253 26.137 85.8079 26.2155C85.7687 26.137 85.6513 26.0586 85.6513 26.0586C85.6513 26.0586 85.573 26.137 85.4947 26.2155C85.3773 26.137 85.2207 26.1762 85.2207 26.1762C85.2207 26.1762 85.2207 26.2547 85.2207 26.3331C85.2598 26.3331 85.2598 26.3331 85.299 26.3331C85.4164 26.3331 85.4947 26.4115 85.4947 26.5292C85.4947 26.5684 85.4947 26.6076 85.4556 26.6076H85.4164V26.686H85.3381V26.9213H85.9645V26.686H85.847V26.6076H85.8079C85.8079 26.5684 85.8079 26.5684 85.8079 26.5292C85.8079 26.4115 85.8862 26.3331 86.0036 26.3331C86.0428 26.3331 86.0428 26.3331 86.0819 26.3331C86.0819 26.2547 86.0819 26.1762 86.0819 26.1762Z" fill="#FFD097"/>
<path d="M87.2172 26.1762C87.2172 26.1762 87.0606 26.137 86.9431 26.2155C86.904 26.137 86.7866 26.0586 86.7866 26.0586C86.7866 26.0586 86.7083 26.137 86.63 26.2155C86.5125 26.137 86.356 26.1762 86.356 26.1762C86.356 26.1762 86.356 26.2547 86.356 26.3331C86.3951 26.3331 86.3951 26.3331 86.4342 26.3331C86.5517 26.3331 86.63 26.4115 86.63 26.5292C86.63 26.5684 86.63 26.6076 86.5908 26.6076H86.5517V26.686H86.4342V26.9213H87.0606V26.686H86.9431V26.6076H86.904C86.904 26.5684 86.8648 26.5684 86.8648 26.5292C86.8648 26.4115 86.9431 26.3331 87.0606 26.3331C87.0997 26.3331 87.0997 26.3331 87.1389 26.3331C87.2563 26.2547 87.2172 26.1762 87.2172 26.1762Z" fill="#FFD097"/>
<path d="M88.5873 26.1762C88.5873 26.1762 88.4307 26.137 88.3133 26.2155C88.2741 26.137 88.1567 26.0586 88.1567 26.0586C88.1567 26.0586 88.0784 26.137 88.0001 26.2155C87.8827 26.137 87.7261 26.1762 87.7261 26.1762C87.7261 26.1762 87.7261 26.2547 87.7261 26.3331C87.7652 26.3331 87.7652 26.3331 87.8044 26.3331C87.9218 26.3331 88.0001 26.4115 88.0001 26.5292C88.0001 26.5684 88.0001 26.6076 88.0001 26.6076H87.9609V26.686H87.8435V26.9213H88.4698V26.686H88.3524V26.6076H88.3133C88.3133 26.5684 88.3133 26.5684 88.3133 26.5292C88.3133 26.4115 88.3916 26.3331 88.509 26.3331C88.5481 26.3331 88.5481 26.3331 88.5873 26.3331C88.6264 26.2547 88.5873 26.1762 88.5873 26.1762Z" fill="#FFD097"/>
<path d="M89.9574 34.0981H88.0784V46.3334H89.9574V34.0981Z" fill="#B56F24"/>
<path opacity="0.2" d="M89.6051 35.9019H88.3916V38.3332H89.6051V35.9019Z" fill="black"/>
<path opacity="0.2" d="M89.6443 35.9019H88.6265H88.3916V38.3724H88.6265V36.1764H89.6443V35.9019Z" fill="black"/>
<path opacity="0.2" d="M89.6051 42.2158H88.3916V44.6472H89.6051V42.2158Z" fill="black"/>
<path opacity="0.2" d="M89.6443 42.2158H88.6265H88.3916V44.6864H88.6265V42.4511H89.6443V42.2158Z" fill="black"/>
<path opacity="0.2" d="M89.6443 39.6275C89.6443 39.2745 89.3702 39 89.0179 39C88.6656 39 88.3916 39.2745 88.3916 39.6275C88.3916 39.6667 88.3916 39.7059 88.3916 39.7059V41.4314H89.6051V39.7059C89.6443 39.7059 89.6443 39.6667 89.6443 39.6275Z" fill="black"/>
<path opacity="0.2" d="M88.5872 41.4706V39.9412C88.5872 39.902 88.5872 39.902 88.5872 39.8627C88.5872 39.5098 88.8612 39.2353 89.2135 39.2353C89.3309 39.2353 89.4484 39.2745 89.5267 39.3137C89.4092 39.1176 89.2135 39 88.9786 39C88.6263 39 88.3523 39.2745 88.3523 39.6275C88.3523 39.6667 88.3523 39.7059 88.3523 39.7059V41.4314H88.5872V41.4706Z" fill="black"/>
<path d="M97.0818 24.686H94.7722V27.3919H97.0818V24.686Z" fill="#C17325"/>
<path d="M61.5374 20.6472H56.1744L55.5481 19.0786H62.1638L61.5374 20.6472Z" fill="#E2984D"/>
<path opacity="0.1" d="M61.5374 20.6472H56.1744L55.5481 19.0786H62.1638L61.5374 20.6472Z" fill="black"/>
<path d="M60.8328 15H56.9182V18.3333H60.8328V15Z" fill="#D68A36"/>
<path d="M59.854 15H57.8967V18.3333H59.854V15Z" fill="#C17325"/>
<path d="M60.7936 15H59.8149V18.3333H60.7936V15Z" fill="#B2641D"/>
<path d="M61.3808 20.647H56.3701V29.3529H61.3808V20.647Z" fill="#D68A36"/>
<path d="M60.089 20.647H57.6228V27.7058H60.089V20.647Z" fill="#C17325"/>
<path opacity="0.1" d="M60.8328 15H56.9182V15.5098H60.8328V15Z" fill="black"/>
<path d="M60.2456 6.84326H57.5054V10.1374H60.2456V6.84326Z" fill="#D68A36"/>
<path d="M59.541 6.84326H58.1709V10.1374H59.541V6.84326Z" fill="#C17325"/>
<path d="M60.2456 6.84326H59.541V10.1374H60.2456V6.84326Z" fill="#B2641D"/>
<path opacity="0.1" d="M60.2456 6.84326H57.5054V7.1962H60.2456V6.84326Z" fill="black"/>
<path d="M61.694 31.4707H56.0178V46.2942H61.694V31.4707Z" fill="#E59D48"/>
<path d="M58.8363 18.9606C59.2471 18.9606 59.5801 18.6446 59.5801 18.2547C59.5801 17.8649 59.2471 17.5488 58.8363 17.5488C58.4255 17.5488 58.0925 17.8649 58.0925 18.2547C58.0925 18.6446 58.4255 18.9606 58.8363 18.9606Z" fill="#A35413"/>
<path d="M61.8115 31.4707H55.8613V31.8236H61.8115V31.4707Z" fill="#EFAC6A"/>
<path d="M62.1638 18.2549H55.5481V19.0784H62.1638V18.2549Z" fill="#E2984D"/>
<path opacity="0.05" d="M61.6941 31.8237H58.8364V46.2943H61.6941V31.8237Z" fill="black"/>
<path d="M57.5444 6.45083H60.1281C60.1281 5.82338 59.7758 5.27436 59.306 5.03906C59.1103 4.96063 59.032 4.80377 58.9928 4.60769C59.4234 4.52926 59.7757 4.1371 59.7757 3.66651C59.7757 3.31357 59.58 3.03906 59.306 2.84298C59.306 2.60769 59.1103 2.41161 58.8754 2.3724V2.25475C58.9537 2.21553 58.9928 2.17632 58.9928 2.09789C58.9928 2.01945 58.9537 1.94102 58.8754 1.94102V1.90181C58.9537 1.86259 58.9928 1.82338 58.9928 1.74494C58.9928 1.66651 58.9145 1.58808 58.8362 1.58808V1.54887C58.9145 1.54887 58.9928 1.47044 58.9928 1.392C58.9928 1.31357 58.9145 1.23514 58.8362 1.19593V1.03906H58.7971V1.19593C58.7188 1.19593 58.6405 1.27436 58.6405 1.392C58.6405 1.47044 58.7188 1.54887 58.7971 1.54887V1.58808C58.7188 1.6273 58.6405 1.66651 58.6405 1.74494C58.6405 1.82338 58.6797 1.90181 58.758 1.90181V1.98024C58.6797 2.01945 58.6405 2.05867 58.6405 2.1371C58.6405 2.21553 58.6797 2.29396 58.758 2.29396V2.41161C58.5231 2.45083 58.3665 2.64691 58.3274 2.8822C58.0533 3.03906 57.8576 3.35279 57.8576 3.70573C57.8576 4.1371 58.1708 4.52926 58.6014 4.60769C58.6014 4.80377 58.4839 4.96063 58.3274 5.03906C57.8967 5.27436 57.5444 5.82338 57.5444 6.45083Z" fill="#D68A36"/>
<path opacity="0.1" d="M59.0322 1.35294C59.0322 1.27451 58.9539 1.19608 58.8756 1.15686V1H58.8364V6.45098H60.1282C60.1282 5.82353 59.7759 5.27451 59.3062 5.03922C59.1104 4.96078 59.0322 4.80392 58.993 4.60784C59.4236 4.52941 59.7759 4.13726 59.7759 3.66667C59.7759 3.31373 59.5802 3.03922 59.3062 2.84314C59.3062 2.60784 59.1104 2.41176 58.8756 2.37255V2.2549C58.9539 2.21569 58.993 2.17647 58.993 2.09804C58.993 2.01961 58.9539 1.94118 58.8756 1.94118V1.90196C58.9539 1.86275 58.993 1.82353 58.993 1.7451C58.993 1.66667 58.9147 1.58824 58.8364 1.58824V1.54902C58.993 1.5098 59.0322 1.43137 59.0322 1.35294Z" fill="black"/>
<path d="M60.4021 6.25488H57.3096V6.8039H60.4021V6.25488Z" fill="#E2984D"/>
<path d="M60.5587 10.647H57.1921V14.1764H60.5587V10.647Z" fill="#D68A36"/>
<path d="M59.6977 10.647H58.0144V14.1764H59.6977V10.647Z" fill="#C17325"/>
<path d="M60.5587 10.647H59.6975V14.1764H60.5587V10.647Z" fill="#B2641D"/>
<path opacity="0.1" d="M60.5587 10.647H57.1921V11.0391H60.5587V10.647Z" fill="black"/>
<path d="M60.7544 10.0195H56.9573V10.6078H60.7544V10.0195Z" fill="#E2984D"/>
<path d="M58.8364 7.94141C58.8364 7.94141 58.4058 8.25513 58.4058 8.6865V10.0198H59.267V8.64729C59.3061 8.25513 58.8364 7.94141 58.8364 7.94141Z" fill="#A35413"/>
<path d="M57.8185 7.94141C57.8185 7.94141 57.6228 8.25513 57.6228 8.6865V10.0198H58.0143V8.64729C58.0143 8.25513 57.8185 7.94141 57.8185 7.94141Z" fill="#A35413"/>
<path d="M59.8932 7.94141C59.8932 7.94141 59.6975 8.25513 59.6975 8.6865V10.0198H60.089V8.64729C60.089 8.25513 59.8932 7.94141 59.8932 7.94141Z" fill="#A35413"/>
<path opacity="0.1" d="M58.5232 8.76494C58.5232 8.37278 58.9538 8.05905 58.9538 8.05905C58.9538 8.05905 58.993 8.09827 59.0321 8.09827C58.9538 7.98062 58.8364 7.94141 58.8364 7.94141C58.8364 7.94141 58.4058 8.25513 58.4058 8.6865V10.0198H58.5232V8.76494Z" fill="black"/>
<path opacity="0.1" d="M57.7012 8.76494C57.7012 8.45121 57.8186 8.21592 57.8578 8.09827C57.8186 7.98062 57.7795 7.94141 57.7795 7.94141C57.7795 7.94141 57.5837 8.25513 57.5837 8.6865V10.0198H57.7012V8.76494Z" fill="black"/>
<path opacity="0.1" d="M59.7759 8.76494C59.7759 8.45121 59.8933 8.21592 59.9325 8.09827C59.8933 7.98062 59.8542 7.94141 59.8542 7.94141C59.8542 7.94141 59.6584 8.25513 59.6584 8.6865V10.0198H59.7759V8.76494Z" fill="black"/>
<path d="M58.8363 14.8825C59.2471 14.8825 59.5801 14.5664 59.5801 14.1766C59.5801 13.7867 59.2471 13.4707 58.8363 13.4707C58.4255 13.4707 58.0925 13.7867 58.0925 14.1766C58.0925 14.5664 58.4255 14.8825 58.8363 14.8825Z" fill="#A35413"/>
<path d="M61.0678 14.1763H56.6443V14.9998H61.0678V14.1763Z" fill="#E2984D"/>
<path d="M61.3416 31.4708H56.3701V29.2747L58.8755 27.1963L61.3416 29.2747V31.4708Z" fill="#D68A36"/>
<path d="M60.089 23.1177H57.6228V28.2157H60.089V23.1177Z" fill="#C17325"/>
<path opacity="0.1" d="M58.8755 22.647C58.8755 22.647 58.0535 23.2352 58.0535 23.9803V26.5293H59.6584V23.9803C59.6584 23.2744 58.8755 22.647 58.8755 22.647Z" fill="#3F1B00"/>
<path opacity="0.1" d="M56.9183 22.647C56.9183 22.647 56.5269 23.2352 56.5269 23.9803V26.5293H57.2706V23.9803C57.3098 23.2744 56.9183 22.647 56.9183 22.647Z" fill="#3F1B00"/>
<path opacity="0.1" d="M60.7545 22.647C60.7545 22.647 60.363 23.2352 60.363 23.9803V26.5293H61.1068V23.9803C61.146 23.2744 60.7545 22.647 60.7545 22.647Z" fill="#3F1B00"/>
<path opacity="0.1" d="M95.9467 23.1177C95.9467 23.1177 95.2029 23.6667 95.2029 24.3726V26.7255H96.6904V24.3726C96.6904 23.6667 95.9467 23.1177 95.9467 23.1177Z" fill="#3F1B00"/>
<path opacity="0.1" d="M94.146 23.1177C94.146 23.1177 93.7937 23.6667 93.7937 24.3726V26.7255H94.4983V24.3726C94.4983 23.6667 94.146 23.1177 94.146 23.1177Z" fill="#3F1B00"/>
<path opacity="0.1" d="M97.6692 23.1177C97.6692 23.1177 97.3169 23.6667 97.3169 24.3726V26.7255H98.0215V24.3726C98.0215 23.6667 97.6692 23.1177 97.6692 23.1177Z" fill="#3F1B00"/>
</g>
<defs>
<clipPath id="clip0_703_1461">
<rect width="99" height="46" fill="white"/>
</clipPath>
</defs>
</svg>
