<svg width="31" height="28" viewBox="0 0 31 28" fill="none" xmlns="http://www.w3.org/2000/svg">
<path d="M30.9826 4.11328H0.134766V7.07567H30.9826V4.11328Z" fill="#002773"/>
<path d="M30.9826 12.4385H0.134766V15.4009H30.9826V12.4385Z" fill="#002773"/>
<path d="M30.9826 20.7676H0.134766V23.73H30.9826V20.7676Z" fill="#002773"/>
<path d="M9.24332 8.88485C11.0461 8.88485 12.5076 7.41117 12.5076 5.5933C12.5076 3.77543 11.0461 2.30176 9.24332 2.30176C7.44049 2.30176 5.979 3.77543 5.979 5.5933C5.979 7.41117 7.44049 8.88485 9.24332 8.88485Z" fill="white"/>
<path d="M9.24254 10.3329C6.63108 10.3329 4.50928 8.19337 4.50928 5.56014C4.50928 2.9269 6.63108 0.820312 9.24254 0.820312C11.854 0.820312 13.9758 2.95982 13.9758 5.59305C13.9758 8.22629 11.8213 10.3329 9.24254 10.3329ZM9.24254 3.7827C8.26324 3.7827 7.44716 4.60559 7.44716 5.59305C7.44716 6.58052 8.26324 7.4034 9.24254 7.4034C10.2218 7.4034 11.0379 6.58052 11.0379 5.59305C11.0379 4.60559 10.2218 3.7827 9.24254 3.7827Z" fill="#002773"/>
<path d="M20.6032 17.214C22.406 17.214 23.8675 15.7403 23.8675 13.9224C23.8675 12.1045 22.406 10.6309 20.6032 10.6309C18.8004 10.6309 17.3389 12.1045 17.3389 13.9224C17.3389 15.7403 18.8004 17.214 20.6032 17.214Z" fill="white"/>
<path d="M20.6024 18.6627C17.991 18.6627 15.8691 16.5232 15.8691 13.8899C15.8691 11.2567 17.991 9.11719 20.6024 9.11719C23.2139 9.11719 25.3357 11.2567 25.3357 13.8899C25.3357 16.5232 23.2139 18.6627 20.6024 18.6627ZM20.6024 12.1125C19.6231 12.1125 18.807 12.9354 18.807 13.9228C18.807 14.9103 19.6231 15.7332 20.6024 15.7332C21.5817 15.7332 22.3978 14.9103 22.3978 13.9228C22.3978 12.9354 21.5817 12.1125 20.6024 12.1125Z" fill="#002773"/>
<path d="M12.4753 25.5391C14.2781 25.5391 15.7396 24.0655 15.7396 22.2476C15.7396 20.4297 14.2781 18.9561 12.4753 18.9561C10.6724 18.9561 9.21094 20.4297 9.21094 22.2476C9.21094 24.0655 10.6724 25.5391 12.4753 25.5391Z" fill="white"/>
<path d="M12.4745 27.0201C9.86302 27.0201 7.74121 24.8806 7.74121 22.2474C7.74121 19.6141 9.86302 17.4746 12.4745 17.4746C15.0859 17.4746 17.2077 19.6141 17.2077 22.2474C17.2077 24.8806 15.0859 27.0201 12.4745 27.0201ZM12.4745 20.437C11.4952 20.437 10.6791 21.2599 10.6791 22.2474C10.6791 23.2348 11.4952 24.0577 12.4745 24.0577C13.4538 24.0577 14.2698 23.2348 14.2698 22.2474C14.2698 21.2599 13.4538 20.437 12.4745 20.437Z" fill="#002773"/>
</svg>
