<?xml version="1.0" encoding="UTF-8"?>
<svg id="Layer_2" data-name="Layer 2" xmlns="http://www.w3.org/2000/svg" viewBox="0 0 245.42 38.08">
  <defs>
    <style>
      .cls-1 {
        fill: #002769;
      }
    </style>
  </defs>
  <g id="Layer_1-2" data-name="Layer 1">
    <g>
      <polygon class="cls-1" points="79.67 2.2 83.1 8.03 83.11 8.06 83.63 8.06 87.08 2.16 87.08 9.21 88.11 9.21 88.11 .08 87.23 .08 83.39 6.7 79.53 .11 79.51 .08 78.64 .08 78.64 9.21 79.67 9.21 79.67 2.2"/>
      <polygon class="cls-1" points="99.09 8.26 93.67 8.26 93.67 5.04 98.33 5.04 98.33 4.11 93.67 4.11 93.67 1.02 98.9 1.02 98.9 .08 92.6 .08 92.6 9.21 99.09 9.21 99.09 8.26"/>
      <polygon class="cls-1" points="103.96 2.01 109.64 9.18 109.66 9.21 110.53 9.21 110.53 .08 109.47 .08 109.47 7.28 103.78 .1 103.76 .08 102.88 .08 102.88 9.21 103.96 9.21 103.96 2.01"/>
      <path class="cls-1" d="M115.75,6.8h4.94l1.08,2.41h1.13L118.75,.11l-.02-.03h-1.02l-4.13,9.04-.04,.08h1.12l1.08-2.41Zm.4-.89l2.07-4.63,2.07,4.63h-4.14Z"/>
      <path class="cls-1" d="M132.51,8.68c.73,.4,1.56,.61,2.46,.61s1.72-.2,2.44-.6c.72-.4,1.3-.96,1.72-1.66s.63-1.51,.63-2.38-.21-1.67-.63-2.38c-.42-.71-.99-1.27-1.72-1.66-.72-.4-1.54-.6-2.44-.6s-1.72,.2-2.46,.61c-.73,.4-1.31,.96-1.72,1.66-.41,.7-.62,1.5-.62,2.37s.21,1.67,.62,2.37c.41,.7,.99,1.26,1.72,1.66Zm2.46-7.71c.7,0,1.34,.16,1.9,.48,.56,.31,1.01,.76,1.33,1.32,.32,.56,.48,1.19,.48,1.88s-.16,1.32-.48,1.88c-.32,.56-.77,1-1.33,1.32-.56,.32-1.2,.48-1.9,.48s-1.34-.16-1.91-.48c-.57-.32-1.02-.76-1.34-1.32-.32-.56-.49-1.19-.49-1.88s.16-1.32,.49-1.88c.32-.56,.77-1,1.34-1.32,.57-.32,1.21-.48,1.91-.48Z"/>
      <path class="cls-1" d="M150.21,8.57c.58-.43,.88-1.04,.88-1.83,0-.61-.17-1.12-.5-1.51-.3-.35-.71-.6-1.23-.74,.36-.17,.66-.42,.87-.73,.25-.36,.38-.79,.38-1.3,0-.75-.29-1.35-.85-1.76-.56-.41-1.36-.62-2.37-.62h-3.95V9.21h4.2c1.12,0,1.99-.21,2.56-.64Zm-.19-1.91c0,.57-.19,.97-.59,1.24-.4,.27-1,.4-1.79,.4h-3.12v-3.27h3.12c1.61,0,2.39,.53,2.39,1.63Zm-1.04-2.94c-.38,.27-.94,.41-1.65,.41h-2.81V.98h2.81c.71,0,1.27,.14,1.65,.41,.38,.27,.57,.66,.57,1.17s-.19,.9-.57,1.17Z"/>
      <path class="cls-1" d="M159.14,7.92c-.39,.29-.99,.43-1.78,.43-.56,0-1.12-.1-1.65-.3-.53-.2-.96-.46-1.28-.78l-.06-.06-.43,.84,.03,.03c.34,.36,.83,.65,1.45,.86,.62,.22,1.27,.33,1.94,.33,.74,0,1.38-.11,1.89-.33,.52-.22,.9-.53,1.15-.91,.25-.38,.38-.81,.38-1.27,0-.56-.15-1.01-.44-1.35-.29-.33-.64-.58-1.06-.74-.41-.16-.95-.32-1.61-.49-.55-.14-1-.26-1.33-.38-.32-.11-.59-.28-.8-.49-.21-.21-.31-.48-.31-.83,0-.46,.19-.84,.58-1.13,.39-.3,.97-.44,1.75-.44,.4,0,.82,.06,1.24,.18,.42,.12,.82,.31,1.19,.55l.06,.04,.37-.87-.04-.03c-.37-.25-.8-.45-1.3-.59-.5-.14-1.01-.21-1.53-.21-.74,0-1.37,.11-1.88,.34-.51,.23-.89,.54-1.13,.92-.25,.38-.37,.81-.37,1.27,0,.57,.15,1.03,.45,1.37,.29,.33,.65,.58,1.06,.74,.4,.16,.95,.33,1.63,.5,.56,.14,1.01,.26,1.32,.38,.31,.11,.57,.27,.78,.48,.21,.2,.31,.48,.31,.82,0,.46-.19,.82-.58,1.1Z"/>
      <polygon class="cls-1" points="170.89 8.26 165.48 8.26 165.48 5.04 170.13 5.04 170.13 4.11 165.48 4.11 165.48 1.02 170.7 1.02 170.7 .08 164.4 .08 164.4 9.21 170.89 9.21 170.89 8.26"/>
      <path class="cls-1" d="M175.76,6.35h2.36c.24,0,.47-.01,.69-.04l2.04,2.87,.02,.03h1.19l-2.22-3.12c.63-.22,1.13-.57,1.48-1.04,.36-.49,.55-1.1,.55-1.82,0-.97-.34-1.75-1-2.31-.66-.56-1.58-.84-2.74-.84h-3.43V9.21h1.07v-2.86Zm0-5.33h2.33c.87,0,1.55,.19,2.01,.57,.46,.38,.69,.93,.69,1.63s-.23,1.23-.69,1.61c-.46,.38-1.13,.58-2.01,.58h-2.33V1.02Z"/>
      <polygon class="cls-1" points="193.31 .08 192.21 .08 188.78 7.81 185.38 .11 185.37 .08 184.21 .08 188.23 9.17 188.25 9.21 189.27 9.21 193.27 .16 193.31 .08"/>
      <path class="cls-1" d="M196.59,6.8h4.94l1.08,2.41h1.13L199.59,.11l-.02-.03h-1.02l-4.13,9.04-.04,.08h1.12l1.08-2.41Zm.4-.89l2.07-4.63,2.07,4.63h-4.14Z"/>
      <polygon class="cls-1" points="212.3 .08 204.89 .08 204.89 1.02 208.06 1.02 208.06 9.21 209.13 9.21 209.13 1.02 212.3 1.02 212.3 .08"/>
      <path class="cls-1" d="M216.79,8.68c.73,.4,1.56,.61,2.46,.61s1.72-.2,2.44-.6c.72-.4,1.3-.96,1.72-1.66s.63-1.51,.63-2.38-.21-1.67-.63-2.38c-.42-.71-.99-1.27-1.72-1.66-.72-.4-1.54-.6-2.44-.6s-1.72,.2-2.46,.61c-.73,.4-1.31,.96-1.72,1.66-.41,.7-.62,1.5-.62,2.37s.21,1.67,.62,2.37c.41,.7,.99,1.26,1.72,1.66Zm2.46-7.71c.7,0,1.34,.16,1.9,.48,.56,.31,1.01,.76,1.33,1.32,.32,.56,.48,1.19,.48,1.88s-.16,1.32-.48,1.88c-.32,.56-.77,1-1.33,1.32-.56,.32-1.2,.48-1.9,.48s-1.34-.16-1.91-.48c-.57-.32-1.02-.76-1.34-1.32-.32-.56-.49-1.19-.49-1.88s.16-1.32,.49-1.88c.32-.56,.77-1,1.34-1.32,.57-.32,1.21-.48,1.91-.48Z"/>
      <path class="cls-1" d="M228.79,6.35h2.36c.24,0,.47-.01,.69-.04l2.04,2.87,.02,.03h1.19l-2.22-3.12c.63-.22,1.13-.57,1.48-1.04,.36-.49,.55-1.1,.55-1.82,0-.97-.34-1.75-1-2.31-.66-.56-1.58-.84-2.74-.84h-3.43V9.21h1.07v-2.86Zm0-5.33h2.33c.87,0,1.55,.19,2.01,.57,.46,.38,.69,.93,.69,1.63s-.23,1.23-.69,1.61c-.46,.38-1.13,.58-2.01,.58h-2.33V1.02Z"/>
      <polygon class="cls-1" points="240.71 9.21 241.77 9.21 241.77 6.05 245.42 .08 244.33 .08 241.27 5.08 238.24 .11 238.22 .08 237.06 .08 240.71 6.05 240.71 9.21"/>
      <path class="cls-1" d="M87.42,20.09c0-.87-.21-1.67-.63-2.38-.42-.71-.99-1.27-1.72-1.66-.72-.4-1.54-.6-2.44-.6s-1.72,.2-2.45,.61c-.73,.4-1.31,.96-1.72,1.66-.41,.7-.62,1.5-.62,2.37s.21,1.67,.62,2.37c.41,.7,.99,1.26,1.72,1.66,.73,.4,1.56,.61,2.45,.61s1.72-.2,2.44-.6c.72-.4,1.3-.96,1.72-1.66,.42-.71,.63-1.51,.63-2.38Zm-4.78,3.67c-.7,0-1.34-.16-1.91-.48-.57-.32-1.02-.76-1.34-1.32-.32-.56-.49-1.19-.49-1.88s.16-1.32,.49-1.88c.32-.56,.77-1,1.34-1.32,.57-.32,1.21-.48,1.91-.48s1.34,.16,1.9,.48c.56,.31,1.01,.76,1.33,1.32,.32,.56,.48,1.19,.48,1.88s-.16,1.32-.48,1.88c-.32,.56-.77,1-1.33,1.32-.56,.32-1.2,.48-1.9,.48Z"/>
      <polygon class="cls-1" points="92.18 17.45 97.86 24.63 97.88 24.65 98.76 24.65 98.76 15.52 97.7 15.52 97.7 22.72 92 15.54 91.98 15.52 91.11 15.52 91.11 24.65 92.18 24.65 92.18 17.45"/>
      <path class="cls-1" d="M115.66,24.65l-2.22-3.12c.63-.22,1.13-.57,1.48-1.04,.36-.49,.55-1.1,.55-1.82,0-.97-.34-1.75-1-2.31-.66-.56-1.58-.84-2.74-.84h-3.43v9.13h1.07v-2.86h2.36c.24,0,.47-.01,.69-.04l2.06,2.89h1.19Zm-6.3-8.19h2.33c.87,0,1.55,.19,2.01,.57,.46,.38,.69,.93,.69,1.63s-.23,1.23-.69,1.61c-.46,.38-1.13,.58-2.01,.58h-2.33v-4.4Z"/>
      <polygon class="cls-1" points="125.56 16.46 125.56 15.52 119.27 15.52 119.27 24.65 125.76 24.65 125.76 23.71 120.34 23.71 120.34 20.48 125 20.48 125 19.55 120.34 19.55 120.34 16.46 125.56 16.46"/>
      <path class="cls-1" d="M135.14,23.48c.25-.38,.38-.81,.38-1.27,0-.56-.15-1.01-.44-1.35-.29-.33-.64-.58-1.06-.74-.41-.16-.95-.32-1.61-.49-.55-.14-1-.26-1.33-.38-.32-.11-.59-.28-.8-.49-.21-.21-.31-.48-.31-.83,0-.46,.19-.84,.58-1.13,.39-.3,.97-.44,1.75-.44,.4,0,.82,.06,1.24,.18,.42,.12,.82,.31,1.19,.55l.06,.04,.37-.87-.04-.03c-.37-.25-.8-.45-1.3-.59-.5-.14-1.01-.21-1.53-.21-.74,0-1.37,.11-1.88,.34-.51,.23-.89,.54-1.13,.92-.25,.38-.37,.81-.37,1.27,0,.57,.15,1.03,.45,1.37,.29,.33,.65,.58,1.06,.74,.4,.16,.95,.33,1.63,.5,.56,.14,1.01,.26,1.32,.38,.31,.11,.57,.27,.78,.48,.21,.2,.31,.48,.31,.82,0,.46-.19,.82-.58,1.1s-.99,.43-1.78,.43c-.56,0-1.12-.1-1.65-.3-.53-.2-.96-.46-1.28-.78l-.06-.06-.43,.84,.03,.03c.34,.36,.83,.65,1.45,.86,.62,.22,1.27,.33,1.94,.33,.74,0,1.38-.11,1.89-.33,.52-.22,.9-.53,1.15-.91Z"/>
      <path class="cls-1" d="M146.31,18.67c0-.97-.34-1.75-1-2.31-.66-.56-1.58-.84-2.74-.84h-3.43v9.13h1.07v-2.84h2.36c1.16,0,2.08-.28,2.74-.83,.66-.55,1-1.33,1-2.3Zm-6.1-2.21h2.33c.87,0,1.55,.19,2.01,.57,.46,.38,.69,.93,.69,1.63s-.23,1.23-.69,1.61c-.46,.38-1.13,.57-2.01,.57h-2.33v-4.39Z"/>
      <path class="cls-1" d="M156.49,24.13c.72-.4,1.3-.96,1.72-1.66s.63-1.51,.63-2.38-.21-1.67-.63-2.38c-.42-.71-.99-1.27-1.72-1.66-.72-.4-1.54-.6-2.44-.6s-1.72,.2-2.46,.61c-.73,.4-1.31,.96-1.72,1.66-.41,.7-.62,1.5-.62,2.37s.21,1.67,.62,2.37c.41,.7,.99,1.26,1.72,1.66,.73,.4,1.56,.61,2.46,.61s1.72-.2,2.44-.6Zm-2.44-7.71c.7,0,1.34,.16,1.9,.48,.56,.31,1.01,.76,1.33,1.32,.32,.56,.48,1.19,.48,1.88s-.16,1.32-.48,1.88c-.32,.56-.77,1-1.33,1.32-.56,.32-1.2,.48-1.9,.48s-1.34-.16-1.91-.48c-.57-.32-1.02-.76-1.34-1.32-.32-.56-.49-1.19-.49-1.88s.16-1.32,.49-1.88c.32-.56,.77-1,1.34-1.32,.57-.32,1.21-.48,1.91-.48Z"/>
      <polygon class="cls-1" points="169.12 22.72 163.42 15.54 163.4 15.52 162.53 15.52 162.53 24.65 163.6 24.65 163.6 17.45 169.28 24.63 169.3 24.65 170.17 24.65 170.17 15.52 169.12 15.52 169.12 22.72"/>
      <path class="cls-1" d="M178.98,23.37c-.39,.29-.99,.43-1.78,.43-.56,0-1.12-.1-1.65-.3-.53-.2-.96-.46-1.28-.78l-.06-.06-.43,.84,.03,.03c.34,.36,.83,.65,1.45,.86,.62,.22,1.27,.33,1.94,.33,.74,0,1.38-.11,1.89-.33,.52-.22,.9-.53,1.15-.91,.25-.38,.38-.81,.38-1.27,0-.56-.15-1.01-.44-1.35-.29-.33-.64-.58-1.06-.74-.41-.16-.95-.32-1.61-.49-.55-.14-1-.26-1.33-.38-.32-.11-.59-.28-.8-.49-.21-.21-.31-.48-.31-.83,0-.46,.19-.84,.58-1.13,.39-.3,.97-.44,1.75-.44,.4,0,.82,.06,1.24,.18,.42,.12,.82,.31,1.19,.55l.06,.04,.37-.87-.04-.03c-.37-.25-.8-.45-1.3-.59-.5-.14-1.01-.21-1.53-.21-.74,0-1.37,.11-1.88,.34-.51,.23-.89,.54-1.13,.92-.25,.38-.37,.81-.37,1.27,0,.57,.15,1.03,.45,1.37,.29,.33,.65,.58,1.06,.74,.4,.16,.95,.33,1.63,.5,.56,.14,1.01,.26,1.32,.38,.31,.11,.57,.27,.78,.48,.21,.2,.31,.48,.31,.82,0,.46-.19,.82-.58,1.1Z"/>
      <rect class="cls-1" x="184.25" y="15.52" width="1.07" height="9.13"/>
      <path class="cls-1" d="M196.58,24.01c.58-.43,.88-1.04,.88-1.83,0-.61-.17-1.12-.5-1.51-.3-.35-.71-.6-1.23-.74,.36-.17,.66-.42,.87-.73,.25-.36,.38-.79,.38-1.3,0-.75-.29-1.35-.85-1.76-.56-.41-1.36-.62-2.37-.62h-3.95v9.13h4.2c1.12,0,1.99-.21,2.56-.64Zm-.19-1.91c0,.57-.19,.97-.59,1.24-.4,.27-1,.4-1.79,.4h-3.12v-3.27h3.12c1.61,0,2.39,.53,2.39,1.63Zm-1.04-2.94c-.38,.27-.94,.41-1.65,.41h-2.81v-3.15h2.81c.71,0,1.27,.14,1.65,.41,.38,.27,.57,.66,.57,1.17s-.19,.9-.57,1.17Z"/>
      <polygon class="cls-1" points="202.26 15.52 201.19 15.52 201.19 24.65 207.3 24.65 207.3 23.71 202.26 23.71 202.26 15.52"/>
      <polygon class="cls-1" points="216.93 23.71 211.51 23.71 211.51 20.48 216.17 20.48 216.17 19.55 211.51 19.55 211.51 16.46 216.74 16.46 216.74 15.52 210.44 15.52 210.44 24.65 216.93 24.65 216.93 23.71"/>
      <path class="cls-1" d="M232.52,24.65h1.13l-4.16-9.09-.02-.03h-1.02l-4.13,9.04-.04,.08h1.12l1.08-2.41h4.94l1.08,2.41Zm-1.48-3.3h-4.14l2.07-4.63,2.07,4.63Z"/>
      <rect class="cls-1" x="236.67" y="15.52" width="1.07" height="9.13"/>
      <path class="cls-1" d="M63.47,12.69c.33-.27,.55-.68,.55-1.15,0-.82-.67-1.5-1.5-1.5s-1.5,.67-1.5,1.5c0,.15,.03,.28,.07,.42l-1.44,.87c-.27-.25-.62-.4-1.02-.4-.15,0-.29,.03-.43,.07l-4.73-7.2c.24-.27,.39-.61,.39-1,0-.82-.67-1.5-1.5-1.5-.15,0-.3,.03-.43,.07l-.93-1.35h-2.01c-.18-.62-.75-1.08-1.43-1.08-.82,0-1.5,.67-1.5,1.5,0,.68,.46,1.25,1.08,1.43v1.67l2.5,1.53v1.23c-.62,.18-1.08,.75-1.08,1.43,0,.82,.67,1.5,1.5,1.5s1.5-.67,1.5-1.5c0-.68-.46-1.25-1.08-1.43v-1.69l-2.5-1.53v-1.2c.49-.14,.88-.53,1.02-1.02h1.57l.67,.98c-.23,.26-.37,.6-.37,.97,0,.82,.67,1.5,1.5,1.5,.14,0,.27-.03,.4-.06l4.74,7.21c-.23,.26-.37,.6-.37,.98,0,.82,.67,1.5,1.5,1.5s1.5-.67,1.5-1.5c0-.13-.02-.26-.06-.38l1.46-.89c.26,.23,.61,.38,.99,.38,.07,0,.13-.01,.2-.02l2.16,4.66-.9,.43c-.27-.33-.68-.55-1.15-.55-.82,0-1.5,.67-1.5,1.5,0,.08,.01,.16,.02,.24l-8.4,3.83-6.14-11.11c.26-.27,.42-.63,.42-1.03,0-.82-.67-1.5-1.5-1.5s-1.5,.67-1.5,1.5,.67,1.5,1.5,1.5c.13,0,.25-.02,.37-.05l6.5,11.77,9.11-4.16c.27,.31,.67,.51,1.11,.51,.82,0,1.5-.67,1.5-1.5,0-.07-.01-.13-.02-.2l1.64-.8-2.47-5.38Zm-12.73-3.47c0,.37-.3,.67-.67,.67s-.67-.3-.67-.67,.3-.67,.67-.67,.67,.3,.67,.67Zm-3.17-6.61c-.37,0-.67-.3-.67-.67s.3-.67,.67-.67,.67,.3,.67,.67-.3,.67-.67,.67Zm4.8,2.36c-.37,0-.67-.3-.67-.67s.3-.67,.67-.67,.67,.3,.67,.67-.3,.67-.67,.67Zm6.27,9.62c-.37,0-.67-.3-.67-.67s.3-.67,.67-.67,.67,.3,.67,.67-.3,.67-.67,.67Zm3.89-2.38c-.37,0-.67-.3-.67-.67s.3-.67,.67-.67,.67,.3,.67,.67-.3,.67-.67,.67Zm-16.78-.54c-.37,0-.67-.3-.67-.67s.3-.67,.67-.67,.67,.3,.67,.67-.3,.67-.67,.67Zm17.09,8.07c-.37,0-.67-.3-.67-.67s.3-.67,.67-.67,.67,.3,.67,.67-.3,.67-.67,.67Z"/>
      <path class="cls-1" d="M53.78,25.6c-.27-.24-.62-.39-1-.39-.82,0-1.5,.67-1.5,1.5s.67,1.5,1.5,1.5,1.5-.67,1.5-1.5c0-.14-.03-.27-.06-.4l.59-.35h3.18v4.22l-6.45,6.05h-1.31v-2.72c.65-.16,1.14-.75,1.14-1.45,0-.82-.67-1.5-1.5-1.5s-1.5,.67-1.5,1.5c0,.66,.43,1.21,1.03,1.41v3.58h2.46l6.94-6.52v-5.4h-4.23l-.79,.48Zm-1,1.77c-.37,0-.67-.3-.67-.67s.3-.67,.67-.67,.67,.3,.67,.67-.3,.67-.67,.67Zm-3.58,4.68c0-.37,.3-.67,.67-.67s.67,.3,.67,.67-.3,.67-.67,.67-.67-.3-.67-.67Z"/>
      <path class="cls-1" d="M9.51,21.06c-.69,0-1.27,.48-1.44,1.12h-3.56l-3.68-1.88v-5.8l2.89-2.33c.23,.15,.51,.24,.81,.24,.82,0,1.5-.67,1.5-1.5,0-.68-.46-1.25-1.08-1.43v-1.7L10.37,2.36h12.51c.14,.5,.54,.89,1.04,1.03v3.28l18.5,.15c.2,.59,.75,1.01,1.41,1.01,.82,0,1.5-.67,1.5-1.5s-.67-1.5-1.5-1.5c-.71,0-1.3,.49-1.45,1.15l-17.63-.14V3.37c.61-.19,1.06-.75,1.06-1.42,0-.82-.67-1.5-1.5-1.5-.68,0-1.25,.46-1.43,1.08H10.03L4.11,7.45v2.04c-.62,.18-1.08,.75-1.08,1.43,0,.23,.05,.44,.14,.63L0,14.11v6.7l4.31,2.2h3.78c.19,.61,.75,1.05,1.42,1.05,.82,0,1.5-.67,1.5-1.5s-.67-1.5-1.5-1.5ZM43.84,5.66c.37,0,.67,.3,.67,.67s-.3,.67-.67,.67-.67-.3-.67-.67,.3-.67,.67-.67ZM24.32,1.27c.37,0,.67,.3,.67,.67s-.3,.67-.67,.67-.67-.3-.67-.67,.3-.67,.67-.67ZM4.52,10.25c.37,0,.67,.3,.67,.67s-.3,.67-.67,.67-.67-.3-.67-.67,.3-.67,.67-.67Zm4.99,12.98c-.37,0-.67-.3-.67-.67s.3-.67,.67-.67,.67,.3,.67,.67-.3,.67-.67,.67Z"/>
      <path class="cls-1" d="M21,16.17c-.67,0-1.23,.44-1.42,1.04h-2.27l-5.64-4.3h-2.57v3.54h-2.42c-.19-.6-.75-1.05-1.42-1.05-.82,0-1.5,.67-1.5,1.5s.67,1.5,1.5,1.5c.69,0,1.27-.48,1.44-1.12h3.23v-3.54h1.47l5.64,4.3h2.52c.17,.64,.75,1.12,1.44,1.12,.82,0,1.5-.67,1.5-1.5s-.67-1.5-1.5-1.5Zm-15.74,1.41c-.37,0-.67-.3-.67-.67s.3-.67,.67-.67,.67,.3,.67,.67-.3,.67-.67,.67Zm15.74,.76c-.37,0-.67-.3-.67-.67s.3-.67,.67-.67,.67,.3,.67,.67-.3,.67-.67,.67Z"/>
      <path class="cls-1" d="M47.15,18.84c-.82,0-1.5,.67-1.5,1.5,0,.42,.17,.8,.45,1.07l-2.62,4.91h-7.28v-8.34l-10.35-3.34s0-.03,0-.04c0-.82-.67-1.5-1.5-1.5s-1.5,.67-1.5,1.5,.67,1.5,1.5,1.5c.52,0,.97-.26,1.24-.67l9.77,3.15v8.56h8.59l2.85-5.34c.1,.02,.21,.04,.32,.04,.82,0,1.5-.67,1.5-1.5s-.67-1.5-1.5-1.5Zm-22.77-3.58c-.37,0-.67-.3-.67-.67s.3-.67,.67-.67,.67,.3,.67,.67-.3,.67-.67,.67Zm22.77,5.75c-.37,0-.67-.3-.67-.67s.3-.67,.67-.67,.67,.3,.67,.67-.3,.67-.67,.67Z"/>
      <path class="cls-1" d="M81.53,31.05l.04,4.05c0,.4-.12,.75-.39,1.03-.27,.29-.58,.43-.96,.43s-.7-.14-.97-.42c-.27-.28-.4-.62-.4-1.03,0-.06,0-.53,0-1.41h-.47c0,.58,.01,1.05,.01,1.4,0,.54,.18,.99,.53,1.37,.36,.38,.79,.57,1.29,.57s.92-.19,1.27-.57c.36-.38,.53-.83,.53-1.36,0-.76-.01-2.12-.03-4.07h-.47Z"/>
      <path class="cls-1" d="M84.08,33.04c-.27,0-.52,.09-.73,.27-.27,.23-.42,.57-.42,1.01,0,.34,.08,.63,.28,.87,.2,.24,.45,.36,.77,.36h.62c-.1,.32-.28,.58-.52,.77-.25,.2-.55,.29-.9,.29l.21,.43c.53-.05,.97-.27,1.29-.66s.49-.88,.49-1.47v-.79c0-.72-.36-1.08-1.07-1.08Zm.01,2.07c-.4,0-.66-.36-.66-.82,0-.29,.08-.53,.23-.7,.13-.16,.28-.23,.47-.23,.35,0,.53,.21,.53,.61v1.14s-.57,0-.57,0Z"/>
      <path class="cls-1" d="M86.45,32.63h1.4v-.27h-.31c-.25,0-.38-.13-.38-.38,0-.27,.09-.4,.27-.4,.1,0,.19,.05,.27,.14l.12-.19c-.1-.14-.24-.21-.4-.21-.33,0-.58,.27-.58,.61,0,.16,.05,.31,.16,.42h-.4l-.15,.27Z"/>
      <path class="cls-1" d="M100.32,31.12h-.47c0,.32,0,.91,.01,1.77,0,.74,.01,1.33,.01,1.76,0,.31-.2,.47-.47,.47h-1.03c0-.08,0-.15,0-.23,0-.34-.1-.64-.31-.88-.22-.27-.51-.4-.88-.4-.71,0-1.14,.49-1.14,1.28,0,.08,0,.15,.01,.23h-1.33c-.13,0-.26-.05-.38-.17-.14-.14-.21-.31-.22-.53,0-.62-.01-1.07-.01-1.36h-.47c.01,1,.02,1.56,.02,1.69,0,.3-.22,.47-.49,.47-.25,0-.45-.06-.59-.18-.16-.13-.24-.32-.25-.58,0-.54,0-.94,0-1.2h-.47c.01,.85,.02,1.35,.02,1.49,0,.31-.2,.47-.47,.47-.53,0-.8-.25-.81-.76v-1.2h-.47c0,.31,0,.58,0,.79v1.07h-1.9v-.99c0-.72-.36-1.08-1.07-1.08-.27,0-.52,.09-.73,.27-.27,.23-.42,.57-.42,1.01,0,.34,.08,.63,.28,.87,.2,.24,.45,.36,.77,.36h.62c-.1,.32-.28,.58-.52,.77-.25,.2-.55,.29-.9,.29,.09,.2,.16,.34,.2,.42,.87-.08,1.49-.64,1.7-1.49h2.44v-.3c.08,.13,.18,.22,.29,.28,.13,.07,.31,.1,.54,.1,.45,0,.73-.18,.86-.54,.1,.21,.23,.35,.38,.44,.13,.08,.31,.12,.55,.12,.41,0,.76-.23,.87-.61,.14,.34,.37,.51,.68,.51h1.43c.21,.42,.55,.62,1.03,.62s.83-.21,1.01-.62h1.15c.6,0,.93-.34,.93-.89,0-.44,0-1.03-.01-1.77,0-.87-.01-1.46-.01-1.77Zm-12.52,3.99h-.58c-.4,0-.66-.36-.66-.82,0-.29,.08-.53,.23-.7,.13-.16,.28-.23,.47-.23,.35,0,.55,.21,.55,.61v1.14Zm9.92,.45c-.12,.14-.27,.22-.46,.22s-.34-.08-.47-.22c-.14-.16-.22-.39-.22-.68s.06-.52,.19-.69c.12-.14,.27-.21,.47-.21s.34,.07,.47,.21c.14,.17,.21,.4,.21,.69s-.06,.51-.19,.68Z"/>
      <polygon class="cls-1" points="101.24 31.12 101.27 35.55 101.75 35.55 101.71 31.12 101.24 31.12"/>
      <rect class="cls-1" x="105.75" y="37.55" width=".51" height=".53"/>
      <rect class="cls-1" x="104.9" y="37.55" width=".51" height=".53"/>
      <path class="cls-1" d="M110.98,35.11c-.47,0-.84-.35-.85-.86,0-.29,.09-.53,.27-.7,.14-.12,.27-.18,.42-.18,.27,0,.47,.1,.63,.28l.3-.24c-.24-.29-.55-.45-.96-.45-.29,0-.56,.11-.79,.33-.25,.24-.38,.53-.38,.89,0,.34,.11,.65,.35,.93h-1.32c-.2,0-.41-.19-.43-.43-.05-.46-.12-.8-.23-1.01-.21-.46-.58-.69-1.08-.69-.87,0-1.31,.58-1.31,1.73h1.27v.39c.01,.4-.12,.75-.38,1.03-.27,.29-.58,.43-.96,.43s-.69-.14-.96-.42c-.27-.28-.4-.62-.4-1.03,0-.42-.01-.7-.01-.84h-.47c.01,.39,.02,.66,.03,.83,0,.54,.18,.99,.53,1.37,.36,.38,.78,.57,1.28,.57s.93-.19,1.28-.57c.36-.38,.53-.83,.53-1.36l-.02-.84h-1.23c0-.23,.08-.43,.23-.6,.16-.16,.35-.25,.58-.24,.31,0,.54,.14,.68,.44,.09,.18,.14,.48,.18,.87,.02,.24,.12,.43,.27,.58,.16,.15,.34,.23,.53,.23h3.44l-.18-.44h-.84Z"/>
      <rect class="cls-1" x="115.27" y="31.98" width=".51" height=".53"/>
      <path class="cls-1" d="M126.02,33.05c-.31-.03-.64,.05-1,.25-.42,.23-.75,.57-.99,1.01v-.61h-.43v1.41h-2.01c-.05-1.31-.55-1.99-1.48-2.07-.31-.03-.63,.05-.97,.23-.48,.25-.85,.68-1.12,1.27l.05-3.05h-.47v3.62s-.58,0-.58,0h-.66c-.13,0-.26-.06-.38-.18-.14-.14-.21-.34-.21-.58,0-.43-.01-.86-.01-1.3h-.47c.02,1.16,.02,1.69,0,1.58,0,.16-.07,.28-.21,.38-.11,.07-.23,.1-.36,.1h-1.04c-.21-.03-.32-.18-.32-.43l-.02-3.56h-.47l.02,3.62c0,.26,.08,.47,.23,.61,.13,.13,.29,.2,.49,.2h1.25c.38-.02,.73-.22,.86-.55,.03,.1,.09,.2,.17,.29,.14,.17,.31,.26,.52,.26h11.05c0-.69-.08-1.23-.23-1.6-.23-.54-.64-.84-1.23-.9Zm-7.91,2.06c.49-1.14,1.16-1.69,2-1.64,.42,.02,.72,.3,.88,.84,.08,.23,.12,.49,.12,.8h-3Zm5.92,0v-.06c.49-1.12,1.15-1.64,1.98-1.59,.42,.03,.71,.31,.88,.85,.07,.23,.11,.49,.12,.8h-2.97Z"/>
      <path class="cls-1" d="M128.97,31.11h-.47c.02,1.83,.03,3.05,.03,3.65,.2,0,.36,0,.48-.1l-.04-3.55Z"/>
      <path class="cls-1" d="M129.78,31.12c.02,1.9,.03,2.9,.03,2.99,0,.36-.16,.64-.49,.81-.24,.12-.51,.18-.83,.18h-.3v.45h.33c.52,0,.95-.12,1.27-.37,.34-.25,.5-.58,.5-.97l-.04-3.09h-.47Z"/>
      <path class="cls-1" d="M128.98,36.76c-.2,0-.29-.1-.29-.3,0-.21,.08-.32,.22-.32,.08,0,.14,.04,.21,.12l.1-.15c-.09-.11-.19-.16-.32-.16-.27,0-.46,.21-.46,.49,0,.12,.04,.23,.12,.33h-.32l-.12,.21h1.1v-.21h-.25Z"/>
      <polygon class="cls-1" points="131.19 31.12 131.22 35.55 131.69 35.55 131.66 31.12 131.19 31.12"/>
      <path class="cls-1" d="M135.15,34.52c0-.42,.14-.64,.43-.64,.16,0,.3,.08,.42,.23l.2-.3c-.16-.22-.38-.33-.64-.33s-.48,.1-.65,.29c-.17,.18-.25,.42-.25,.69,0,.25,.08,.47,.23,.66h-.64l-.24,.43h2.22v-.43h-.5c-.41,0-.59-.16-.59-.6Z"/>
      <path class="cls-1" d="M140,33.05c-.15,0-.31,.01-.47,.04l1.19-1.16-.31-.31-1.64,1.7s-.03,0-.03,.01l.22,.4c.31-.18,.63-.28,.94-.28,.41,0,.75,.15,1.03,.46,.28,.3,.44,.7,.46,1.19h-3.44c-.21-.03-.32-.18-.32-.43l-.02-3.56h-.47l.02,3.62c0,.26,.08,.47,.23,.61,.13,.13,.29,.2,.49,.2h4.01c0-.73-.14-1.3-.41-1.73-.32-.51-.81-.77-1.47-.77Z"/>
      <rect class="cls-1" x="143.81" y="31.98" width=".51" height=".53"/>
      <path class="cls-1" d="M149.96,31.12h-.47c0,.32,0,.91,.01,1.77,0,.74,.01,1.33,.01,1.76,0,.31-.2,.47-.47,.47h-.95c-.13,0-.25-.06-.38-.18-.14-.14-.21-.31-.22-.49-.02-1.29-.03-2.4-.03-3.33h-.47c.02,1.4,.03,2.57,.03,3.53,0,.16-.07,.28-.21,.38-.12,.07-.23,.1-.36,.1h-1.31c-.05-.66-.23-1.18-.51-1.55-.25-.34-.55-.51-.9-.51v.42c.23,0,.43,.15,.62,.46,.21,.33,.32,.72,.34,1.18h-1.87l-.14,.44h3.9c.38-.02,.73-.22,.86-.55,.03,.1,.09,.2,.17,.29,.14,.17,.31,.26,.52,.26h.91c.6,0,.93-.34,.93-.89,0-.44,0-1.03-.01-1.77,0-.87-.01-1.46-.01-1.77Z"/>
      <rect class="cls-1" x="155.25" y="36.04" width=".51" height=".53"/>
      <rect class="cls-1" x="154.41" y="36.04" width=".51" height=".53"/>
      <rect class="cls-1" x="158.33" y="31.51" width=".51" height=".53"/>
      <rect class="cls-1" x="157.49" y="31.51" width=".51" height=".53"/>
      <path class="cls-1" d="M161.48,33.05h-.47c.01,1.13,.02,1.66,.02,1.6,0,.31-.2,.47-.47,.47h-1.38c-.28,0-.48-.01-.58-.03,.25-.17,.45-.39,.58-.66,.11-.23,.16-.44,.16-.66,0-.38-.12-.67-.36-.89-.22-.2-.49-.3-.82-.3s-.6,.1-.81,.3c-.23,.22-.35,.51-.35,.89,0,.22,.05,.44,.16,.66,.13,.27,.32,.49,.58,.66-.1,.02-.3,.03-.58,.03h-1.29c-.13,0-.26-.06-.38-.18-.14-.14-.21-.34-.21-.58,0-.43-.01-.86-.01-1.3h-.47c.02,1.16,.02,1.69,0,1.58,0,.16-.07,.28-.21,.38-.11,.07-.23,.1-.36,.1h-1.03c-.21-.03-.32-.18-.32-.43l-.02-3.56h-.47l.02,3.62c0,.26,.08,.47,.23,.61,.13,.13,.29,.2,.49,.2h1.25c.38-.02,.73-.22,.86-.55,.03,.1,.09,.2,.17,.29,.14,.17,.31,.26,.52,.26h1.22c.34,0,.69-.08,1.03-.23,.36,.16,.7,.23,1.03,.23h1.36c.6,0,.93-.34,.93-.89,0,0,0-.53-.02-1.61Zm-3.31,1.79c-.1,0-.23-.1-.39-.29-.2-.23-.29-.5-.29-.8,0-.23,.05-.42,.17-.58,.13-.17,.29-.26,.51-.26s.38,.09,.51,.26c.12,.16,.17,.35,.17,.58,0,.3-.1,.57-.28,.8-.16,.2-.29,.29-.4,.29Z"/>
      <rect class="cls-1" x="159.89" y="36.04" width=".51" height=".53"/>
      <rect class="cls-1" x="160.73" y="36.04" width=".51" height=".53"/>
      <rect class="cls-1" x="165.81" y="30.98" width=".51" height=".53"/>
      <path class="cls-1" d="M166.07,31.98c-.27,0-.51,.1-.72,.28-.27,.23-.4,.57-.42,1.01,0,.34,.08,.63,.28,.87,.2,.24,.45,.36,.76,.36h.73v.29c0,.21-.1,.31-.28,.31h-2.47c-.13,0-.25-.06-.38-.18-.14-.14-.21-.31-.21-.51v-1.36h-.48v1.93c0,.46-.13,.84-.4,1.15-.29,.32-.65,.47-1.1,.47,.09,.2,.16,.34,.21,.42,.5-.04,.91-.23,1.23-.58s.51-.79,.54-1.33c.16,.28,.37,.42,.64,.42h2.54c.39,0,.6-.2,.62-.6v-1.88c0-.73-.36-1.09-1.08-1.09Zm.02,2.08c-.39,0-.66-.36-.66-.83,.01-.29,.09-.53,.23-.7,.13-.15,.29-.23,.47-.23,.35,0,.53,.21,.53,.61v1.14s-.58,0-.58,0Z"/>
      <path class="cls-1" d="M168.09,36.46c0-.21,.07-.32,.21-.32,.08,0,.14,.04,.21,.12l.1-.15c-.08-.1-.18-.16-.31-.16-.25,0-.45,.21-.45,.48,0,.12,.04,.23,.12,.33h-.31l-.12,.21h1.1v-.21h-.25c-.19,0-.29-.1-.29-.3Z"/>
      <polygon class="cls-1" points="168.52 31.12 168.05 31.12 168.08 35.55 168.55 35.55 168.52 31.12"/>
      <path class="cls-1" d="M173.64,31.05l.04,4.05c0,.4-.12,.75-.39,1.03-.27,.29-.58,.43-.96,.43s-.7-.14-.97-.42c-.27-.28-.4-.62-.4-1.03,0-.06,0-.53,0-1.41h-.47c0,.58,.01,1.05,.01,1.4,0,.54,.18,.99,.53,1.37,.36,.38,.79,.57,1.29,.57s.92-.19,1.27-.57c.36-.38,.53-.83,.53-1.36,0-.76-.01-2.12-.03-4.07h-.47Z"/>
      <rect class="cls-1" x="183.12" y="31.97" width=".51" height=".53"/>
      <rect class="cls-1" x="182.27" y="31.97" width=".51" height=".53"/>
      <rect class="cls-1" x="182.7" y="31.23" width=".51" height=".53"/>
      <path class="cls-1" d="M184.48,33.05c.01,1,.02,1.56,.02,1.69,0,.3-.22,.47-.49,.47-.25,0-.44-.06-.59-.18-.16-.13-.24-.32-.25-.58,0-.54,0-.94,0-1.2h-.47c.01,.85,.02,1.35,.02,1.49,0,.31-.2,.47-.47,.47-.53,0-.79-.25-.81-.76v-1.2h-.47c0,.31,0,.58,0,.79v1.07h-1.69c0-.08,0-.15,0-.23,0-.34-.1-.64-.31-.88-.22-.27-.51-.4-.88-.4-.71,0-1.14,.49-1.14,1.28,0,.08,0,.15,.01,.23h-1.14c-.21-.03-.32-.18-.32-.43l-.02-3.56h-.47l.02,3.62c0,.26,.08,.47,.23,.61,.13,.13,.29,.2,.49,.2h1.36c.21,.42,.55,.62,1.03,.62s.83-.21,1.01-.62h2.27v-.31c.08,.13,.18,.23,.29,.29,.13,.07,.32,.1,.54,.1,.45,0,.73-.18,.86-.54,.1,.21,.23,.35,.38,.44,.13,.08,.32,.12,.55,.12,.53,0,.91-.36,.91-.9,0-.05,0-.61-.01-1.69h-.47Zm-5.85,2.51c-.12,.14-.27,.22-.46,.22s-.34-.08-.47-.22c-.14-.16-.22-.39-.22-.68s.06-.52,.19-.69c.12-.14,.27-.21,.47-.21s.34,.07,.47,.21c.14,.17,.21,.4,.21,.69s-.06,.51-.19,.68Z"/>
      <path class="cls-1" d="M187.05,33.04c-.27,0-.52,.09-.73,.27-.27,.23-.42,.57-.42,1.01,0,.34,.08,.63,.28,.87,.2,.24,.45,.36,.77,.36h.62c-.1,.32-.28,.58-.52,.77-.25,.2-.55,.29-.9,.29l.21,.43c.53-.05,.97-.27,1.29-.66s.49-.88,.49-1.47v-.79c0-.72-.36-1.08-1.07-1.08Zm.01,2.07c-.4,0-.66-.36-.66-.82,0-.29,.08-.53,.23-.7,.13-.16,.28-.23,.47-.23,.35,0,.53,.21,.53,.61v1.14s-.57,0-.57,0Z"/>
      <path class="cls-1" d="M200.28,33.05c.01,1,.02,1.56,.02,1.69,0,.3-.22,.47-.49,.47-.25,0-.44-.06-.59-.18-.16-.13-.24-.32-.25-.58,0-.54,0-.94,0-1.2h-.47c.01,.85,.02,1.35,.02,1.49,0,.31-.2,.47-.47,.47-.53,0-.79-.25-.81-.76v-1.2h-.47c0,.31,0,.58,0,.79v1.07h-1.99c-.05-1.31-.55-1.99-1.48-2.07-.31-.03-.64,.05-.97,.23-.47,.25-.84,.68-1.11,1.27l.05-3.05h-.47v3.62s-.6,0-.6,0l-.14,.45h7.17v-.31c.08,.13,.18,.23,.29,.29,.13,.07,.32,.1,.54,.1,.45,0,.73-.18,.86-.54,.1,.21,.23,.35,.38,.44,.13,.08,.32,.12,.55,.12,.53,0,.91-.36,.91-.9,0-.05,0-.61-.01-1.69h-.47Zm-8.97,2.05c.49-1.14,1.16-1.69,2-1.64,.42,.02,.72,.3,.88,.84,.08,.23,.12,.49,.12,.8h-3Z"/>
      <path class="cls-1" d="M202.85,33.04c-.27,0-.52,.09-.73,.27-.27,.23-.42,.57-.42,1.01,0,.34,.08,.63,.28,.87,.2,.24,.45,.36,.77,.36h.62c-.1,.32-.28,.58-.52,.77-.25,.2-.55,.29-.9,.29l.21,.43c.53-.05,.97-.27,1.29-.66s.49-.88,.49-1.47v-.79c0-.72-.36-1.08-1.07-1.08Zm.01,2.07c-.4,0-.66-.36-.66-.82,0-.29,.08-.53,.23-.7,.13-.16,.28-.23,.47-.23,.35,0,.53,.21,.53,.61v1.14s-.57,0-.57,0Z"/>
      <path class="cls-1" d="M204.52,30.7h1.1v-.21h-.25c-.19,0-.29-.1-.29-.3,0-.21,.07-.32,.21-.32,.07,0,.14,.04,.21,.12l.1-.15c-.08-.1-.18-.16-.31-.16-.25,0-.45,.21-.45,.48,0,.12,.04,.23,.12,.33h-.31l-.12,.21Z"/>
      <path class="cls-1" d="M206.23,31.12c.02,1.9,.03,2.9,.03,2.99,0,.36-.16,.64-.49,.81-.24,.12-.51,.18-.83,.18h-.3v.45h.33c.52,0,.95-.12,1.27-.37,.34-.25,.5-.58,.5-.97l-.04-3.09h-.47Z"/>
      <path class="cls-1" d="M204.98,34.76c.2,0,.36,0,.48-.1l-.04-3.55h-.47c.02,1.83,.03,3.05,.03,3.65Z"/>
      <polygon class="cls-1" points="207.63 31.12 207.67 35.55 208.14 35.55 208.1 31.12 207.63 31.12"/>
      <rect class="cls-1" x="212.28" y="31.97" width=".51" height=".53"/>
      <rect class="cls-1" x="213.12" y="31.97" width=".51" height=".53"/>
      <path class="cls-1" d="M214.02,34.12c0-.72-.36-1.08-1.07-1.08-.27,0-.51,.09-.72,.27-.27,.23-.41,.57-.43,1.01,0,.34,.08,.63,.28,.87,.2,.24,.45,.36,.76,.36h.66c-.2,.64-.72,1.05-1.4,1.05-.43,0-.79-.16-1.1-.49-.29-.33-.45-.73-.45-1.2v-.87h-.47v.87c0,.65,.19,1.17,.58,1.56,.37,.38,.84,.56,1.42,.56s1.05-.19,1.4-.58c.36-.39,.53-.9,.53-1.53v-.8Zm-1.06,.99c-.39,0-.67-.36-.65-.82,0-.29,.08-.53,.22-.7,.13-.16,.29-.23,.47-.23,.35,0,.53,.21,.53,.61,0,.72,.01,1.1,.01,1.14h-.59Z"/>
      <rect class="cls-1" x="219.38" y="31.97" width=".51" height=".53"/>
      <rect class="cls-1" x="219.79" y="31.23" width=".51" height=".53"/>
      <rect class="cls-1" x="220.21" y="31.97" width=".51" height=".53"/>
      <path class="cls-1" d="M224.64,31.12h-.47c0,.32,0,.91,.01,1.77,0,.74,.01,1.33,.01,1.76,0,.31-.2,.47-.47,.47h-1.06c-.13,0-.26-.05-.38-.17-.14-.14-.21-.31-.22-.53,0-.62-.01-1.07-.01-1.36h-.47c.01,1,.02,1.56,.02,1.69,0,.3-.22,.47-.49,.47-.25,0-.45-.06-.59-.18-.16-.13-.24-.32-.25-.58,0-.54,0-.94,0-1.2h-.47c.01,.85,.02,1.35,.02,1.49,0,.31-.2,.47-.47,.47-.53,0-.8-.25-.81-.76v-1.2h-.47c0,.31,0,.58,0,.79v1.07h-1.62c-.13,0-.25-.06-.38-.18-.14-.14-.21-.31-.21-.51v-1.36h-.48v1.93c0,.46-.13,.84-.4,1.15-.29,.32-.65,.47-1.1,.47,.09,.2,.16,.34,.21,.42,.5-.04,.91-.23,1.23-.58s.51-.79,.54-1.33c.16,.28,.37,.42,.64,.42h2.03v-.3c.08,.13,.18,.22,.29,.28,.13,.07,.31,.1,.54,.1,.45,0,.73-.18,.86-.54,.1,.21,.23,.35,.38,.44,.13,.08,.31,.12,.55,.12,.41,0,.76-.23,.87-.61,.14,.34,.37,.51,.68,.51h1.02c.6,0,.93-.34,.93-.89,0-.44,0-1.03-.01-1.77,0-.87-.01-1.46-.01-1.77Z"/>
      <polygon class="cls-1" points="225.56 31.12 225.59 35.55 226.07 35.55 226.03 31.12 225.56 31.12"/>
      <path class="cls-1" d="M236.66,33.95c-.23-.54-.64-.84-1.23-.9-.31-.03-.64,.05-1,.25-.42,.23-.75,.57-.99,1.01v-.61h-.43v1.41h-2.16c-.05-.66-.23-1.18-.51-1.55-.25-.34-.55-.51-.9-.51v.42c.23,0,.43,.15,.62,.46,.21,.33,.32,.72,.34,1.18h-1.87l-.14,.44h8.5c0-.69-.08-1.23-.23-1.6Zm-3.21,1.16v-.06c.49-1.12,1.15-1.64,1.98-1.59,.42,.03,.71,.31,.88,.85,.07,.23,.11,.49,.12,.8h-2.97Z"/>
      <path class="cls-1" d="M241.62,32.98c-.71,0-1.14,.49-1.14,1.29,0,.33,.1,.61,.28,.85h-1.42c-.13,0-.25-.06-.38-.18-.14-.14-.21-.31-.21-.51v-1.36h-.48v1.93c0,.46-.13,.84-.4,1.15-.29,.32-.65,.47-1.1,.47,.09,.2,.16,.34,.21,.42,.5-.04,.91-.23,1.23-.58s.51-.79,.54-1.33c.16,.28,.37,.42,.64,.42h2.29c.71,0,1.13-.49,1.13-1.29,0-.34-.1-.64-.3-.88-.23-.27-.52-.41-.88-.41Zm.52,1.96c-.12,.14-.27,.22-.46,.22s-.34-.08-.47-.22c-.14-.16-.22-.39-.22-.68s.07-.52,.2-.68c.12-.14,.27-.22,.46-.22s.34,.08,.47,.22c.14,.17,.22,.4,.22,.68s-.07,.52-.2,.68Z"/>
    </g>
  </g>
</svg>