<svg width="23" height="13" viewBox="0 0 23 13" fill="none" xmlns="http://www.w3.org/2000/svg">
<path d="M19.1175 6.78641C17.7336 6.78641 16.5751 7.69126 16.1889 8.9516H11.458L-0.256373 0H-5.59866V7.3681H-10.6191C-11.0053 6.10777 -12.1639 5.1706 -13.5799 5.1706C-15.2856 5.1706 -16.6694 6.56019 -16.6694 8.27295C-16.6694 9.98571 -15.2856 11.3753 -13.5799 11.3753C-12.1317 11.3753 -10.941 10.3735 -10.5869 9.04855H-3.89299V1.68044H-0.83566L10.8788 10.632H16.1245C16.4785 11.9893 17.6693 12.9588 19.1175 12.9588C20.8231 12.9588 22.207 11.5692 22.207 9.85645C22.207 8.17601 20.8231 6.78641 19.1175 6.78641ZM-13.5477 9.72718C-14.3201 9.72718 -14.9316 9.11318 -14.9316 8.33759C-14.9316 7.562 -14.3201 6.94799 -13.5477 6.94799C-12.7754 6.94799 -12.1639 7.562 -12.1639 8.33759C-12.1639 9.11318 -12.8075 9.72718 -13.5477 9.72718ZM19.1175 11.3107C18.3451 11.3107 17.7336 10.6967 17.7336 9.92108C17.7336 9.14549 18.3451 8.53149 19.1175 8.53149C19.8899 8.53149 20.5013 9.14549 20.5013 9.92108C20.5013 10.6967 19.8899 11.3107 19.1175 11.3107Z" fill="url(#paint0_linear_1276_53894)"/>
<defs>
<linearGradient id="paint0_linear_1276_53894" x1="2.76878" y1="0" x2="2.76878" y2="12.9588" gradientUnits="userSpaceOnUse">
<stop stop-color="#F4C465"/>
<stop offset="1" stop-color="#FD7702"/>
</linearGradient>
</defs>
</svg>
