<svg width="25" height="30" viewBox="0 0 25 30" fill="none" xmlns="http://www.w3.org/2000/svg">
<path d="M21.5836 12.3733C19.8705 12.3733 18.4807 13.7382 18.4807 15.4205C18.4807 16.2776 18.8362 17.0394 19.418 17.6107L13.9557 27.6728H-1.20326V10.5958L-22.7619 3.77134C-22.7619 3.73959 -22.7619 3.70785 -22.7619 3.67611C-22.7619 1.9938 -24.1517 0.628906 -25.8648 0.628906C-27.5778 0.628906 -29 1.9938 -29 3.67611C-29 5.35842 -27.6102 6.72332 -25.8971 6.72332C-24.8305 6.72332 -23.8608 6.18371 -23.3114 5.35842L-2.94864 11.802V29.3234H14.9576L20.9048 18.4043C21.1311 18.436 21.3573 18.4677 21.5836 18.4677C23.2967 18.4677 24.6865 17.1029 24.6865 15.4205C24.6865 13.7382 23.2967 12.3733 21.5836 12.3733ZM-25.8971 5.041C-26.6728 5.041 -27.2869 4.43791 -27.2869 3.67611C-27.2869 2.91431 -26.6728 2.31122 -25.8971 2.31122C-25.1214 2.31122 -24.5073 2.91431 -24.5073 3.67611C-24.5073 4.43791 -25.1214 5.041 -25.8971 5.041ZM21.5836 16.8172C20.8079 16.8172 20.1938 16.2141 20.1938 15.4523C20.1938 14.6905 20.8079 14.0874 21.5836 14.0874C22.3593 14.0874 22.9734 14.6905 22.9734 15.4523C22.9734 16.2141 22.3593 16.8172 21.5836 16.8172Z" fill="url(#paint0_linear_1276_53895)"/>
<defs>
<linearGradient id="paint0_linear_1276_53895" x1="-2.15675" y1="0.628906" x2="-2.15675" y2="29.3234" gradientUnits="userSpaceOnUse">
<stop stop-color="#F4C465"/>
<stop offset="1" stop-color="#FD7702"/>
</linearGradient>
</defs>
</svg>
