<svg width="26" height="22" viewBox="0 0 26 22" fill="none" xmlns="http://www.w3.org/2000/svg">
<path d="M13.1443 1.56431C12.5022 0.943553 11.6334 0.594377 10.6892 0.594377C8.68731 0.594377 7.06316 2.26266 7.06316 4.31892C7.06316 6.37517 8.68731 8.04346 10.6892 8.04346C12.691 8.04346 14.3152 6.37517 14.3152 4.31892C14.3152 3.96974 14.2396 3.62056 14.1641 3.31019L15.5994 2.41785H23.3424V12.9707L7.62972 28.1017H4.45697V21.3121C6.04334 20.9242 7.25201 19.4499 7.25201 17.704C7.25201 15.6477 5.62786 13.9794 3.62601 13.9794C1.62415 13.9794 0 15.6477 0 17.704C0 19.3723 1.05758 20.7302 2.49288 21.2345V30.1967H8.46068L25.382 13.9019V0.400391H15.0706L13.1443 1.56431ZM10.7269 6.026C9.82043 6.026 9.10278 5.28885 9.10278 4.35772C9.10278 3.42658 9.82043 2.68944 10.7269 2.68944C11.6334 2.68944 12.3511 3.42658 12.3511 4.35772C12.3511 5.28885 11.5957 6.026 10.7269 6.026ZM2.00186 17.704C2.00186 16.7728 2.7195 16.0357 3.62601 16.0357C4.53251 16.0357 5.25015 16.7728 5.25015 17.704C5.25015 18.6351 4.53251 19.3723 3.62601 19.3723C2.7195 19.3723 2.00186 18.6351 2.00186 17.704Z" fill="url(#paint0_linear_1276_53898)"/>
<defs>
<linearGradient id="paint0_linear_1276_53898" x1="12.691" y1="0.400391" x2="12.691" y2="30.1967" gradientUnits="userSpaceOnUse">
<stop stop-color="#F4C465"/>
<stop offset="1" stop-color="#FD7702"/>
</linearGradient>
</defs>
</svg>
