<svg width="50" height="41" viewBox="0 0 50 41" fill="none" xmlns="http://www.w3.org/2000/svg">
<path d="M49.3775 40.7287L43.8589 28.4727C44.5878 27.837 45.0737 26.9186 45.0737 25.8591C45.0737 23.9871 43.5812 22.4683 41.7417 22.4683C39.9021 22.4683 38.4097 23.9871 38.4097 25.8591C38.4097 26.1769 38.4791 26.4948 38.5485 26.8127L35.3206 28.7906C34.7306 28.2255 33.9323 27.8723 33.0299 27.8723C32.6828 27.8723 32.3704 27.9429 32.0581 28.0489L21.472 11.6604C21.9927 11.06 22.3397 10.2476 22.3397 9.39997C22.3397 7.52801 20.8473 6.00925 19.0077 6.00925C18.6606 6.00925 18.3483 6.07989 18.0359 6.18585L15.9534 3.11302H11.476C11.0595 1.70022 9.81002 0.640625 8.28285 0.640625C6.44331 0.640625 4.95084 2.15938 4.95084 4.03133C4.95084 5.58541 5.99209 6.89225 7.38042 7.28077V11.06L12.9685 14.5214V17.3116C11.5801 17.7355 10.5389 19.007 10.5389 20.5611C10.5389 22.433 12.0313 23.9518 13.8709 23.9518C15.7104 23.9518 17.2029 22.433 17.2029 20.5611C17.2029 19.007 16.1616 17.7001 14.7733 17.3116V13.4618L9.18526 10.0004V7.24545C10.2959 6.92757 11.1636 6.04457 11.476 4.91433H14.9816L16.474 7.13949C15.9534 7.73993 15.641 8.51697 15.641 9.36464C15.641 11.2366 17.1335 12.7554 18.973 12.7554C19.2854 12.7554 19.5978 12.6847 19.8754 12.6141L30.4962 29.0378C29.9756 29.6383 29.6632 30.4153 29.6632 31.263C29.6632 33.135 31.1556 34.6537 32.9952 34.6537C34.8347 34.6537 36.3272 33.135 36.3272 31.263C36.3272 30.9451 36.2925 30.6626 36.1884 30.38L39.4509 28.3668C40.041 28.8966 40.8046 29.2498 41.6723 29.2498C41.8111 29.2498 41.95 29.2144 42.1235 29.2144L46.9479 39.8457L44.9349 40.8347C44.3101 40.093 43.4077 39.5985 42.3664 39.5985C40.5269 39.5985 39.0344 41.1173 39.0344 42.9892C39.0344 43.1658 39.0692 43.3777 39.1039 43.5543L20.2919 52.2783L6.54743 26.9893C7.13748 26.3888 7.48454 25.5412 7.48454 24.6229C7.48454 22.7509 5.99209 21.2321 4.15255 21.2321C2.31301 21.2321 0.820557 22.7509 0.820557 24.6229C0.820557 26.4948 2.31301 28.0136 4.15255 28.0136C4.43022 28.0136 4.70789 27.9782 4.98556 27.9076L19.5283 54.7154L39.9022 45.2497C40.5269 45.9561 41.3946 46.4152 42.4012 46.4152C44.2407 46.4152 45.7331 44.8965 45.7331 43.0245C45.7331 42.8833 45.6985 42.742 45.6985 42.5654L49.3775 40.7287ZM15.3286 20.5611C15.3286 21.4087 14.6692 22.0798 13.8362 22.0798C13.0032 22.0798 12.3437 21.4087 12.3437 20.5611C12.3437 19.7134 13.0032 19.0423 13.8362 19.0423C14.6692 19.0423 15.3286 19.7487 15.3286 20.5611ZM8.24813 5.51478C7.41513 5.51478 6.75568 4.8437 6.75568 3.99602C6.75568 3.14834 7.41513 2.47726 8.24813 2.47726C9.08113 2.47726 9.74059 3.14834 9.74059 3.99602C9.74059 4.8437 9.08113 5.51478 8.24813 5.51478ZM17.4806 9.36464C17.4806 8.51697 18.14 7.84589 18.973 7.84589C19.806 7.84589 20.4655 8.51697 20.4655 9.36464C20.4655 10.2123 19.806 10.8834 18.973 10.8834C18.14 10.8834 17.4806 10.2123 17.4806 9.36464ZM32.9952 32.8171C32.1622 32.8171 31.5027 32.146 31.5027 31.2983C31.5027 30.4506 32.1622 29.7796 32.9952 29.7796C33.8282 29.7796 34.4877 30.4506 34.4877 31.2983C34.4877 32.1107 33.8282 32.8171 32.9952 32.8171ZM40.2145 25.8591C40.2145 25.0114 40.874 24.3403 41.707 24.3403C42.54 24.3403 43.1994 25.0114 43.1994 25.8591C43.1994 26.7067 42.54 27.3778 41.707 27.3778C40.874 27.3778 40.2145 26.7067 40.2145 25.8591ZM2.62537 24.6229C2.62537 23.7752 3.28485 23.1041 4.11785 23.1041C4.95085 23.1041 5.6103 23.7752 5.6103 24.6229C5.6103 25.4705 4.95085 26.1416 4.11785 26.1416C3.31956 26.1416 2.62537 25.4705 2.62537 24.6229ZM42.4012 44.508C41.5682 44.508 40.9087 43.8369 40.9087 42.9892C40.9087 42.1415 41.5682 41.4705 42.4012 41.4705C43.2342 41.4705 43.8936 42.1415 43.8936 42.9892C43.8936 43.8369 43.2342 44.508 42.4012 44.508Z" fill="url(#paint0_linear_1276_53897)"/>
<defs>
<linearGradient id="paint0_linear_1276_53897" x1="25.099" y1="0.640625" x2="25.099" y2="54.7154" gradientUnits="userSpaceOnUse">
<stop stop-color="#F4C465"/>
<stop offset="1" stop-color="#FD7702"/>
</linearGradient>
</defs>
</svg>
