<svg width="29" height="46" viewBox="0 0 29 46" fill="none" xmlns="http://www.w3.org/2000/svg">
<path d="M18.1058 39.5486C16.781 39.5486 15.6917 40.4718 15.3679 41.6928H8.59658L1.61922 38.0894V26.9514L7.09511 22.4843C7.53671 22.7821 8.06664 22.9608 8.62601 22.9608C10.1863 22.9608 11.4523 21.6803 11.4523 20.1019C11.4523 18.7915 10.5691 17.6897 9.39147 17.3621V14.0862L19.725 3.63323H43.4834C43.7483 4.58621 44.5138 5.33073 45.4559 5.59875V11.9122L80.5782 12.21C80.9609 13.3417 82.0207 14.1458 83.2572 14.1458C84.8176 14.1458 86.0835 12.8652 86.0835 11.2868C86.0835 9.70847 84.8176 8.42791 83.2572 8.42791C81.903 8.42791 80.7842 9.38089 80.4898 10.6317L47.0162 10.3636V5.59875C48.1644 5.24138 49.0181 4.16928 49.0181 2.85894C49.0181 1.28057 47.7522 0 46.1919 0C44.8965 0 43.8072 0.893418 43.4834 2.08464H19.0773L7.83112 13.4608V17.3621C6.65351 17.7194 5.7703 18.7915 5.7703 20.1019C5.7703 20.5486 5.85862 20.9358 6.03527 21.3229L0 26.2367V39.1019L8.18441 43.3308H15.3679C15.7211 44.4922 16.781 45.3558 18.0764 45.3558C19.6367 45.3558 20.9026 44.0753 20.9026 42.4969C20.9026 40.9185 19.6661 39.5486 18.1058 39.5486ZM83.2867 9.9765C83.9932 9.9765 84.5526 10.5423 84.5526 11.2571C84.5526 11.9718 83.9932 12.5376 83.2867 12.5376C82.5801 12.5376 82.0207 11.9718 82.0207 11.2571C81.9913 10.5721 82.5801 9.9765 83.2867 9.9765ZM46.2213 1.54859C46.9279 1.54859 47.4872 2.11442 47.4872 2.82916C47.4872 3.54389 46.9279 4.10972 46.2213 4.10972C45.5147 4.10972 44.9554 3.54389 44.9554 2.82916C44.9554 2.1442 45.5147 1.54859 46.2213 1.54859ZM8.62601 18.7915C9.33258 18.7915 9.89194 19.3574 9.89194 20.0721C9.89194 20.7868 9.33258 21.3527 8.62601 21.3527C7.91944 21.3527 7.36008 20.7868 7.36008 20.0721C7.36008 19.3574 7.94888 18.7915 8.62601 18.7915ZM18.1058 43.7179C17.3992 43.7179 16.8399 43.1521 16.8399 42.4373C16.8399 41.7226 17.3992 41.1568 18.1058 41.1568C18.8124 41.1568 19.3717 41.7226 19.3717 42.4373C19.3717 43.1521 18.8124 43.7179 18.1058 43.7179Z" fill="url(#paint0_linear_1276_53899)"/>
<defs>
<linearGradient id="paint0_linear_1276_53899" x1="43.0418" y1="0" x2="43.0418" y2="45.3558" gradientUnits="userSpaceOnUse">
<stop stop-color="#F4C465"/>
<stop offset="1" stop-color="#FD7702"/>
</linearGradient>
</defs>
</svg>
