<svg width="102" height="46" viewBox="0 0 102 46" fill="none" xmlns="http://www.w3.org/2000/svg">
<g clip-path="url(#clip0_5_8494)">
<path fill-rule="evenodd" clip-rule="evenodd" d="M101.184 47.1648C100.885 40.9787 95.8525 36.0472 89.668 36.0472C83.4835 36.0472 78.4501 40.9787 78.1517 47.1648H101.184Z" fill="#4F9934"/>
<path fill-rule="evenodd" clip-rule="evenodd" d="M41.3205 16.0909H63.5965V23.5531H41.3205V16.0909Z" fill="#1B65B0"/>
<path fill-rule="evenodd" clip-rule="evenodd" d="M47.2068 16.0909H57.5947V23.5531H47.2068V16.0909Z" fill="#2780C9"/>
<path fill-rule="evenodd" clip-rule="evenodd" d="M41.1474 16.0909H47.2649V23.5531H41.1474V16.0909Z" fill="#3B9DE0"/>
<path opacity="0.36" fill-rule="evenodd" clip-rule="evenodd" d="M41.1724 16.6671H63.6072V17.1428H41.1724V16.6671Z" fill="#71CCFF"/>
<path opacity="0.36" fill-rule="evenodd" clip-rule="evenodd" d="M41.1724 17.5757H63.6072V18.0517H41.1724V17.5757Z" fill="#71CCFF"/>
<path opacity="0.36" fill-rule="evenodd" clip-rule="evenodd" d="M41.1474 22.0842H63.5965V22.9068H41.1474V22.0842Z" fill="#71CCFF"/>
<path fill-rule="evenodd" clip-rule="evenodd" d="M51.1526 18.0521H53.6691V22.0752H51.1526V18.0521Z" fill="#71CCFF"/>
<path fill-rule="evenodd" clip-rule="evenodd" d="M51.6218 18.5272H53.2851V21.5555H51.6218V18.5272Z" fill="#3B9DE0"/>
<path fill-rule="evenodd" clip-rule="evenodd" d="M52.4324 18.6573L53.2425 20.0847L52.4324 21.5124L51.6218 20.0847L52.4324 18.6573Z" fill="#71CCFF"/>
<path fill-rule="evenodd" clip-rule="evenodd" d="M52.4328 19.3494L52.8598 20.0847L52.4328 20.7769L52.0058 20.0847L52.4328 19.3494Z" fill="#3B9DE0"/>
<path fill-rule="evenodd" clip-rule="evenodd" d="M52.4321 19.8246L52.5604 20.0842L52.4321 20.3438L52.2617 20.0842L52.4321 19.8246Z" fill="#FFDC48"/>
<path fill-rule="evenodd" clip-rule="evenodd" d="M44.5416 18.0521H47.058V22.0752H44.5416V18.0521Z" fill="#71CCFF"/>
<path fill-rule="evenodd" clip-rule="evenodd" d="M44.9682 18.5272H46.6315V21.5555H44.9682V18.5272Z" fill="#3B9DE0"/>
<path fill-rule="evenodd" clip-rule="evenodd" d="M45.7783 18.6573L46.6315 20.0847L45.7783 21.5124L44.9682 20.0847L45.7783 18.6573Z" fill="#71CCFF"/>
<path fill-rule="evenodd" clip-rule="evenodd" d="M45.7791 19.3494L46.2061 20.0847L45.7791 20.7769L45.3947 20.0847L45.7791 19.3494Z" fill="#3B9DE0"/>
<path fill-rule="evenodd" clip-rule="evenodd" d="M45.7793 19.8246L45.9498 20.0842L45.7793 20.3438L45.651 20.0842L45.7793 19.8246Z" fill="#FFDC48"/>
<path fill-rule="evenodd" clip-rule="evenodd" d="M57.8063 18.0521H60.3228V22.0752H57.8063V18.0521Z" fill="#71CCFF"/>
<path fill-rule="evenodd" clip-rule="evenodd" d="M58.2329 18.5272H59.8966V21.5555H58.2329V18.5272Z" fill="#3B9DE0"/>
<path fill-rule="evenodd" clip-rule="evenodd" d="M59.0435 18.6573L59.8966 20.0847L59.0435 21.5124L58.2329 20.085L59.0435 18.6573Z" fill="#71CCFF"/>
<path fill-rule="evenodd" clip-rule="evenodd" d="M59.0438 19.3494L59.4708 20.0847L59.0438 20.7769L58.6599 20.0847L59.0438 19.3494Z" fill="#3B9DE0"/>
<path fill-rule="evenodd" clip-rule="evenodd" d="M59.044 19.8246L59.2149 20.0842L59.044 20.3438L58.9162 20.0842L59.044 19.8246Z" fill="#FFDC48"/>
<path fill-rule="evenodd" clip-rule="evenodd" d="M54.4801 18.0521H56.9966V22.0752H54.4801V18.0521Z" fill="#3B9DE0"/>
<path fill-rule="evenodd" clip-rule="evenodd" d="M54.9058 18.5272H56.5691V21.5555H54.9058V18.5272Z" fill="#2780C9"/>
<path opacity="0.36" fill-rule="evenodd" clip-rule="evenodd" d="M55.759 18.6573L56.5691 20.0847L55.759 21.5124L54.9058 20.0847L55.759 18.6573Z" fill="#71CCFF"/>
<path fill-rule="evenodd" clip-rule="evenodd" d="M55.7603 19.3494L56.1442 20.0847L55.7603 20.7769L55.3333 20.0847L55.7603 19.3494Z" fill="#2780C9"/>
<path fill-rule="evenodd" clip-rule="evenodd" d="M55.7596 19.8246L55.8874 20.0842L55.7596 20.3438L55.5887 20.0842L55.7596 19.8246Z" fill="#FFDC48"/>
<path fill-rule="evenodd" clip-rule="evenodd" d="M47.8686 18.0521H50.3851V22.0752H47.8686V18.0521Z" fill="#3B9DE0"/>
<path fill-rule="evenodd" clip-rule="evenodd" d="M48.2952 18.5272H49.9589V21.5555H48.2952V18.5272Z" fill="#2780C9"/>
<path opacity="0.36" fill-rule="evenodd" clip-rule="evenodd" d="M49.1058 18.6573L49.9589 20.0847L49.1058 21.5124L48.2952 20.085L49.1058 18.6573Z" fill="#71CCFF"/>
<path fill-rule="evenodd" clip-rule="evenodd" d="M49.1061 19.3494L49.5331 20.0847L49.1061 20.7769L48.7222 20.0847L49.1061 19.3494Z" fill="#2780C9"/>
<path fill-rule="evenodd" clip-rule="evenodd" d="M49.1055 19.8246L49.2764 20.0842L49.1055 20.3438L48.9776 20.0842L49.1055 19.8246Z" fill="#FFDC48"/>
<path fill-rule="evenodd" clip-rule="evenodd" d="M41.5138 18.0521H44.0302V22.0752H41.5138V18.0521Z" fill="#71CCFF"/>
<path fill-rule="evenodd" clip-rule="evenodd" d="M41.9398 18.5272H43.6033V21.5555H41.9398V18.5272Z" fill="#2780C9"/>
<path fill-rule="evenodd" clip-rule="evenodd" d="M42.75 18.6573L43.6033 20.0847L42.75 21.5124L41.9398 20.085L42.75 18.6573Z" fill="#71CCFF"/>
<path fill-rule="evenodd" clip-rule="evenodd" d="M42.7508 19.3494L43.1775 20.0847L42.7508 20.7769L42.3239 20.085L42.7508 19.3494Z" fill="#2780C9"/>
<path fill-rule="evenodd" clip-rule="evenodd" d="M42.7508 19.8246L42.9215 20.0842L42.7508 20.3438L42.6227 20.0842L42.7508 19.8246Z" fill="#FFDC48"/>
<path fill-rule="evenodd" clip-rule="evenodd" d="M60.8349 18.0521H63.3514V22.0752H60.8349V18.0521Z" fill="#3B9DE0"/>
<path fill-rule="evenodd" clip-rule="evenodd" d="M61.2615 18.5272H62.9248V21.5555H61.2615V18.5272Z" fill="#2780C9"/>
<path opacity="0.36" fill-rule="evenodd" clip-rule="evenodd" d="M62.1142 18.6573L62.9248 20.0847L62.1142 21.5124L61.2615 20.0847L62.1142 18.6573Z" fill="#71CCFF"/>
<path fill-rule="evenodd" clip-rule="evenodd" d="M62.1151 19.3494L62.4994 20.0847L62.1151 20.7769L61.6881 20.0847L62.1151 19.3494Z" fill="#2780C9"/>
<path fill-rule="evenodd" clip-rule="evenodd" d="M62.1144 19.8246L62.2427 20.0842L62.1144 20.3438L61.9435 20.0842L62.1144 19.8246Z" fill="#FFDC48"/>
<path opacity="0.1" fill-rule="evenodd" clip-rule="evenodd" d="M41.1474 16.0909H47.2649V23.5531H41.1474V16.0909Z" fill="white"/>
<path opacity="0.15" fill-rule="evenodd" clip-rule="evenodd" d="M57.6524 16.0909H63.5965V23.5531H57.6524V16.0909Z" fill="black"/>
<path opacity="0.15" fill-rule="evenodd" clip-rule="evenodd" d="M41.1474 16.0909H63.5389V16.8548H41.1474V16.0909Z" fill="black"/>
<path opacity="0.15" fill-rule="evenodd" clip-rule="evenodd" d="M41.1474 16.0909H63.5389V17.2074H41.1474V16.0909Z" fill="black"/>
<path fill-rule="evenodd" clip-rule="evenodd" d="M39.3805 23.5889H47.2283V24.5837H39.3805V23.5889Z" fill="#3B9DE0"/>
<path fill-rule="evenodd" clip-rule="evenodd" d="M57.636 23.5889H65.4838V24.5837H57.636V23.5889Z" fill="#1B65B0"/>
<path fill-rule="evenodd" clip-rule="evenodd" d="M47.2292 23.5889H57.5934V24.5837H47.2292V23.5889Z" fill="#2780C9"/>
<path fill-rule="evenodd" clip-rule="evenodd" d="M70.9863 26.2273H33.8792L39.0826 24.5834H65.7827L70.9863 26.2273Z" fill="#6D8EA5"/>
<path opacity="0.15" fill-rule="evenodd" clip-rule="evenodd" d="M70.9863 26.2273H52.4324V24.5834H65.9534L70.9863 26.2273Z" fill="black"/>
<path fill-rule="evenodd" clip-rule="evenodd" d="M25.0462 26.0798H86.1612V38.8889H25.0462V26.0798Z" fill="#1B65B0"/>
<path fill-rule="evenodd" clip-rule="evenodd" d="M38.6081 26.0798H66.4823V38.8889H38.6081V26.0798Z" fill="#2780C9"/>
<path fill-rule="evenodd" clip-rule="evenodd" d="M18.7558 26.0798H38.6081V38.8889H18.7558V26.0798Z" fill="#3B9DE0"/>
<path opacity="0.36" fill-rule="evenodd" clip-rule="evenodd" d="M18.7558 27.1373H86.1612V28.0774H18.7558V27.1373Z" fill="#71CCFF"/>
<path opacity="0.36" fill-rule="evenodd" clip-rule="evenodd" d="M18.7558 28.4888H86.1612V30.1928H18.7558V28.4888Z" fill="#71CCFF"/>
<path fill-rule="evenodd" clip-rule="evenodd" d="M18.7558 29.0764H86.1612V29.5465H18.7558V29.0764Z" fill="#DDBA28"/>
<path opacity="0.36" fill-rule="evenodd" clip-rule="evenodd" d="M18.7558 36.8911H86.1612V38.4776H18.7558V36.8911Z" fill="#71CCFF"/>
<path opacity="0.15" fill-rule="evenodd" clip-rule="evenodd" d="M18.7558 26.0798H86.1036V27.6075H18.7558V26.0798Z" fill="black"/>
<path opacity="0.15" fill-rule="evenodd" clip-rule="evenodd" d="M18.7558 26.0798H86.1036V28.1363H18.7558V26.0798Z" fill="black"/>
<path fill-rule="evenodd" clip-rule="evenodd" d="M63.3939 15.4995C63.5216 14.8504 63.5642 14.1583 63.5642 13.4661C63.5642 7.23687 58.5743 1.05072 52.4324 1.05072C46.2904 1.05072 41.3002 7.23687 41.3002 13.4661C41.3002 14.1583 41.3855 14.8504 41.4707 15.4995H63.3939Z" fill="#F9D026"/>
<path fill-rule="evenodd" clip-rule="evenodd" d="M65.4834 15.4993H39.3805L41.3425 14.2444H63.5642L65.4834 15.4993Z" fill="#F9D026"/>
<path fill-rule="evenodd" clip-rule="evenodd" d="M39.3584 15.5034H65.501V16.091H39.3584V15.5034Z" fill="#FFDC48"/>
<path opacity="0.05" fill-rule="evenodd" clip-rule="evenodd" d="M63.6077 13.4661C63.6077 7.62609 59.2572 1.87239 53.6695 1.13727V0.66126H52.7313V0.574745C52.73 0.513809 52.7138 0.45416 52.6841 0.401274C52.6543 0.348388 52.612 0.303961 52.561 0.272073V-0.247063C52.6887 -0.290495 52.7313 -0.420093 52.7313 -0.550041C52.73 -0.610978 52.7138 -0.670629 52.6841 -0.723516C52.6543 -0.776402 52.612 -0.820828 52.561 -0.852713V-1.37185C52.6887 -1.41528 52.7313 -1.54488 52.7313 -1.67483C52.73 -1.73575 52.7138 -1.79539 52.684 -1.84827C52.6543 -1.90115 52.612 -1.94558 52.561 -1.9775V-2.53972C52.6887 -2.58315 52.7313 -2.71275 52.7313 -2.8427C52.7297 -2.9229 52.6994 -2.99976 52.6461 -3.05885C52.902 -3.14537 53.0301 -3.40474 53.0301 -3.6645C53.0311 -3.75594 53.0141 -3.84665 52.9801 -3.93128C52.946 -4.01591 52.8957 -4.09274 52.8321 -4.15726C52.7684 -4.22177 52.6928 -4.27265 52.6095 -4.3069C52.5262 -4.34115 52.437 -4.35807 52.3472 -4.35667H52.3047V-4.09712H52.3472C52.4601 -4.09718 52.5684 -4.05168 52.6483 -3.97058C52.7283 -3.88948 52.7734 -3.77942 52.7738 -3.6645C52.7738 -3.40496 52.6035 -3.23188 52.3472 -3.23188H52.3047V16.1483H65.4417V15.5426L63.5221 14.2882C63.5651 13.9853 63.6077 13.7691 63.6077 13.4661Z" fill="black"/>
<path opacity="0.36" fill-rule="evenodd" clip-rule="evenodd" d="M38.6081 30.8978H66.4823V36.5387H38.6081V30.8978Z" fill="#71CCFF"/>
<path opacity="0.36" fill-rule="evenodd" clip-rule="evenodd" d="M42.409 30.8997H43.6033V36.5667H42.409V30.8997Z" fill="#71CCFF"/>
<path opacity="0.36" fill-rule="evenodd" clip-rule="evenodd" d="M38.741 30.8997H39.9353V36.5667H38.741V30.8997Z" fill="#71CCFF"/>
<path opacity="0.36" fill-rule="evenodd" clip-rule="evenodd" d="M45.949 30.8997H47.1432V36.5667H45.949V30.8997Z" fill="#71CCFF"/>
<path opacity="0.36" fill-rule="evenodd" clip-rule="evenodd" d="M49.5745 30.8997H50.7687V36.5667H49.5745V30.8997Z" fill="#71CCFF"/>
<path opacity="0.36" fill-rule="evenodd" clip-rule="evenodd" d="M54.2238 30.8997H55.418V36.5667H54.2238V30.8997Z" fill="#71CCFF"/>
<path opacity="0.36" fill-rule="evenodd" clip-rule="evenodd" d="M57.8914 30.8997H59.0856V36.5667H57.8914V30.8997Z" fill="#71CCFF"/>
<path opacity="0.36" fill-rule="evenodd" clip-rule="evenodd" d="M61.3892 30.8997H62.5834V36.5667H61.3892V30.8997Z" fill="#71CCFF"/>
<path opacity="0.36" fill-rule="evenodd" clip-rule="evenodd" d="M65.0573 30.8997H66.2514V36.5667H65.0573V30.8997Z" fill="#71CCFF"/>
<path fill-rule="evenodd" clip-rule="evenodd" d="M41.1721 31.3751C40.9465 31.3754 40.7302 31.4665 40.5703 31.6286C40.4105 31.7907 40.3202 32.0107 40.319 32.2404V36.6095H41.9826V32.1972C42.0252 31.7646 41.6413 31.3751 41.1721 31.3751Z" fill="#1B65B0"/>
<path opacity="0.1" fill-rule="evenodd" clip-rule="evenodd" d="M40.8309 32.6729C40.832 32.4432 40.9223 32.2233 41.0821 32.0612C41.242 31.8991 41.4583 31.8079 41.6839 31.8077C41.8118 31.8077 41.8971 31.8509 41.9824 31.8509C41.9178 31.6978 41.8108 31.5672 41.6744 31.475C41.5381 31.3828 41.3784 31.333 41.2147 31.3317C40.9892 31.332 40.7728 31.4231 40.613 31.5852C40.4532 31.7473 40.3628 31.9672 40.3617 32.1969V36.5661H40.8309V32.6729Z" fill="black"/>
<path fill-rule="evenodd" clip-rule="evenodd" d="M44.7549 31.3751C44.5292 31.3754 44.3129 31.4665 44.1531 31.6286C43.9932 31.7907 43.9028 32.0107 43.9017 32.2404V36.6095H45.5654V32.1972C45.608 31.7646 45.224 31.3751 44.7549 31.3751Z" fill="#1B65B0"/>
<path fill-rule="evenodd" clip-rule="evenodd" d="M48.3803 31.3751C48.1547 31.3754 47.9384 31.4665 47.7785 31.6286C47.6187 31.7907 47.5283 32.0107 47.5272 32.2404V36.6095H49.1905V32.1972C49.1904 32.0891 49.1693 31.982 49.1285 31.8821C49.0877 31.7823 49.028 31.6916 48.9528 31.6152C48.8775 31.5389 48.7882 31.4784 48.69 31.4372C48.5918 31.396 48.4866 31.3749 48.3803 31.3751Z" fill="#1B65B0"/>
<path fill-rule="evenodd" clip-rule="evenodd" d="M52.518 31.3751C51.5797 31.3751 50.8547 31.7648 50.8547 32.2404V36.6095H54.2238V32.1972C54.2238 31.7646 53.4563 31.3751 52.518 31.3751Z" fill="#1B65B0"/>
<path opacity="0.1" fill-rule="evenodd" clip-rule="evenodd" d="M51.3238 32.6729C51.3238 32.1969 52.0914 31.8077 52.9871 31.8077C53.4563 31.8077 53.8828 31.8943 54.1813 32.0673C54.0536 31.6776 53.3711 31.3317 52.518 31.3317C51.5797 31.3317 50.8547 31.7214 50.8547 32.1969V36.5661H51.3238V32.6729Z" fill="black"/>
<path fill-rule="evenodd" clip-rule="evenodd" d="M63.8627 31.3751C63.6371 31.3754 63.4208 31.4666 63.261 31.6287C63.1013 31.7908 63.011 32.0107 63.0099 32.2404V36.6095H64.6733V32.1972C64.6733 31.7646 64.2892 31.3751 63.8627 31.3751Z" fill="#1B65B0"/>
<path fill-rule="evenodd" clip-rule="evenodd" d="M60.2376 31.3751C60.012 31.3754 59.7957 31.4665 59.6358 31.6286C59.476 31.7907 59.3856 32.0107 59.3845 32.2404V36.6095H61.0478V32.1972C61.0904 31.7646 60.7068 31.3751 60.2376 31.3751Z" fill="#1B65B0"/>
<path fill-rule="evenodd" clip-rule="evenodd" d="M56.6547 31.3751C56.4291 31.3754 56.2128 31.4665 56.0529 31.6286C55.8931 31.7907 55.8027 32.0107 55.8016 32.2404V36.6095H57.4653V32.1972C57.5079 31.7646 57.1239 31.3751 56.6547 31.3751Z" fill="#1B65B0"/>
<path opacity="0.36" fill-rule="evenodd" clip-rule="evenodd" d="M18.7558 30.8978H38.5504V36.5387H18.7558V30.8978Z" fill="#71CCFF"/>
<path opacity="0.36" fill-rule="evenodd" clip-rule="evenodd" d="M21.4675 30.8997H22.3214V36.5667H21.4675V30.8997Z" fill="#71CCFF"/>
<path opacity="0.36" fill-rule="evenodd" clip-rule="evenodd" d="M18.9084 30.8997H19.7621V36.5667H18.9084V30.8997Z" fill="#71CCFF"/>
<path opacity="0.36" fill-rule="evenodd" clip-rule="evenodd" d="M24.0266 30.8997H24.8804V36.5667H24.0266V30.8997Z" fill="#71CCFF"/>
<path opacity="0.36" fill-rule="evenodd" clip-rule="evenodd" d="M26.585 30.8997H27.4387V36.5667H26.585V30.8997Z" fill="#71CCFF"/>
<path opacity="0.36" fill-rule="evenodd" clip-rule="evenodd" d="M29.8695 30.8997H30.7235V36.5667H29.8695V30.8997Z" fill="#71CCFF"/>
<path opacity="0.36" fill-rule="evenodd" clip-rule="evenodd" d="M32.4713 30.8997H33.3252V36.5667H32.4713V30.8997Z" fill="#71CCFF"/>
<path opacity="0.36" fill-rule="evenodd" clip-rule="evenodd" d="M34.9454 30.8997H35.7991V36.5667H34.9454V30.8997Z" fill="#71CCFF"/>
<path opacity="0.36" fill-rule="evenodd" clip-rule="evenodd" d="M37.5471 30.8997H38.4008V36.5667H37.5471V30.8997Z" fill="#71CCFF"/>
<path fill-rule="evenodd" clip-rule="evenodd" d="M20.6142 31.3751C20.2732 31.3751 20.0172 31.7648 20.0172 32.2404V36.6095H21.2113V32.1972C21.2113 31.7646 20.9555 31.3751 20.6142 31.3751Z" fill="#1B65B0"/>
<path opacity="0.1" fill-rule="evenodd" clip-rule="evenodd" d="M20.4867 32.6729C20.4867 32.1969 20.7428 31.8077 21.0844 31.8077H21.1698C21.0844 31.5048 20.8708 31.3317 20.6576 31.3317C20.316 31.3317 20.0599 31.7214 20.0599 32.1969V36.5661H20.5295V32.6729H20.4867Z" fill="black"/>
<path fill-rule="evenodd" clip-rule="evenodd" d="M23.1736 31.3751C22.8323 31.3751 22.5764 31.7648 22.5764 32.2404V36.6095H23.7707V32.1972C23.7706 31.7646 23.5146 31.3751 23.1736 31.3751Z" fill="#1B65B0"/>
<path fill-rule="evenodd" clip-rule="evenodd" d="M25.7326 31.3751C25.3913 31.3751 25.1354 31.7648 25.1354 32.2404V36.6095H26.3296V32.1972C26.2869 31.7646 26.0312 31.3751 25.7326 31.3751Z" fill="#1B65B0"/>
<path fill-rule="evenodd" clip-rule="evenodd" d="M28.6751 31.3751C28.0353 31.3751 27.4809 31.7648 27.4809 32.2404V36.6095H29.8694V32.1972C29.8694 31.7646 29.3148 31.3751 28.6751 31.3751Z" fill="#1B65B0"/>
<path opacity="0.1" fill-rule="evenodd" clip-rule="evenodd" d="M27.9501 32.6729C27.9501 32.1972 28.5045 31.8077 29.1442 31.8077C29.4002 31.8077 29.6134 31.8511 29.8268 31.9808C29.6987 31.6349 29.2295 31.3751 28.6751 31.3751C28.0353 31.3751 27.4809 31.7648 27.4809 32.2404V36.6095H27.9501V32.6729Z" fill="black"/>
<path fill-rule="evenodd" clip-rule="evenodd" d="M36.6939 31.3751C36.3526 31.3751 36.0968 31.7648 36.0968 32.2404V36.6095H37.2911V32.1972C37.2911 31.7646 37.0351 31.3751 36.6939 31.3751Z" fill="#1B65B0"/>
<path fill-rule="evenodd" clip-rule="evenodd" d="M34.1347 31.3751C33.7935 31.3751 33.5375 31.7648 33.5375 32.2404V36.6095H34.7318V32.1972C34.7319 31.7646 34.4759 31.3751 34.1347 31.3751Z" fill="#1B65B0"/>
<path fill-rule="evenodd" clip-rule="evenodd" d="M31.5755 31.3751C31.2343 31.3751 30.9785 31.7648 30.9785 32.2404V36.6095H32.1727V32.1972C32.1727 31.7646 31.9168 31.3751 31.5755 31.3751Z" fill="#1B65B0"/>
<path opacity="0.36" fill-rule="evenodd" clip-rule="evenodd" d="M66.4243 30.8978H86.1612V36.5387H66.4243V30.8978Z" fill="#71CCFF"/>
<path opacity="0.36" fill-rule="evenodd" clip-rule="evenodd" d="M69.1519 30.8997H70.0058V36.5667H69.1519V30.8997Z" fill="#71CCFF"/>
<path opacity="0.36" fill-rule="evenodd" clip-rule="evenodd" d="M66.5498 30.8997H67.4038V36.5667H66.5498V30.8997Z" fill="#71CCFF"/>
<path opacity="0.36" fill-rule="evenodd" clip-rule="evenodd" d="M71.6683 30.8997H72.5219V36.5667H71.6683V30.8997Z" fill="#71CCFF"/>
<path opacity="0.36" fill-rule="evenodd" clip-rule="evenodd" d="M74.2274 30.8997H75.0813V36.5667H74.2274V30.8997Z" fill="#71CCFF"/>
<path opacity="0.36" fill-rule="evenodd" clip-rule="evenodd" d="M77.5114 30.8997H78.3654V36.5667H77.5114V30.8997Z" fill="#71CCFF"/>
<path opacity="0.36" fill-rule="evenodd" clip-rule="evenodd" d="M80.113 30.8997H80.967V36.5667H80.113V30.8997Z" fill="#71CCFF"/>
<path opacity="0.36" fill-rule="evenodd" clip-rule="evenodd" d="M82.5869 30.8997H83.4409V36.5667H82.5869V30.8997Z" fill="#71CCFF"/>
<path opacity="0.36" fill-rule="evenodd" clip-rule="evenodd" d="M85.2315 30.8997H86.0851V36.5667H85.2315V30.8997Z" fill="#71CCFF"/>
<path fill-rule="evenodd" clip-rule="evenodd" d="M68.257 31.3751C67.9156 31.3751 67.6597 31.7648 67.6597 32.2404V36.6095H68.8539V32.1972C68.8539 31.7646 68.598 31.3751 68.257 31.3751Z" fill="#1B65B0"/>
<path fill-rule="evenodd" clip-rule="evenodd" d="M70.8152 31.3751C70.4738 31.3751 70.2179 31.7648 70.2179 32.2404V36.6095H71.4121V32.1972C71.4121 31.7646 71.1562 31.3751 70.8152 31.3751Z" fill="#1B65B0"/>
<path fill-rule="evenodd" clip-rule="evenodd" d="M73.3742 31.3751C73.0332 31.3751 72.7769 31.7648 72.7769 32.2404V36.6095H73.9715V32.1972C73.9715 31.7646 73.6726 31.3751 73.3742 31.3751Z" fill="#1B65B0"/>
<path fill-rule="evenodd" clip-rule="evenodd" d="M76.3177 31.3751C75.6778 31.3751 75.1231 31.7648 75.1231 32.2404V36.6095H77.5118V32.1972C77.5118 31.7646 76.9575 31.3751 76.3177 31.3751Z" fill="#1B65B0"/>
<path fill-rule="evenodd" clip-rule="evenodd" d="M84.3362 31.3751C83.9952 31.3751 83.7393 31.7648 83.7393 32.2404V36.6095H84.9335V32.1972C84.9335 31.7646 84.6776 31.3751 84.3362 31.3751Z" fill="#1B65B0"/>
<path fill-rule="evenodd" clip-rule="evenodd" d="M81.7772 31.3751C81.4357 31.3751 81.1803 31.7648 81.1803 32.2404V36.6095H82.3745V32.1972C82.3745 31.7646 82.1186 31.3751 81.7772 31.3751Z" fill="#1B65B0"/>
<path fill-rule="evenodd" clip-rule="evenodd" d="M79.2607 31.3751C78.9197 31.3751 78.6634 31.7648 78.6634 32.2404V36.6095H79.8576V32.1972C79.8576 31.7646 79.5591 31.3751 79.2607 31.3751Z" fill="#1B65B0"/>
<path fill-rule="evenodd" clip-rule="evenodd" d="M39.3805 30.1635H52.1761V30.8991H39.3805V30.1635Z" fill="#F9D026"/>
<path fill-rule="evenodd" clip-rule="evenodd" d="M39.7493 30.2011V36.6037H39.0236V30.2011H39.7493Z" fill="#F9D026"/>
<path fill-rule="evenodd" clip-rule="evenodd" d="M66.0027 30.1782V36.5808H65.277V30.1782H66.0027Z" fill="#F9D026"/>
<path fill-rule="evenodd" clip-rule="evenodd" d="M62.4224 31.1526V36.56H61.6967V31.1528H62.4224V31.1526Z" fill="#F9D026"/>
<path fill-rule="evenodd" clip-rule="evenodd" d="M58.8309 31.1624V36.5698H58.1052V31.1626H58.8309V31.1624Z" fill="#F9D026"/>
<path fill-rule="evenodd" clip-rule="evenodd" d="M55.2376 31.1724V36.5796H54.5115V31.1724H55.2376Z" fill="#F9D026"/>
<path fill-rule="evenodd" clip-rule="evenodd" d="M50.5393 31.1788V36.5863H49.8136V31.1788H50.5393Z" fill="#F9D026"/>
<path fill-rule="evenodd" clip-rule="evenodd" d="M46.9469 31.1452V36.5526H46.2212V31.1454H46.9469V31.1452Z" fill="#F9D026"/>
<path fill-rule="evenodd" clip-rule="evenodd" d="M43.3546 31.155V36.5625H42.6288V31.1552H43.3546V31.155Z" fill="#F9D026"/>
<path fill-rule="evenodd" clip-rule="evenodd" d="M52.902 30.1635H65.6975V30.8991H52.902V30.1635Z" fill="#F9D026"/>
<path fill-rule="evenodd" clip-rule="evenodd" d="M18.7558 38.8889H86.1612V46.8211H18.7558V38.8889Z" fill="#D29E62"/>
<path fill-rule="evenodd" clip-rule="evenodd" d="M38.6132 38.903H40.362V46.8198H38.6132V38.903Z" fill="#E2AB74"/>
<path fill-rule="evenodd" clip-rule="evenodd" d="M42.111 38.903H43.8596V46.7765H42.111V38.903Z" fill="#E2AB74"/>
<path fill-rule="evenodd" clip-rule="evenodd" d="M45.6927 38.903H47.4416V46.8198H45.6927V38.903Z" fill="#E2AB74"/>
<path fill-rule="evenodd" clip-rule="evenodd" d="M49.1053 38.903H50.8538V46.8198H49.1053V38.903Z" fill="#E2AB74"/>
<path fill-rule="evenodd" clip-rule="evenodd" d="M54.0957 38.903H55.8446V46.8198H54.0957V38.903Z" fill="#E2AB74"/>
<path fill-rule="evenodd" clip-rule="evenodd" d="M57.5934 38.903H59.3423V46.8198H57.5934V38.903Z" fill="#E2AB74"/>
<path fill-rule="evenodd" clip-rule="evenodd" d="M61.1338 38.903H62.8822V46.8198H61.1338V38.903Z" fill="#E2AB74"/>
<path fill-rule="evenodd" clip-rule="evenodd" d="M64.6737 38.903H66.4226V46.8198H64.6737V38.903Z" fill="#E2AB74"/>
<path fill-rule="evenodd" clip-rule="evenodd" d="M40.6606 40.0703H41.7706V45.6079H40.6606V40.0703Z" fill="#E2AB74"/>
<path fill-rule="evenodd" clip-rule="evenodd" d="M44.2861 40.0703H45.3958V45.6079H44.2861V40.0703Z" fill="#E2AB74"/>
<path fill-rule="evenodd" clip-rule="evenodd" d="M47.6983 40.114H48.8084V45.6513H47.6983V40.114Z" fill="#E2AB74"/>
<path fill-rule="evenodd" clip-rule="evenodd" d="M19.249 30.1635H28.3338V30.8991H19.249V30.1635Z" fill="#F9D026"/>
<path fill-rule="evenodd" clip-rule="evenodd" d="M19.5356 30.1981V36.6004H19.0234V30.1981H19.5356Z" fill="#F9D026"/>
<path fill-rule="evenodd" clip-rule="evenodd" d="M27.1631 31.1822V36.5896H26.6508V31.1824H27.1631V31.1822Z" fill="#F9D026"/>
<path fill-rule="evenodd" clip-rule="evenodd" d="M24.6104 31.1755V36.5829H24.0981V31.1755H24.6104Z" fill="#F9D026"/>
<path fill-rule="evenodd" clip-rule="evenodd" d="M22.0578 31.1691V36.5765H21.5456V31.1691H22.0578Z" fill="#F9D026"/>
<path fill-rule="evenodd" clip-rule="evenodd" d="M18.6945 38.903H19.9315V46.8198H18.6945V38.903Z" fill="#E2AB74"/>
<path fill-rule="evenodd" clip-rule="evenodd" d="M21.2112 38.8588H22.448V46.7751H21.2112V38.8588Z" fill="#E2AB74"/>
<path fill-rule="evenodd" clip-rule="evenodd" d="M23.7278 38.903H24.9646V46.8198H23.7278V38.903Z" fill="#E2AB74"/>
<path fill-rule="evenodd" clip-rule="evenodd" d="M26.1591 38.903H27.3959V46.8198H26.1591V38.903Z" fill="#E2AB74"/>
<path fill-rule="evenodd" clip-rule="evenodd" d="M20.1875 40.0703H20.9559V45.6079H20.1875V40.0703Z" fill="#E2AB74"/>
<path fill-rule="evenodd" clip-rule="evenodd" d="M22.7466 40.0703H23.5151V45.6079H22.7466V40.0703Z" fill="#E2AB74"/>
<path fill-rule="evenodd" clip-rule="evenodd" d="M25.1779 40.114H25.9465V45.6513H25.1779V40.114Z" fill="#E2AB74"/>
<path fill-rule="evenodd" clip-rule="evenodd" d="M85.6292 30.8851H76.5443V30.1498H85.6292V30.8851Z" fill="#F9D026"/>
<path fill-rule="evenodd" clip-rule="evenodd" d="M85.8762 30.1376V36.5399H85.364V30.1376H85.8762Z" fill="#F9D026"/>
<path fill-rule="evenodd" clip-rule="evenodd" d="M78.1883 31.1247V36.5322H77.6761V31.1247H78.1883Z" fill="#F9D026"/>
<path fill-rule="evenodd" clip-rule="evenodd" d="M80.7409 31.1321V36.5395H80.2287V31.1323H80.7409V31.1321Z" fill="#F9D026"/>
<path fill-rule="evenodd" clip-rule="evenodd" d="M83.2939 31.1379V36.5453H82.7817V31.1379H83.2939Z" fill="#F9D026"/>
<path fill-rule="evenodd" clip-rule="evenodd" d="M86.141 46.8584H84.9038V38.9417H86.141V46.8584Z" fill="#E2AB74"/>
<path fill-rule="evenodd" clip-rule="evenodd" d="M83.6516 46.8584H82.4149V38.9417H83.6516V46.8584Z" fill="#E2AB74"/>
<path fill-rule="evenodd" clip-rule="evenodd" d="M81.136 46.8584H79.8989V38.9417H81.136V46.8584Z" fill="#E2AB74"/>
<path fill-rule="evenodd" clip-rule="evenodd" d="M78.6815 46.8584H77.4443V38.9417H78.6815V46.8584Z" fill="#E2AB74"/>
<path fill-rule="evenodd" clip-rule="evenodd" d="M84.7059 45.5598H83.9371V40.0225H84.7059V45.5598Z" fill="#E2AB74"/>
<path fill-rule="evenodd" clip-rule="evenodd" d="M82.1593 45.5598H81.391V40.0225H82.1593V45.5598Z" fill="#E2AB74"/>
<path fill-rule="evenodd" clip-rule="evenodd" d="M79.6953 45.604H78.9266V40.0667H79.6953V45.604Z" fill="#E2AB74"/>
<path fill-rule="evenodd" clip-rule="evenodd" d="M67.062 30.121H76.147V30.8566H67.062V30.121Z" fill="#F9D026"/>
<path fill-rule="evenodd" clip-rule="evenodd" d="M67.3235 30.1367V36.5389H66.8113V30.1367H67.3235Z" fill="#F9D026"/>
<path fill-rule="evenodd" clip-rule="evenodd" d="M74.952 31.1208V36.5282H74.4394V31.121H74.952V31.1208Z" fill="#F9D026"/>
<path fill-rule="evenodd" clip-rule="evenodd" d="M72.3986 31.1143V36.5217H71.8859V31.1143H72.3986Z" fill="#F9D026"/>
<path fill-rule="evenodd" clip-rule="evenodd" d="M69.8464 31.1076V36.515H69.3342V31.1078H69.8464V31.1076Z" fill="#F9D026"/>
<path fill-rule="evenodd" clip-rule="evenodd" d="M66.4647 38.903H67.7019V46.8198H66.4647V38.903Z" fill="#E2AB74"/>
<path fill-rule="evenodd" clip-rule="evenodd" d="M68.9811 38.903H70.2183V46.8198H68.9811V38.903Z" fill="#E2AB74"/>
<path fill-rule="evenodd" clip-rule="evenodd" d="M71.498 38.903H72.7348V46.8198H71.498V38.903Z" fill="#E2AB74"/>
<path fill-rule="evenodd" clip-rule="evenodd" d="M73.9285 38.903H75.1657V46.8198H73.9285V38.903Z" fill="#E2AB74"/>
<path fill-rule="evenodd" clip-rule="evenodd" d="M67.9577 40.0273H68.7265V45.5646H67.9577V40.0273Z" fill="#E2AB74"/>
<path fill-rule="evenodd" clip-rule="evenodd" d="M70.5168 40.0273H71.2855V45.5646H70.5168V40.0273Z" fill="#E2AB74"/>
<path fill-rule="evenodd" clip-rule="evenodd" d="M72.9481 40.0703H73.7168V45.6079H72.9481V40.0703Z" fill="#E2AB74"/>
<path fill-rule="evenodd" clip-rule="evenodd" d="M30.3389 30.1635H39.4236V30.8991H30.3389V30.1635Z" fill="#F9D026"/>
<path fill-rule="evenodd" clip-rule="evenodd" d="M30.59 30.1908V36.5931H30.0777V30.1908H30.59Z" fill="#F9D026"/>
<path fill-rule="evenodd" clip-rule="evenodd" d="M38.2176 31.1749V36.5825H37.7054V31.1749H38.2176Z" fill="#F9D026"/>
<path fill-rule="evenodd" clip-rule="evenodd" d="M35.6649 31.1682V36.5756H35.1526V31.1684H35.6649V31.1682Z" fill="#F9D026"/>
<path fill-rule="evenodd" clip-rule="evenodd" d="M33.1123 31.1617V36.5693H32.6001V31.1621H33.1123V31.1617Z" fill="#F9D026"/>
<path fill-rule="evenodd" clip-rule="evenodd" d="M29.7418 38.903H30.9788V46.8198H29.7418V38.903Z" fill="#E2AB74"/>
<path fill-rule="evenodd" clip-rule="evenodd" d="M32.2584 38.8588H33.4954V46.7751H32.2584V38.8588Z" fill="#E2AB74"/>
<path fill-rule="evenodd" clip-rule="evenodd" d="M34.8176 38.903H36.0545V46.8198H34.8176V38.903Z" fill="#E2AB74"/>
<path fill-rule="evenodd" clip-rule="evenodd" d="M37.2055 38.903H38.4425V46.8198H37.2055V38.903Z" fill="#E2AB74"/>
<path fill-rule="evenodd" clip-rule="evenodd" d="M31.2347 40.0703H32.0033V45.6079H31.2347V40.0703Z" fill="#E2AB74"/>
<path fill-rule="evenodd" clip-rule="evenodd" d="M33.7938 40.0703H34.5624V45.6079H33.7938V40.0703Z" fill="#E2AB74"/>
<path fill-rule="evenodd" clip-rule="evenodd" d="M36.2246 40.114H36.993V45.6513H36.2246V40.114Z" fill="#E2AB74"/>
<path fill-rule="evenodd" clip-rule="evenodd" d="M56.143 40.114H57.2531V45.6513H56.143V40.114Z" fill="#E2AB74"/>
<path fill-rule="evenodd" clip-rule="evenodd" d="M59.6833 40.114H60.7934V45.6513H59.6833V40.114Z" fill="#E2AB74"/>
<path fill-rule="evenodd" clip-rule="evenodd" d="M63.1811 40.114H64.2912V45.6513H63.1811V40.114Z" fill="#E2AB74"/>
<path fill-rule="evenodd" clip-rule="evenodd" d="M50.5558 38.9025C50.7261 37.9508 51.5792 37.129 52.5175 37.129C53.4558 37.129 54.2238 37.9508 54.3945 38.9025H55.4606C55.2473 37.3454 54.0105 36.1772 52.475 36.1772C50.9394 36.1772 49.7026 37.3885 49.4893 38.9025H50.5558Z" fill="#00A4FF"/>
<path fill-rule="evenodd" clip-rule="evenodd" d="M48.8073 38.903H50.8117V39.7246H48.8073V38.903Z" fill="#FFC28F"/>
<path fill-rule="evenodd" clip-rule="evenodd" d="M49.3616 39.7248H50.5984V46.8623H49.3616V39.7248Z" fill="#FFC28F"/>
<path fill-rule="evenodd" clip-rule="evenodd" d="M39.424 38.903H47.3999V39.7246H39.424V38.903Z" fill="#FFC28F"/>
<path fill-rule="evenodd" clip-rule="evenodd" d="M45.9064 39.7248H47.1436V46.8623H45.9064V39.7248Z" fill="#FFC28F"/>
<path fill-rule="evenodd" clip-rule="evenodd" d="M42.3239 39.7248H43.5607V46.8623H42.3239V39.7248Z" fill="#FFC28F"/>
<path fill-rule="evenodd" clip-rule="evenodd" d="M39.9784 39.7248H41.2152V46.8623H39.9784V39.7248Z" fill="#FFC28F"/>
<path fill-rule="evenodd" clip-rule="evenodd" d="M65.6227 39.7628H57.6468V38.941H65.6227V39.7628Z" fill="#FFC28F"/>
<path fill-rule="evenodd" clip-rule="evenodd" d="M59.1789 46.8246H57.9418V39.6866H59.1789V46.8246Z" fill="#FFC28F"/>
<path fill-rule="evenodd" clip-rule="evenodd" d="M62.7382 46.8246H61.5014V39.6866H62.7382V46.8246Z" fill="#FFC28F"/>
<path fill-rule="evenodd" clip-rule="evenodd" d="M65.0886 46.8246H63.8515V39.6866H65.0886V46.8246Z" fill="#FFC28F"/>
<path fill-rule="evenodd" clip-rule="evenodd" d="M54.3094 39.7248H55.5466V46.8623H54.3094V39.7248Z" fill="#FFC28F"/>
<path fill-rule="evenodd" clip-rule="evenodd" d="M54.0957 38.903H56.1004V39.7246H54.0957V38.903Z" fill="#FFC28F"/>
<path fill-rule="evenodd" clip-rule="evenodd" d="M26.3299 38.9025C26.4578 37.9508 27.0123 37.129 27.6093 37.129C28.2493 37.129 28.7184 37.9508 28.8463 38.9025H29.5287C29.4008 37.3454 28.5903 36.1772 27.5667 36.1772C26.5431 36.1772 25.7327 37.3885 25.6047 38.9025H26.3299Z" fill="#00A4FF"/>
<path fill-rule="evenodd" clip-rule="evenodd" d="M25.2205 38.903H26.5427V39.7246H25.2205V38.903Z" fill="#FFC28F"/>
<path fill-rule="evenodd" clip-rule="evenodd" d="M25.5612 39.7248H26.3724V46.8623H25.5612V39.7248Z" fill="#FFC28F"/>
<path fill-rule="evenodd" clip-rule="evenodd" d="M28.8034 39.7248H29.6145V46.8623H28.8034V39.7248Z" fill="#FFC28F"/>
<path fill-rule="evenodd" clip-rule="evenodd" d="M28.6331 38.903H29.9553V39.7246H28.6331V38.903Z" fill="#FFC28F"/>
<path fill-rule="evenodd" clip-rule="evenodd" d="M27.6091 38.9025C27.5665 37.9942 27.6521 37.129 28.4622 37.129C29.2722 37.129 29.0593 37.9508 29.23 38.9025H31.2346C31.064 37.3454 29.9976 36.1772 28.7182 36.1772C27.4387 36.1772 26.3296 37.3885 26.2017 38.9025H27.6091Z" fill="#2780C9"/>
<path fill-rule="evenodd" clip-rule="evenodd" d="M25.2205 38.903H26.5427V39.7246H25.2205V38.903Z" fill="#FFC28F"/>
<path fill-rule="evenodd" clip-rule="evenodd" d="M25.5612 39.7248H26.3724V46.8623H25.5612V39.7248Z" fill="#FFC28F"/>
<path fill-rule="evenodd" clip-rule="evenodd" d="M30.2112 39.7248H31.0222V46.8623H30.2112V39.7248Z" fill="#C98F57"/>
<path fill-rule="evenodd" clip-rule="evenodd" d="M29.955 38.903H31.2771V39.7246H29.955V38.903Z" fill="#C98F57"/>
<path fill-rule="evenodd" clip-rule="evenodd" d="M26.756 39.7248H27.5673V46.8623H26.756V39.7248Z" fill="#C98F57"/>
<path fill-rule="evenodd" clip-rule="evenodd" d="M26.5431 38.903H27.8654V39.7246H26.5431V38.903Z" fill="#C98F57"/>
<path fill-rule="evenodd" clip-rule="evenodd" d="M51.1311 38.8889H53.728V46.8211H51.1311V38.8889Z" fill="#CC8A4E"/>
<path fill-rule="evenodd" clip-rule="evenodd" d="M51.5367 40.114H53.3281V46.8189H51.5367V40.114Z" fill="#BF6D2B"/>
<path fill-rule="evenodd" clip-rule="evenodd" d="M27.9501 38.903H29.2297V46.8198H27.9501V38.903Z" fill="#CC8A4E"/>
<path fill-rule="evenodd" clip-rule="evenodd" d="M28.1639 40.114H29.0603V46.8189H28.1639V40.114Z" fill="#BF6D2B"/>
<path opacity="0.1" fill-rule="evenodd" clip-rule="evenodd" d="M41.5138 45.9972V39.7248H41.2149V45.9972H41.4285V46.819H41.7272V45.9972H41.5138Z" fill="black"/>
<path opacity="0.1" fill-rule="evenodd" clip-rule="evenodd" d="M43.9029 45.9972V39.7248H43.5611V45.9972H43.7746V46.819H44.0734V45.9972H43.9029Z" fill="black"/>
<path opacity="0.1" fill-rule="evenodd" clip-rule="evenodd" d="M47.4854 45.9972V39.7248H47.144V45.9972H47.3575V46.819H47.6989V45.9972H47.4854Z" fill="black"/>
<path opacity="0.1" fill-rule="evenodd" clip-rule="evenodd" d="M50.9397 45.9972V39.7248H50.5984V45.9972H50.8119V46.819H51.1106V45.9972H50.9397Z" fill="black"/>
<path opacity="0.1" fill-rule="evenodd" clip-rule="evenodd" d="M55.8875 45.9972V39.7248H55.5461V45.9972H55.7596V46.819H56.1014V45.9972H55.8875Z" fill="black"/>
<path opacity="0.1" fill-rule="evenodd" clip-rule="evenodd" d="M59.4704 45.9972V39.7248H59.129V45.9972H59.3425V46.819H59.6839V45.9972H59.4704Z" fill="black"/>
<path opacity="0.1" fill-rule="evenodd" clip-rule="evenodd" d="M63.0532 45.9972V39.7248H62.7541V45.9972H62.968V46.819H63.2667V45.9972H63.0532Z" fill="black"/>
<path opacity="0.1" fill-rule="evenodd" clip-rule="evenodd" d="M65.4412 45.9972V39.7248H65.0998V45.9972H65.3133V46.819H65.6547V45.9972H65.4412Z" fill="black"/>
<path fill-rule="evenodd" clip-rule="evenodd" d="M27.5668 36.1772H28.6767V36.7398H27.5668V36.1772Z" fill="#2780C9"/>
<path fill-rule="evenodd" clip-rule="evenodd" d="M26.3299 38.9025C26.4578 37.9508 27.0123 37.129 27.6093 37.129C28.2493 37.129 28.7184 37.9508 28.8463 38.9025H29.5287C29.4008 37.3454 28.5903 36.1772 27.5667 36.1772C26.5431 36.1772 25.7327 37.3885 25.6047 38.9025H26.3299Z" fill="#00A4FF"/>
<path fill-rule="evenodd" clip-rule="evenodd" d="M28.8034 39.7248H29.6145V46.8623H28.8034V39.7248Z" fill="#FFC28F"/>
<path fill-rule="evenodd" clip-rule="evenodd" d="M28.6331 38.903H29.9553V39.7246H28.6331V38.903Z" fill="#FFC28F"/>
<path fill-rule="evenodd" clip-rule="evenodd" d="M78.5069 46.7821H77.2697V38.8655H78.5069V46.7821Z" fill="#E2AB74"/>
<path fill-rule="evenodd" clip-rule="evenodd" d="M74.9463 46.7821H73.7096V38.8655H74.9463V46.7821Z" fill="#E2AB74"/>
<path fill-rule="evenodd" clip-rule="evenodd" d="M78.3646 38.9025C78.2369 37.9508 77.6826 37.129 77.0853 37.129C76.4454 37.129 75.9763 37.9508 75.8481 38.9025H75.1661C75.2938 37.3454 76.1044 36.1772 77.1278 36.1772C78.1513 36.1772 78.9619 37.3885 79.09 38.9025H78.3646Z" fill="#00A4FF"/>
<path fill-rule="evenodd" clip-rule="evenodd" d="M79.4886 39.6867H78.1663V38.8649H79.4886V39.6867Z" fill="#FFC28F"/>
<path fill-rule="evenodd" clip-rule="evenodd" d="M79.1359 46.7909H78.325V39.653H79.1359V46.7909Z" fill="#FFC28F"/>
<path fill-rule="evenodd" clip-rule="evenodd" d="M74.952 45.9966H75.9768V46.8185H74.952V45.9966Z" fill="#FFC28F"/>
<path fill-rule="evenodd" clip-rule="evenodd" d="M78.1943 45.9966H79.2191V46.8185H78.1943V45.9966Z" fill="#FFC28F"/>
<path fill-rule="evenodd" clip-rule="evenodd" d="M75.8953 46.7909H75.0844V39.653H75.8953V46.7909Z" fill="#FFC28F"/>
<path fill-rule="evenodd" clip-rule="evenodd" d="M76.0537 39.6867H74.7318V38.8649H76.0537V39.6867Z" fill="#FFC28F"/>
<path fill-rule="evenodd" clip-rule="evenodd" d="M79.4886 39.6867H78.1663V38.8649H79.4886V39.6867Z" fill="#FFC28F"/>
<path fill-rule="evenodd" clip-rule="evenodd" d="M79.1359 46.7909H78.325V39.653H79.1359V46.7909Z" fill="#FFC28F"/>
<path fill-rule="evenodd" clip-rule="evenodd" d="M73.5453 45.9966H74.9102V46.8185H73.5453V45.9966Z" fill="#C98F57"/>
<path fill-rule="evenodd" clip-rule="evenodd" d="M74.4973 46.7909H73.6864V39.653H74.4973V46.7909Z" fill="#C98F57"/>
<path fill-rule="evenodd" clip-rule="evenodd" d="M74.7262 39.6867H73.4043V38.8649H74.7262V39.6867Z" fill="#C98F57"/>
<path fill-rule="evenodd" clip-rule="evenodd" d="M76.9997 45.9966H78.3646V46.8185H76.9997V45.9966Z" fill="#C98F57"/>
<path fill-rule="evenodd" clip-rule="evenodd" d="M77.9482 46.7909H77.1373V39.653H77.9482V46.7909Z" fill="#C98F57"/>
<path fill-rule="evenodd" clip-rule="evenodd" d="M78.1349 39.6867H76.8126V38.8649H78.1349V39.6867Z" fill="#C98F57"/>
<path fill-rule="evenodd" clip-rule="evenodd" d="M76.7425 46.7821H75.4628V38.8655H76.7425V46.7821Z" fill="#CC8A4E"/>
<path fill-rule="evenodd" clip-rule="evenodd" d="M76.5301 46.8137H75.6335V40.1088H76.5301V46.8137Z" fill="#BF6D2B"/>
<path fill-rule="evenodd" clip-rule="evenodd" d="M78.1943 45.9966H79.2191V46.8185H78.1943V45.9966Z" fill="#FFC28F"/>
<path fill-rule="evenodd" clip-rule="evenodd" d="M74.952 45.9966H75.9768V46.8185H74.952V45.9966Z" fill="#FFC28F"/>
<path fill-rule="evenodd" clip-rule="evenodd" d="M75.8953 46.7909H75.0844V39.653H75.8953V46.7909Z" fill="#FFC28F"/>
<path fill-rule="evenodd" clip-rule="evenodd" d="M76.0537 39.6867H74.7318V38.8649H76.0537V39.6867Z" fill="#FFC28F"/>
<path fill-rule="evenodd" clip-rule="evenodd" d="M18.7798 26.0977H86.1698V26.2278H18.7798V26.0979V26.0977Z" fill="#00A4FF"/>
<path opacity="0.15" fill-rule="evenodd" clip-rule="evenodd" d="M66.4823 26.1385H86.2192V46.8211H66.4823V26.1385Z" fill="black"/>
<path opacity="0.1" fill-rule="evenodd" clip-rule="evenodd" d="M18.8135 26.1385H38.5504V46.8211H18.8135V26.1385Z" fill="white"/>
<path opacity="0.1" fill-rule="evenodd" clip-rule="evenodd" d="M44.4134 32.6729C44.4145 32.4432 44.5049 32.2233 44.6647 32.0612C44.8246 31.8991 45.041 31.8079 45.2666 31.8077C45.3947 31.8077 45.4799 31.8509 45.5655 31.8509C45.5008 31.6978 45.3937 31.5671 45.2573 31.475C45.1209 31.3828 44.9611 31.333 44.7974 31.3317C44.5718 31.332 44.3555 31.4231 44.1956 31.5852C44.0358 31.7473 43.9454 31.9672 43.9443 32.1969V36.5661H44.4134V32.6729Z" fill="black"/>
<path opacity="0.1" fill-rule="evenodd" clip-rule="evenodd" d="M47.9538 32.6729C47.9549 32.4432 48.0452 32.2233 48.2051 32.0612C48.3649 31.8991 48.5813 31.8079 48.8069 31.8077C48.9346 31.8077 49.0202 31.8509 49.1054 31.8509C49.0407 31.6978 48.9338 31.5672 48.7974 31.475C48.6611 31.3828 48.5014 31.333 48.3378 31.3317C48.1122 31.332 47.8958 31.4231 47.736 31.5852C47.5761 31.7473 47.4858 31.9672 47.4846 32.1969V36.5661H47.9538V32.6729Z" fill="black"/>
<path opacity="0.1" fill-rule="evenodd" clip-rule="evenodd" d="M56.2707 32.6729C56.2718 32.4432 56.3622 32.2233 56.522 32.0612C56.6819 31.8991 56.8982 31.8079 57.1239 31.8077C57.2516 31.8077 57.3371 31.8509 57.4223 31.8509C57.3577 31.6978 57.2507 31.5672 57.1144 31.475C56.9781 31.3828 56.8183 31.333 56.6547 31.3317C56.4291 31.332 56.2128 31.4231 56.0529 31.5852C55.8931 31.7473 55.8027 31.9672 55.8016 32.1969V36.5661H56.2707V32.6729Z" fill="black"/>
<path opacity="0.1" fill-rule="evenodd" clip-rule="evenodd" d="M59.8962 32.6729C59.8973 32.4432 59.9876 32.2233 60.1475 32.0612C60.3074 31.8991 60.5237 31.8079 60.7493 31.8077C60.8771 31.8077 60.9626 31.8509 61.0478 31.8509C60.9832 31.6978 60.8762 31.5672 60.7399 31.475C60.6036 31.3828 60.4438 31.333 60.2802 31.3317C60.0546 31.332 59.8382 31.4231 59.6784 31.5852C59.5186 31.7473 59.4282 31.9672 59.427 32.1969V36.5661H59.8962V32.6729Z" fill="black"/>
<path opacity="0.1" fill-rule="evenodd" clip-rule="evenodd" d="M63.4365 32.6729C63.4375 32.4433 63.5278 32.2233 63.6876 32.0612C63.8473 31.8991 64.0637 31.808 64.2892 31.8077C64.4174 31.8077 64.5029 31.8509 64.5881 31.8509C64.5234 31.6978 64.4163 31.5671 64.2799 31.475C64.1436 31.3828 63.9838 31.333 63.8201 31.3317C63.5945 31.332 63.3782 31.4231 63.2185 31.5853C63.0587 31.7474 62.9684 31.9673 62.9674 32.1969V36.5661H63.4365V32.6729Z" fill="black"/>
<path opacity="0.1" fill-rule="evenodd" clip-rule="evenodd" d="M23.0032 32.6729C23.0032 32.1969 23.2594 31.8077 23.601 31.8077H23.6864C23.601 31.5048 23.3875 31.3317 23.1742 31.3317C22.8326 31.3317 22.5764 31.7214 22.5764 32.1969V36.5661H23.0033V32.6729H23.0032Z" fill="black"/>
<path opacity="0.1" fill-rule="evenodd" clip-rule="evenodd" d="M25.5624 32.6729C25.5624 32.1969 25.8185 31.8077 26.1601 31.8077H26.2454C26.1601 31.5048 25.9465 31.3317 25.7332 31.3317C25.3916 31.3317 25.1355 31.7214 25.1355 32.1969V36.5661H25.5625V32.6729H25.5624Z" fill="black"/>
<path opacity="0.1" fill-rule="evenodd" clip-rule="evenodd" d="M68.1284 32.6729C68.1284 32.1969 68.3845 31.8077 68.7258 31.8077H68.8115C68.7258 31.5048 68.5128 31.3317 68.2989 31.3317C67.9575 31.3317 67.7014 31.7214 67.7014 32.1969V36.5661H68.171V32.6729H68.1284Z" fill="black"/>
<path opacity="0.1" fill-rule="evenodd" clip-rule="evenodd" d="M75.5927 32.6729C75.5927 32.1972 76.147 31.8077 76.7868 31.8077C77.0427 31.8077 77.256 31.8511 77.4693 31.9808C77.3411 31.6349 76.872 31.3751 76.3177 31.3751C75.6778 31.3751 75.1231 31.7648 75.1231 32.2404V36.6095H75.5927V32.6729Z" fill="black"/>
<path opacity="0.1" fill-rule="evenodd" clip-rule="evenodd" d="M70.6875 32.6729C70.6875 32.1969 70.9436 31.8077 71.2853 31.8077H71.3706C71.2853 31.5048 71.0718 31.3317 70.8583 31.3317C70.5166 31.3317 70.2605 31.7214 70.2605 32.1969V36.5661H70.7301V32.6729H70.6875Z" fill="black"/>
<path opacity="0.1" fill-rule="evenodd" clip-rule="evenodd" d="M79.133 32.6729C79.133 32.1969 79.3891 31.8077 79.7309 31.8077H79.8161C79.7309 31.5048 79.5174 31.3317 79.3039 31.3317C78.9621 31.3317 78.706 31.7214 78.706 32.1969V36.5661H79.1756V32.6729H79.133Z" fill="black"/>
<path opacity="0.1" fill-rule="evenodd" clip-rule="evenodd" d="M81.692 32.6729C81.692 32.1969 81.9481 31.8077 82.2899 31.8077H82.3751C82.2899 31.5048 82.0764 31.3317 81.8629 31.3317C81.5215 31.3317 81.265 31.7214 81.265 32.1969V36.5661H81.735V32.6729H81.692Z" fill="black"/>
<path opacity="0.1" fill-rule="evenodd" clip-rule="evenodd" d="M84.2515 32.6729C84.2515 32.1969 84.5076 31.8077 84.8489 31.8077H84.9346C84.8489 31.5048 84.6354 31.3317 84.4223 31.3317C84.0806 31.3317 83.8245 31.7214 83.8245 32.1969V36.5661H84.2941V32.6729H84.2515Z" fill="black"/>
<path opacity="0.1" fill-rule="evenodd" clip-rule="evenodd" d="M31.4479 32.6729C31.4479 32.1969 31.7041 31.8077 32.0457 31.8077H32.1311C32.0457 31.5048 31.8322 31.3317 31.6189 31.3317C31.2773 31.3317 31.0212 31.7214 31.0212 32.1969V36.5661H31.4906V32.6729H31.4476H31.4479Z" fill="black"/>
<path opacity="0.1" fill-rule="evenodd" clip-rule="evenodd" d="M34.0071 32.6729C34.0071 32.1969 34.2632 31.8077 34.6048 31.8077H34.6901C34.6048 31.5048 34.3914 31.3317 34.1779 31.3317C33.8363 31.3317 33.5803 31.7214 33.5803 32.1969V36.5661H34.0499V32.6729H34.0072H34.0071Z" fill="black"/>
<path opacity="0.1" fill-rule="evenodd" clip-rule="evenodd" d="M36.5662 32.6729C36.5662 32.1969 36.8224 31.8077 37.1639 31.8077H37.2494C37.1639 31.5048 36.9505 31.3317 36.7372 31.3317C36.3956 31.3317 36.1393 31.7214 36.1393 32.1969V36.5661H36.6089V32.6729H36.5663H36.5662Z" fill="black"/>
<path fill-rule="evenodd" clip-rule="evenodd" d="M77.0431 38.9025C77.0857 37.9942 77.0001 37.129 76.19 37.129C75.3798 37.129 75.5927 37.9508 75.4219 38.9025H73.4176C73.5883 37.3454 74.6544 36.1772 75.9337 36.1772C77.213 36.1772 78.3224 37.3885 78.4506 38.9025H77.0431Z" fill="#2780C9"/>
<path fill-rule="evenodd" clip-rule="evenodd" d="M78.3646 38.9025C78.2369 37.9508 77.6826 37.129 77.0853 37.129C76.4454 37.129 75.9763 37.9508 75.8481 38.9025H75.1661C75.2938 37.3454 76.1044 36.1772 77.1278 36.1772C78.1513 36.1772 78.9619 37.3885 79.09 38.9025H78.3646Z" fill="#00A4FF"/>
<path fill-rule="evenodd" clip-rule="evenodd" d="M40.9161 33.1487H41.4714V35.0955H40.9161V33.1487Z" fill="#DDBA28"/>
<path fill-rule="evenodd" clip-rule="evenodd" d="M44.6276 33.1487H45.1824V35.0955H44.6276V33.1487Z" fill="#DDBA28"/>
<path fill-rule="evenodd" clip-rule="evenodd" d="M48.0819 33.1487H48.6367V35.0955H48.0819V33.1487Z" fill="#DDBA28"/>
<path fill-rule="evenodd" clip-rule="evenodd" d="M56.3989 33.1487H56.9537V35.0955H56.3989V33.1487Z" fill="#DDBA28"/>
<path fill-rule="evenodd" clip-rule="evenodd" d="M60.1099 33.1487H60.6652V35.0955H60.1099V33.1487Z" fill="#DDBA28"/>
<path fill-rule="evenodd" clip-rule="evenodd" d="M63.6928 33.1487H64.2476V35.0955H63.6928V33.1487Z" fill="#DDBA28"/>
<path fill-rule="evenodd" clip-rule="evenodd" d="M75.9341 33.1487H76.9159V35.0955H75.9341V33.1487Z" fill="#DDBA28"/>
<path fill-rule="evenodd" clip-rule="evenodd" d="M73.2039 33.1487H73.5453V35.0955H73.2039V33.1487Z" fill="#DDBA28"/>
<path fill-rule="evenodd" clip-rule="evenodd" d="M70.6449 33.1487H70.9862V35.0955H70.6449V33.1487Z" fill="#DDBA28"/>
<path fill-rule="evenodd" clip-rule="evenodd" d="M68.0429 33.1487H68.3846V35.0955H68.0429V33.1487Z" fill="#DDBA28"/>
<path fill-rule="evenodd" clip-rule="evenodd" d="M28.2064 33.1487H29.1883V35.0955H28.2064V33.1487Z" fill="#DDBA28"/>
<path fill-rule="evenodd" clip-rule="evenodd" d="M25.4761 33.1487H25.8177V35.0955H25.4761V33.1487Z" fill="#DDBA28"/>
<path fill-rule="evenodd" clip-rule="evenodd" d="M22.9604 33.1487H23.3019V35.0955H22.9604V33.1487Z" fill="#DDBA28"/>
<path fill-rule="evenodd" clip-rule="evenodd" d="M20.4004 33.1487H20.742V35.0955H20.4004V33.1487Z" fill="#DDBA28"/>
<path fill-rule="evenodd" clip-rule="evenodd" d="M31.3625 33.2355H31.7041V35.182H31.3625V33.2355Z" fill="#DDBA28"/>
<path fill-rule="evenodd" clip-rule="evenodd" d="M33.9216 33.2355H34.2632V35.182H33.9216V33.2355Z" fill="#DDBA28"/>
<path fill-rule="evenodd" clip-rule="evenodd" d="M36.5233 33.2355H36.8649V35.182H36.5233V33.2355Z" fill="#DDBA28"/>
<path fill-rule="evenodd" clip-rule="evenodd" d="M84.2085 33.1487H84.5498V35.0955H84.2085V33.1487Z" fill="#DDBA28"/>
<path fill-rule="evenodd" clip-rule="evenodd" d="M81.6486 33.1487H81.9899V35.0955H81.6486V33.1487Z" fill="#DDBA28"/>
<path fill-rule="evenodd" clip-rule="evenodd" d="M79.0474 33.1487H79.3892V35.0955H79.0474V33.1487Z" fill="#DDBA28"/>
<path opacity="0.1" fill-rule="evenodd" clip-rule="evenodd" d="M73.2465 32.6729C73.2465 32.1969 73.5026 31.8077 73.8443 31.8077H73.9296C73.8443 31.5048 73.6309 31.3317 73.4174 31.3317C73.0756 31.3317 72.8199 31.7214 72.8199 32.1969V36.5661H73.2895V32.6729H73.2465Z" fill="black"/>
<path fill-rule="evenodd" clip-rule="evenodd" d="M19.3773 46.6031C19.2065 43.2287 16.4769 40.5032 13.1076 40.5032C9.7383 40.5032 6.96568 43.1854 6.83797 46.6031H19.3777H19.3773Z" fill="#90B700"/>
<path fill-rule="evenodd" clip-rule="evenodd" d="M13.0646 46.6031H19.3345C19.1639 43.2287 16.4341 40.5032 13.0648 40.5032V46.6031H13.0646Z" fill="#4F9934"/>
<path fill-rule="evenodd" clip-rule="evenodd" d="M15.8369 32.6302C15.8369 32.6302 16.1781 40.7629 16.7326 46.819L15.1971 46.8623L15.4956 32.6302H15.8369Z" fill="#FFAD76"/>
<path fill-rule="evenodd" clip-rule="evenodd" d="M20.2302 36.5664C20.2302 36.5664 19.8463 33.5816 17.0314 33.1921C16.818 33.149 19.9315 32.4999 21.1259 32.8894C21.4245 33.019 19.8889 30.0342 16.7327 31.8511C16.1783 32.1538 17.8843 29.9911 17.8843 29.9911C17.8843 29.9911 15.6665 30.2506 15.5386 31.9808C15.5386 32.2837 14.3016 29.2555 11.3158 31.7646C11.2731 31.8077 14.4721 32.4568 14.3867 32.5433C14.344 32.6298 10.548 31.9377 10.4627 34.9225C10.4627 34.9659 13.5336 33.7977 14.472 33.8411C14.5574 33.8411 11.5716 35.2254 13.1925 38.2967C13.2778 38.4698 15.1545 37.042 15.453 35.0954C15.5275 34.5941 15.5703 34.0884 15.581 33.5815C15.581 33.5815 16.818 36.0907 20.2302 36.5664Z" fill="#B4D335"/>
<path fill-rule="evenodd" clip-rule="evenodd" d="M27.4387 43.1425C26.498 43.1356 25.593 43.5089 24.9223 44.1806C24.2516 43.5089 23.3465 43.1356 22.4058 43.1425C21.4867 43.1404 20.6017 43.4963 19.932 44.1372C19.258 43.5033 18.3758 43.1486 17.4582 43.1425C16.5267 43.1378 15.6295 43.4998 14.9539 44.1527C14.2783 44.8056 13.8766 45.6991 13.8327 46.6464H31.064C30.9361 44.6998 29.3581 43.1425 27.4387 43.1425Z" fill="#B4D335"/>
<path fill-rule="evenodd" clip-rule="evenodd" d="M1.50605 42.2769C1.50605 42.2769 1.88997 37.5614 5.85653 36.8259C6.11239 36.7828 1.76186 35.8311 0.055859 36.5663C-0.370675 36.7395 1.63406 32.0242 6.155 34.7064C6.96546 35.1824 4.44904 31.8511 4.44904 31.8511C4.44904 31.8511 7.60536 32.1542 7.86118 34.9228C7.9038 35.3985 9.43934 30.5968 13.7898 34.4037C13.8751 34.4468 9.3966 35.615 9.48191 35.788C9.56723 35.9611 14.8134 34.7064 15.112 39.3785C15.112 39.4218 10.7615 37.7777 9.43926 37.8643C9.31133 37.8643 13.5764 39.8977 11.4865 44.829C11.3586 45.0886 8.6288 42.9257 8.15966 39.8977C7.94645 38.4699 7.9038 37.5181 7.9038 37.5181C7.9038 37.5181 6.24045 41.325 1.50605 42.2769Z" fill="#D9EF5B"/>
<path fill-rule="evenodd" clip-rule="evenodd" d="M7.90427 45.4784C7.75308 45.4759 7.60303 45.5053 7.46356 45.5647C7.32408 45.6242 7.19821 45.7124 7.09386 45.8238C6.98802 45.7144 6.86188 45.6275 6.72275 45.5682C6.58363 45.5089 6.43431 45.4784 6.28349 45.4784C6.13267 45.4784 5.98335 45.5089 5.84423 45.5682C5.7051 45.6275 5.57896 45.7144 5.47312 45.8238C5.25738 45.6057 4.96667 45.4818 4.66267 45.4784C4.36166 45.48 4.07217 45.5964 3.85117 45.8044C3.63016 46.0125 3.49366 46.2973 3.46851 46.6027H9.09847C9.07331 46.2973 8.9368 46.0125 8.71579 45.8044C8.49478 45.5964 8.20528 45.48 7.90427 45.4784Z" fill="#D9EF5B"/>
<path fill-rule="evenodd" clip-rule="evenodd" d="M32.5572 45.4784C32.406 45.4759 32.2559 45.5053 32.1165 45.5647C31.977 45.6242 31.8511 45.7124 31.7467 45.8238C31.6409 45.7144 31.5147 45.6275 31.3756 45.5682C31.2365 45.5089 31.0872 45.4784 30.9364 45.4784C30.7855 45.4784 30.6362 45.5089 30.4971 45.5682C30.358 45.6275 30.2318 45.7144 30.126 45.8238C29.9103 45.6057 29.6196 45.4818 29.3156 45.4784C29.0146 45.48 28.7251 45.5964 28.5041 45.8044C28.2831 46.0125 28.1465 46.2973 28.1214 46.6027H33.7514C33.7262 46.2973 33.5897 46.0125 33.3687 45.8044C33.1477 45.5964 32.8582 45.48 32.5572 45.4784Z" fill="#D9EF5B"/>
<path fill-rule="evenodd" clip-rule="evenodd" d="M93.3786 46.5159C93.2079 43.1416 90.4781 40.4165 87.1085 40.4165C83.7389 40.4165 80.9666 43.0987 80.8389 46.5159H93.3786Z" fill="#90B700"/>
<path fill-rule="evenodd" clip-rule="evenodd" d="M87.1085 46.5159H93.3782C93.2075 43.1416 90.4777 40.4165 87.1085 40.4165V46.5159Z" fill="#4F9934"/>
<path fill-rule="evenodd" clip-rule="evenodd" d="M90.0516 45.3911C89.9003 45.3886 89.7501 45.418 89.6106 45.4777C89.471 45.5373 89.3452 45.6257 89.241 45.7375C89.1353 45.6278 89.0092 45.5407 88.8701 45.4812C88.7309 45.4217 88.5815 45.3911 88.4306 45.3911C88.2797 45.3911 88.1303 45.4217 87.9912 45.4812C87.852 45.5407 87.7259 45.6278 87.6202 45.7375C87.4048 45.5188 87.1139 45.3945 86.8097 45.3911C86.5086 45.3929 86.2191 45.5094 85.9982 45.7175C85.7772 45.9257 85.6407 46.2105 85.6155 46.5159H91.2457C91.2205 46.2105 91.084 45.9257 90.863 45.7176C90.642 45.5095 90.3526 45.393 90.0516 45.3911Z" fill="#D9EF5B"/>
</g>
<defs>
<clipPath id="clip0_5_8494">
<rect width="102" height="46" fill="white"/>
</clipPath>
</defs>
</svg>
