<svg width="23" height="26" viewBox="0 0 23 26" fill="none" xmlns="http://www.w3.org/2000/svg">
<g clip-path="url(#clip0_1342_86442)">
<path d="M4.23359 0.993164C4.86693 0.993164 5.33359 0.993164 5.86693 0.993164C5.86693 7.84922 5.86693 14.7053 5.86693 21.5613C5.93359 21.5944 5.96693 21.6276 6.03359 21.6276C6.66693 20.8327 7.26693 20.0378 7.93359 19.1766C8.36693 19.5078 8.76693 19.8059 9.23359 20.1371L5.06693 25.0059C5.06693 25.0059 2.03359 21.6276 0.933594 20.1702C1.36693 19.839 1.80026 19.5409 2.23359 19.2097C2.86693 20.0378 3.46693 20.8327 4.23359 21.8263C4.23359 14.7384 4.23359 7.88234 4.23359 0.993164Z" fill="#2B3491"/>
<path d="M5.1 25.9998L4.6 25.4368C4.46667 25.3043 1.53333 22.0253 0.4 20.5349L0 20.0381L2.36667 18.2826L3.56667 19.8393V0.331055H6.53333V19.9056L7.8 18.2495L10.1667 20.0381L5.1 25.9998ZM1.86667 20.303C2.8 21.4291 4.26667 23.1514 5.06667 24.0126L8.26667 20.303L8.06667 20.1705L6.23333 22.5221L5.2 22.0253V1.6559H4.9V23.7807L2.1 20.1374L1.86667 20.303Z" fill="#2B3491"/>
<path d="M18.7666 25.0059C18.1333 25.0059 17.6666 25.0059 17.1333 25.0059C17.1333 18.1499 17.1333 11.2938 17.1333 4.43775C17.0666 4.40463 17.0333 4.37151 16.9666 4.37151C16.3333 5.16641 15.7333 5.96132 15.0666 6.82246C14.6333 6.49125 14.2333 6.19316 13.7666 5.86195L17.9333 0.993164C17.9333 0.993164 20.9666 4.37151 22.0666 5.82883C21.6333 6.16004 21.1999 6.45813 20.7666 6.78934C20.1333 5.96132 19.5333 5.16641 18.7666 4.17278C18.7666 11.2607 18.7666 18.1167 18.7666 25.0059Z" fill="#2B3491"/>
<path d="M19.4331 25.6688H16.4665V6.09427L15.1998 7.75032L12.7998 5.96178L17.8998 0L18.3998 0.563057C18.5331 0.695541 21.4665 3.97452 22.5998 5.46497L22.9998 5.9949L20.6331 7.75032L19.4331 6.19363V25.6688ZM17.7998 24.3439H18.0998V2.21911L20.8998 5.86242L21.1331 5.69682C20.1998 4.5707 18.7331 2.84841 17.9331 1.98726L14.7331 5.72994L14.9331 5.86242L16.7665 3.51083L17.7998 4.00764V24.3439Z" fill="#2B3491"/>
</g>
<defs>
<clipPath id="clip0_1342_86442">
<rect width="23" height="26" fill="white"/>
</clipPath>
</defs>
</svg>
