<svg width="132" height="46" viewBox="0 0 132 46" fill="none" xmlns="http://www.w3.org/2000/svg">
<g clip-path="url(#clip0_5_8816)">
<path d="M48.5067 46.265C48.154 41.9561 46.2109 37.9386 43.0628 35.01C39.9148 32.0814 35.792 30.4558 31.5128 30.4558C27.2337 30.4558 23.1109 32.0814 19.9629 35.01C16.8148 37.9386 14.8717 41.9561 14.519 46.265H48.5067Z" fill="#4F9934"/>
<path opacity="0.1" d="M99.5462 2.54793H98.1542V1.6103H97.3422V0.672668H94.6742V1.6103H93.8623V2.54793H70.6625V1.6103H69.2705V0.672668H64.8625V1.6103H63.4705V2.54793H49.6667C49.6667 3.25116 48.9707 3.36836 48.1587 3.36836C47.3467 3.36836 46.9987 3.25115 46.7667 2.89954L45.3747 3.36836V46.0306H100.474V44.0381H99.5462V2.54793ZM62.4266 7.35329H61.7306L61.1506 8.05652H60.2226V8.64254H59.2946V3.95438C59.2946 3.25116 59.9906 3.13395 60.9186 3.13395C61.8466 3.13395 62.4266 3.25116 62.4266 3.95438V7.35329ZM74.6064 4.77481V7.82211H72.0545V4.5404C72.0545 4.19847 72.1889 3.87055 72.4282 3.62877C72.6675 3.38699 72.992 3.25116 73.3304 3.25116C73.6689 3.25116 73.9934 3.38699 74.2327 3.62877C74.472 3.87055 74.6064 4.19847 74.6064 4.5404V4.77481ZM80.8704 4.77481V7.82211H78.3184V4.5404C78.3184 4.19847 78.4528 3.87055 78.6921 3.62877C78.9314 3.38699 79.256 3.25116 79.5944 3.25116C79.9328 3.25116 80.2574 3.38699 80.4966 3.62877C80.7359 3.87055 80.8704 4.19847 80.8704 4.5404V4.77481ZM87.0183 4.89201V8.05652H85.1623V4.89201C85.1623 4.64334 85.2601 4.40484 85.4341 4.229C85.6082 4.05316 85.8442 3.95438 86.0903 3.95438C86.3364 3.95438 86.5725 4.05316 86.7465 4.229C86.9206 4.40484 87.0183 4.64334 87.0183 4.89201ZM92.5863 4.89201V8.05652H91.3103V4.89201C91.3103 4.30599 91.6583 3.83717 92.0063 3.83717C92.3543 3.83717 92.5863 4.30599 92.5863 4.89201Z" fill="black"/>
<path opacity="0.15" d="M99.7782 44.2725H98.9662V2.78231H97.5742V1.84468H96.7622V0.907043H93.7463V1.84468H92.9343V2.78231H69.9665V1.84468H68.5745V0.907043H64.1665V1.72747H62.7746V2.5479H48.9707C48.9806 2.67008 48.9524 2.79234 48.89 2.89747C48.8276 3.0026 48.7341 3.08529 48.6227 3.13392H47.5787C47.0889 3.17687 46.5989 3.05311 46.1867 2.78231L44.9107 3.13392L42.9387 3.48553H42.0108L39.9228 2.89951H50.7107C50.7127 3.09824 50.6432 3.29095 50.5152 3.44185C50.3872 3.59274 50.2094 3.69156 50.0147 3.71994V1.96188H49.3187V1.02425H47.3467V1.96188H46.7667V2.89951H34.2388C34.2388 3.48553 34.0068 3.71994 33.6588 3.71994H33.5428C33.3912 3.6482 33.2653 3.53086 33.1822 3.384C33.0991 3.23713 33.063 3.06791 33.0788 2.89951H26.2349V1.84468H25.5389V0.907043H23.1029V1.72747H22.4069V2.5479H22.1749V7.23606H11.735L11.155 16.378V18.4876H11.039V19.0737H11.155V19.5425H11.039V20.1285H11.155V29.1532H11.039V30.5596H11.155V31.4973H11.039V32.2005H11.155V33.9586H11.039V34.3102H11.155V44.1553H10.691V46.1478H99.8942V44.2725H99.7782ZM91.8903 4.77477V7.93928H91.0783V4.89198C91.0623 4.70149 91.0849 4.5097 91.1448 4.32834C91.2046 4.14697 91.3004 3.97984 91.4263 3.83714H91.5423C91.7682 4.09596 91.8921 4.42968 91.8903 4.77477ZM85.5103 3.71994H85.8583C86.0099 3.8218 86.1324 3.96192 86.2138 4.12639C86.2952 4.29086 86.3326 4.47398 86.3223 4.65757V7.82208H84.9303V4.89198C84.9345 4.68169 84.9896 4.47563 85.0907 4.29177C85.1918 4.1079 85.3358 3.95183 85.5103 3.83714V3.71994ZM79.5944 3.71994C79.7584 3.78667 79.9001 3.89934 80.0028 4.04468C80.1056 4.19003 80.1651 4.362 80.1744 4.54037V7.82208H77.9704V4.54037C77.9689 4.37435 78.0111 4.21092 78.0926 4.06678C78.1742 3.92263 78.2921 3.80294 78.4344 3.71994H79.5944ZM73.4465 3.71994C73.5981 3.79168 73.724 3.90901 73.8071 4.05588C73.8902 4.20275 73.9263 4.37197 73.9105 4.54037V7.82208H71.7065V4.54037C71.7158 4.362 71.7753 4.19003 71.878 4.04468C71.9808 3.89934 72.1225 3.78667 72.2865 3.71994H73.4465ZM27.1629 3.60273C27.3949 3.60273 27.6269 3.71994 27.6269 4.30596V7.35326H26.6989V4.30596C26.6989 3.95435 26.6989 3.83714 26.8149 3.71994L27.1629 3.60273ZM57.0906 3.13392C57.9026 3.13392 58.5986 3.36833 58.5986 3.95435V7.35326H57.9026L57.4386 7.93928H56.3946V8.5253H55.6986V3.83714C55.6807 3.69824 55.7043 3.55709 55.7663 3.4318C55.8283 3.30651 55.9259 3.20278 56.0466 3.13392H57.0906ZM38.4148 3.36833C38.8788 3.36833 39.3428 3.48553 39.3428 4.18875V7.47046H58.2506V4.18875C58.2506 3.48553 37.8348 3.36833 38.4148 3.36833ZM41.0828 3.60273C41.5468 3.60273 41.8948 3.71994 41.8948 4.30596V7.47046H40.1548V4.30596C40.1548 3.71994 40.5028 3.60273 41.0828 3.60273Z" fill="url(#paint0_linear_5_8816)"/>
<path d="M26.4669 1.61023H22.6389V3.2628H26.4669V1.61023Z" fill="#D17E46"/>
<path d="M25.6549 0.672668H23.3349V3.30976H25.6549V0.672668Z" fill="#D17E46"/>
<path d="M50.2467 1.61023H46.9987V3.95431H50.2467V1.61023Z" fill="#D17E46"/>
<path d="M49.6667 0.672668H47.6947V3.30976H49.6667V0.672668Z" fill="#D17E46"/>
<path d="M21.3629 2.54791V44.0381H99.4302V2.54791H21.3629ZM26.6989 8.64252H25.6549V4.30597C25.6549 3.60275 25.8869 3.48554 26.2349 3.48554C26.5829 3.48554 26.6989 3.60275 26.6989 4.30597V8.64252ZM21.2469 8.64252H19.507V4.30597C19.507 3.60275 19.855 3.48554 20.435 3.48554C21.0149 3.48554 21.2469 3.60275 21.2469 4.30597V8.64252ZM39.6908 8.87692H37.6028V4.07156C37.6028 3.48554 38.0668 3.25114 38.6468 3.25114C39.2268 3.25114 39.6908 3.48554 39.6908 4.07156V8.87692ZM62.4266 8.64252H59.2946V3.95436C59.2946 3.25114 59.9906 3.13393 60.9186 3.13393C61.8466 3.13393 62.4266 3.25114 62.4266 3.95436V8.64252ZM74.4904 4.77479V7.82209H71.9385V4.54038C71.9385 4.19845 72.0729 3.87053 72.3122 3.62875C72.5515 3.38697 72.876 3.25114 73.2144 3.25114C73.5529 3.25114 73.8774 3.38697 74.1167 3.62875C74.356 3.87053 74.4904 4.19845 74.4904 4.54038V4.77479ZM80.7544 4.77479V7.82209H78.2024V4.54038C78.2024 4.19845 78.3368 3.87053 78.5761 3.62875C78.8154 3.38697 79.14 3.25114 79.4784 3.25114C79.8168 3.25114 80.1414 3.38697 80.3806 3.62875C80.6199 3.87053 80.7544 4.19845 80.7544 4.54038V4.77479ZM86.9023 4.89199V8.0565H85.0463V4.89199C85.0298 4.75939 85.0415 4.62475 85.0807 4.49709C85.1199 4.36944 85.1856 4.25172 85.2735 4.15183C85.3613 4.05194 85.4693 3.97218 85.5902 3.91791C85.7111 3.86364 85.8421 3.83611 85.9743 3.83716C86.2306 3.86611 86.4673 3.9899 86.6386 4.18467C86.81 4.37944 86.9039 4.6314 86.9023 4.89199ZM92.4703 4.89199V8.0565H91.1943V4.89199C91.1943 4.30597 91.5423 3.83716 91.8903 3.83716C92.2383 3.83716 92.4703 4.30597 92.4703 4.89199Z" fill="#D17E46"/>
<path d="M75.4184 44.0381V37.8263C75.3598 37.2875 75.0982 36.7921 74.6879 36.443C74.2775 36.0938 73.7499 35.9177 73.2144 35.951C72.9554 35.9352 72.6958 35.9711 72.4505 36.0569C72.2052 36.1426 71.9791 36.2764 71.7851 36.4507C71.5911 36.6249 71.4331 36.8361 71.3201 37.0721C71.207 37.3082 71.1413 37.5645 71.1265 37.8263V44.0381H75.4184Z" fill="#A84E11"/>
<path opacity="0.15" d="M72.1704 38.8811V38.6467C72.229 38.1079 72.4906 37.6126 72.901 37.2634C73.3114 36.9143 73.839 36.7381 74.3744 36.7715H75.0704C74.8329 36.5139 74.5457 36.3083 74.2265 36.1672C73.9073 36.0261 73.5628 35.9525 73.2144 35.951C72.9554 35.9352 72.6958 35.9712 72.4505 36.0569C72.2052 36.1426 71.9791 36.2764 71.7851 36.4507C71.5911 36.6249 71.4331 36.8361 71.3201 37.0721C71.207 37.3082 71.1413 37.5645 71.1265 37.8263V43.9209H72.1704V38.8811Z" fill="black"/>
<path d="M73.2144 21.0662C72.6986 21.0629 72.1999 21.2527 71.8143 21.599C71.4288 21.9453 71.1838 22.4235 71.1265 22.9414V29.3876C71.1413 29.6494 71.207 29.9057 71.3201 30.1418C71.4331 30.3778 71.5911 30.589 71.7851 30.7633C71.9791 30.9375 72.2052 31.0713 72.4505 31.157C72.6958 31.2428 72.9554 31.2787 73.2144 31.2629C73.7499 31.2963 74.2775 31.1201 74.6879 30.7709C75.0982 30.4218 75.3598 29.9264 75.4184 29.3876V22.9414C75.3349 22.4136 75.0664 21.9338 74.6617 21.5895C74.2571 21.2452 73.7434 21.0595 73.2144 21.0662Z" fill="#A84E11"/>
<path d="M79.4784 21.0662C78.9494 21.0595 78.4358 21.2452 78.0311 21.5895C77.6265 21.9338 77.3579 22.4136 77.2744 22.9414V29.3876C77.333 29.9264 77.5946 30.4218 78.005 30.7709C78.4153 31.1201 78.9429 31.2963 79.4784 31.2629C79.7375 31.2787 79.9971 31.2428 80.2423 31.157C80.4876 31.0713 80.7137 30.9375 80.9077 30.7633C81.1017 30.589 81.2597 30.3778 81.3728 30.1418C81.4858 29.9057 81.5516 29.6494 81.5664 29.3876V22.9414C81.5091 22.4235 81.264 21.9453 80.8785 21.599C80.493 21.2527 79.9942 21.0629 79.4784 21.0662Z" fill="#A84E11"/>
<path opacity="0.15" d="M78.4344 29.8564V23.4102C78.493 22.8714 78.7546 22.3761 79.165 22.0269C79.5753 21.6778 80.1029 21.5016 80.6384 21.535H80.8704C80.4651 21.2378 79.9791 21.0741 79.4784 21.0661C78.9319 21.0631 78.4038 21.2652 77.9965 21.6334C77.5893 22.0016 77.3319 22.5095 77.2744 23.0586V29.3876C77.3289 29.886 77.5574 30.3484 77.9187 30.6921C78.2801 31.0357 78.7508 31.2381 79.2464 31.2629C79.0207 31.0994 78.8316 30.8897 78.6917 30.6473C78.5518 30.4049 78.4641 30.1354 78.4344 29.8564Z" fill="black"/>
<path opacity="0.15" d="M72.2865 29.8564V23.4102C72.3012 23.1484 72.367 22.8921 72.4801 22.656C72.5931 22.42 72.7511 22.2088 72.9451 22.0346C73.1391 21.8603 73.3652 21.7265 73.6105 21.6408C73.8558 21.555 74.1154 21.5191 74.3744 21.5349H74.6064C74.2012 21.2378 73.7151 21.0741 73.2144 21.0661C72.6802 21.0653 72.166 21.2714 71.7776 21.642C71.3892 22.0126 71.1561 22.5196 71.1265 23.0586V29.3876C71.1541 29.8758 71.3586 30.3367 71.7008 30.6825C72.0431 31.0283 72.4992 31.2349 72.9824 31.2628C72.7726 31.0933 72.6017 30.8797 72.4815 30.6369C72.3613 30.3941 72.2948 30.1278 72.2865 29.8564Z" fill="black"/>
<path d="M85.9743 21.0661C85.4821 21.0661 85.01 21.2637 84.662 21.6154C84.3139 21.967 84.1183 22.444 84.1183 22.9414V29.3876C84.1183 29.8849 84.3139 30.3619 84.662 30.7136C85.01 31.0653 85.4821 31.2628 85.9743 31.2628C86.4666 31.2628 86.9386 31.0653 87.2867 30.7136C87.6348 30.3619 87.8303 29.8849 87.8303 29.3876V22.9414C87.8303 22.444 87.6348 21.967 87.2867 21.6154C86.9386 21.2637 86.4666 21.0661 85.9743 21.0661Z" fill="#A84E11"/>
<path d="M91.8903 21.0661C91.4494 21.1247 91.0474 21.3518 90.7669 21.7005C90.4865 22.0493 90.3489 22.4933 90.3823 22.9414V29.3876C90.3489 29.8357 90.4865 30.2797 90.7669 30.6284C91.0474 30.9772 91.4494 31.2042 91.8903 31.2628C92.7023 31.2628 93.2823 30.4424 93.2823 29.3876V22.9414C93.2823 22.0037 92.7023 21.0661 91.8903 21.0661Z" fill="#A84E11"/>
<path d="M96.7622 21.0661C96.1822 21.0661 95.8342 22.0037 95.8342 22.9414V29.3876C95.8342 30.4424 96.1822 31.2628 96.7622 31.2628C97.3422 31.2628 97.6902 30.4424 97.6902 29.3876V22.9414C97.6902 22.0037 97.2262 21.0661 96.7622 21.0661Z" fill="#A84E11"/>
<path d="M62.7746 9.58016C62.6315 8.94219 62.3546 8.34267 61.9626 7.8221L59.2946 7.35329H58.2506L56.9746 8.99414H56.7426C56.1337 9.2685 55.4475 9.31293 54.8089 9.11935C54.1702 8.92577 53.6216 8.50704 53.2627 7.93931L52.9147 7.23608H10.4591V44.0381H69.0385V20.4801L67.0665 18.9565C67.0665 18.9565 66.0225 16.2608 65.4425 15.9092C64.8626 15.5576 65.3265 15.5576 65.2105 15.4404C65.1516 15.0519 65.1516 14.6567 65.2105 14.2683" fill="#DB7E2D"/>
<path d="M64.0505 21.0661C63.5583 21.0661 63.0862 21.2637 62.7382 21.6154C62.3901 21.967 62.1945 22.444 62.1945 22.9414V29.036H65.7905V22.9414C65.7914 22.4637 65.6119 22.0036 65.2885 21.6551C64.9652 21.3066 64.5224 21.096 64.0505 21.0661Z" fill="#B25C22"/>
<path d="M64.0505 32.5521C63.8068 32.5521 63.5655 32.6006 63.3403 32.6949C63.1151 32.7891 62.9105 32.9272 62.7382 33.1014C62.5658 33.2755 62.4291 33.4822 62.3358 33.7098C62.2426 33.9373 62.1945 34.1811 62.1945 34.4274V41.694H65.7905V34.4274C65.7914 33.9497 65.6119 33.4896 65.2885 33.1412C64.9652 32.7927 64.5224 32.582 64.0505 32.5521Z" fill="#B25C22"/>
<path d="M54.6546 21.0661C54.1624 21.0661 53.6903 21.2637 53.3423 21.6154C52.9942 21.967 52.7987 22.444 52.7987 22.9414V29.036H56.5106V22.9414C56.5106 22.444 56.3151 21.967 55.967 21.6154C55.619 21.2637 55.1469 21.0661 54.6546 21.0661Z" fill="#B25C22"/>
<path d="M54.6546 7.82208C54.1624 7.82208 53.6903 8.01965 53.3423 8.37133C52.9942 8.72301 52.7987 9.19999 52.7987 9.69734V16.964H56.5106V9.69734C56.5106 9.19999 56.3151 8.72301 55.967 8.37133C55.619 8.01965 55.1469 7.82208 54.6546 7.82208Z" fill="#B25C22"/>
<path d="M54.6546 32.5521C54.1624 32.5521 53.6903 32.7497 53.3423 33.1014C52.9942 33.4531 52.7987 33.93 52.7987 34.4274V41.694H56.5106V34.4274C56.5106 33.93 56.3151 33.4531 55.967 33.1014C55.619 32.7497 55.1469 32.5521 54.6546 32.5521Z" fill="#B25C22"/>
<path d="M45.2587 21.0661C44.7868 21.096 44.3441 21.3066 44.0207 21.6551C43.6973 22.0036 43.5178 22.4637 43.5187 22.9414V29.036H47.1147V22.9414C47.1147 22.444 46.9192 21.967 46.5711 21.6154C46.223 21.2637 45.7509 21.0661 45.2587 21.0661Z" fill="#B25C22"/>
<path d="M45.2587 7.82208C44.7868 7.85194 44.3441 8.06261 44.0207 8.41111C43.6973 8.75961 43.5178 9.21965 43.5187 9.69734V16.964H47.1147V9.69734C47.1147 9.19999 46.9192 8.72301 46.5711 8.37133C46.223 8.01965 45.7509 7.82208 45.2587 7.82208Z" fill="#B25C22"/>
<path d="M45.2587 32.5521C44.7868 32.582 44.3441 32.7927 44.0207 33.1412C43.6973 33.4896 43.5178 33.9497 43.5187 34.4274V41.694H47.1147V34.4274C47.1147 33.93 46.9192 33.4531 46.5711 33.1014C46.223 32.7497 45.7509 32.5521 45.2587 32.5521Z" fill="#B25C22"/>
<path d="M37.1388 21.0661C36.6979 21.1247 36.2959 21.3518 36.0154 21.7005C35.735 22.0493 35.5973 22.4933 35.6308 22.9414V29.036H38.6468V22.9414C38.6802 22.4933 38.5426 22.0493 38.2621 21.7005C37.9817 21.3518 37.5797 21.1247 37.1388 21.0661Z" fill="#B25C22"/>
<path d="M37.1388 7.82208C36.6979 7.88072 36.2959 8.10773 36.0154 8.45649C35.735 8.80524 35.5973 9.24926 35.6308 9.69734V16.964H38.6468V9.69734C38.6802 9.24926 38.5426 8.80524 38.2621 8.45649C37.9817 8.10773 37.5797 7.88072 37.1388 7.82208Z" fill="#B25C22"/>
<path d="M37.1388 32.5521C36.6979 32.6108 36.2959 32.8378 36.0154 33.1865C35.735 33.5353 35.5973 33.9793 35.6308 34.4274V41.694H38.6468V34.4274C38.6802 33.9793 38.5426 33.5353 38.2621 33.1865C37.9817 32.8378 37.5797 32.6108 37.1388 32.5521Z" fill="#B25C22"/>
<path d="M30.5268 21.0661C30.0859 21.1247 29.6839 21.3518 29.4035 21.7005C29.123 22.0493 28.9854 22.4933 29.0189 22.9414V29.036H31.9188V22.9414C31.9188 22.0037 31.3388 21.0661 30.5268 21.0661Z" fill="#B25C22"/>
<path d="M30.5268 7.82208C30.0859 7.88072 29.6839 8.10773 29.4035 8.45649C29.123 8.80524 28.9854 9.24926 29.0189 9.69734V16.964H31.9188V9.69734C31.9188 8.64251 31.3388 7.82208 30.5268 7.82208Z" fill="#B25C22"/>
<path d="M30.5268 32.5521C30.0859 32.6108 29.6839 32.8378 29.4035 33.1865C29.123 33.5353 28.9854 33.9793 29.0189 34.4274V41.694H31.9188V34.4274C31.9188 33.3725 31.3388 32.5521 30.5268 32.5521Z" fill="#B25C22"/>
<path d="M24.0309 21.0661C23.4509 21.0661 22.8709 22.0037 22.8709 22.9414V29.036H25.3069V22.9414C25.3069 22.0037 24.7269 21.0661 24.0309 21.0661Z" fill="#B25C22"/>
<path d="M24.0309 7.82208C23.4509 7.82208 22.8709 8.64251 22.8709 9.69734V16.964H25.3069V9.69734C25.3069 8.64251 24.7269 7.82208 24.0309 7.82208Z" fill="#B25C22"/>
<path d="M24.0309 32.5521C23.4509 32.5521 22.8709 33.3725 22.8709 34.4274V41.694H25.3069V34.4274C25.3069 33.3725 24.7269 32.5521 24.0309 32.5521Z" fill="#B25C22"/>
<path d="M19.159 21.0661C18.695 21.0661 18.347 22.0037 18.347 22.9414V29.036H19.971V22.9414C19.971 22.0037 19.623 21.0661 19.159 21.0661Z" fill="#B25C22"/>
<path d="M19.159 7.82208C18.695 7.82208 18.347 8.64251 18.347 9.69734V16.964H19.971V9.69734C19.971 8.64251 19.623 7.82208 19.159 7.82208Z" fill="#B25C22"/>
<path d="M19.159 32.5521C18.695 32.5521 18.347 33.3725 18.347 34.4274V41.694H19.971V34.4274C19.971 33.3725 19.623 32.5521 19.159 32.5521Z" fill="#B25C22"/>
<path d="M14.635 21.0661C14.171 21.0661 13.823 22.0037 13.823 22.9414V29.036H15.447V22.9414C15.447 22.0037 15.099 21.0661 14.635 21.0661Z" fill="#B25C22"/>
<path opacity="0.15" d="M63.2385 34.8963C63.2226 34.6557 63.2559 34.4144 63.3362 34.1874C63.4164 33.9604 63.5421 33.7525 63.7053 33.5766C63.8685 33.4008 64.0657 33.2607 64.2847 33.1651C64.5038 33.0695 64.7399 33.0205 64.9785 33.021H65.2105C65.0398 32.8604 64.8389 32.7362 64.6197 32.6557C64.4005 32.5751 64.1675 32.5399 63.9345 32.5522C63.4627 32.582 63.0199 32.7927 62.6965 33.1412C62.3732 33.4897 62.1936 33.9498 62.1946 34.4274V41.6941H63.2385V34.8963Z" fill="black"/>
<path opacity="0.15" d="M53.8427 34.8961C53.8417 34.4185 54.0213 33.9584 54.3446 33.6099C54.668 33.2614 55.1108 33.0507 55.5826 33.0209H55.8146C55.6657 32.8635 55.485 32.7403 55.2849 32.6594C55.0848 32.5785 54.8699 32.5419 54.6546 32.5521C54.1624 32.5521 53.6903 32.7496 53.3423 33.1013C52.9942 33.453 52.7987 33.93 52.7987 34.4273V41.694H53.8427V34.8961Z" fill="black"/>
<path opacity="0.15" d="M44.4467 34.8962C44.4467 34.3988 44.6423 33.9219 44.9903 33.5702C45.3384 33.2185 45.8105 33.0209 46.3027 33.0209H46.4187C46.2749 32.8569 46.0951 32.729 45.8937 32.6477C45.6923 32.5663 45.4748 32.5335 45.2587 32.5521C44.7868 32.582 44.3441 32.7927 44.0207 33.1411C43.6973 33.4896 43.5178 33.9497 43.5187 34.4274V41.694H44.4467V34.8962Z" fill="black"/>
<path opacity="0.15" d="M36.5588 34.8962C36.5588 33.8414 37.1388 33.021 37.9508 33.021H38.1828C38.0568 32.8662 37.8968 32.7433 37.7156 32.6619C37.5344 32.5805 37.3369 32.5429 37.1388 32.5521C36.3268 32.5521 35.7468 33.3726 35.7468 34.4274V41.694H36.5588V34.8962Z" fill="black"/>
<path opacity="0.15" d="M29.8309 34.8962C29.7974 34.4481 29.935 34.0041 30.2155 33.6553C30.4959 33.3066 30.8979 33.0795 31.3388 33.0209H31.4548C31.354 32.8678 31.2153 32.744 31.0526 32.6618C30.8898 32.5795 30.7086 32.5417 30.5268 32.5521C30.0859 32.6107 29.6839 32.8377 29.4035 33.1865C29.123 33.5352 28.9854 33.9793 29.0189 34.4274V41.694H29.8309V34.8962Z" fill="black"/>
<path opacity="0.15" d="M23.5669 34.8962C23.5669 33.8414 24.1469 33.0209 24.7269 33.0209H24.9589C24.869 32.8844 24.7487 32.7709 24.6078 32.6895C24.4668 32.6081 24.309 32.5611 24.1469 32.5521C23.4509 32.5521 22.8709 33.3725 22.8709 34.4274V41.694H23.5669V34.8962Z" fill="black"/>
<path opacity="0.15" d="M18.811 34.8962C18.811 33.8414 19.159 33.0209 19.623 33.0209H19.739C19.7118 32.8866 19.639 32.7661 19.533 32.6804C19.427 32.5948 19.2947 32.5494 19.159 32.5521C18.695 32.5521 18.347 33.3725 18.347 34.4274V41.694H18.811V34.8962Z" fill="black"/>
<path d="M14.635 7.82208C14.171 7.82208 13.823 8.64251 13.823 9.69734V16.964H15.447V9.69734C15.447 8.64251 15.099 7.82208 14.635 7.82208Z" fill="#B25C22"/>
<path d="M14.635 32.5521C14.171 32.5521 13.823 33.3725 13.823 34.4274V41.694H15.447V34.4274C15.447 33.3725 15.099 32.5521 14.635 32.5521Z" fill="#B25C22"/>
<path opacity="0.15" d="M14.287 34.8962C14.287 33.8414 14.751 33.0209 15.215 33.0209C15.099 32.6693 14.867 32.5521 14.751 32.5521C14.635 32.5521 13.823 33.3725 13.823 34.4274V41.694H14.287V34.8962Z" fill="black"/>
<path opacity="0.15" d="M53.8427 10.2833C53.8417 9.80565 54.0213 9.34561 54.3446 8.99711C54.668 8.64862 55.1108 8.43794 55.5826 8.40809H55.8146C55.4844 8.13586 55.0796 7.97226 54.6546 7.93927C54.1624 7.93927 53.6903 8.13684 53.3423 8.48852C52.9942 8.8402 52.7987 9.31718 52.7987 9.81453V17.0812H53.8427V10.2833Z" fill="black"/>
<path opacity="0.15" d="M44.4467 10.2833C44.4467 9.786 44.6423 9.30902 44.9903 8.95734C45.3384 8.60566 45.8105 8.40809 46.3027 8.40809H46.4187C46.1028 8.11211 45.6895 7.94506 45.2587 7.93927C44.7868 7.96913 44.3441 8.1798 44.0207 8.5283C43.6973 8.87679 43.5178 9.33684 43.5187 9.81453V17.0812H44.4467V10.2833Z" fill="black"/>
<path opacity="0.15" d="M36.5588 10.2833C36.5588 9.22851 37.1388 8.40809 37.9508 8.40809H38.1828C37.8969 8.13755 37.5291 7.97237 37.1388 7.93927C36.3268 7.93927 35.7468 8.8769 35.7468 9.81453V17.0812H36.5588V10.2833Z" fill="black"/>
<path opacity="0.15" d="M29.8309 10.2833C29.7974 9.83526 29.935 9.39124 30.2155 9.04249C30.4959 8.69374 30.8979 8.46673 31.3388 8.40809H31.4548C31.2169 8.13682 30.8844 7.96887 30.5268 7.93927C30.0859 7.99791 29.6839 8.22492 29.4035 8.57368C29.123 8.92243 28.9854 9.36645 29.0189 9.81453V17.0812H29.8309V10.2833Z" fill="black"/>
<path opacity="0.15" d="M23.5669 10.2833C23.5669 9.22851 24.1469 8.40809 24.7269 8.40809H24.9589C24.7443 8.16882 24.4599 8.00465 24.1469 7.93927C23.4509 7.93927 22.8709 8.8769 22.8709 9.81453V17.0812H23.5669V10.2833Z" fill="black"/>
<path opacity="0.15" d="M18.811 10.2833C18.811 9.22851 19.159 8.40809 19.623 8.40809H19.739C19.6862 8.28896 19.606 8.18428 19.5051 8.10274C19.4042 8.02121 19.2856 7.96516 19.159 7.93927C18.695 7.93927 18.347 8.8769 18.347 9.81453V17.0812H18.811V10.2833Z" fill="black"/>
<path opacity="0.15" d="M14.287 10.2833C14.287 9.22851 14.751 8.40809 15.215 8.40809C15.099 8.17368 14.867 7.93927 14.751 7.93927C14.635 7.93927 13.823 8.8769 13.823 9.81453V17.0812H14.287V10.2833Z" fill="black"/>
<path opacity="0.15" d="M63.2385 23.4102C63.2226 23.1696 63.2559 22.9284 63.3362 22.7014C63.4164 22.4743 63.5421 22.2664 63.7053 22.0906C63.8685 21.9147 64.0657 21.7746 64.2847 21.679C64.5038 21.5834 64.7399 21.5344 64.9785 21.5349H65.2105C64.8378 21.2596 64.3952 21.097 63.9345 21.0661C63.4627 21.096 63.0199 21.3066 62.6965 21.6551C62.3732 22.0036 62.1936 22.4637 62.1946 22.9414V29.036H63.2385V23.4102Z" fill="black"/>
<path opacity="0.15" d="M53.8427 23.4102C53.8417 22.9325 54.0213 22.4724 54.3446 22.1239C54.668 21.7754 55.1108 21.5648 55.5826 21.5349H55.8146C55.4844 21.2627 55.0796 21.0991 54.6546 21.0661C54.1624 21.0661 53.6903 21.2637 53.3423 21.6154C52.9942 21.967 52.7987 22.444 52.7987 22.9414V29.036H53.8427V23.4102Z" fill="black"/>
<path opacity="0.15" d="M44.4467 23.4102C44.4467 22.9128 44.6423 22.4358 44.9903 22.0842C45.3384 21.7325 45.8105 21.5349 46.3027 21.5349H46.4187C46.1028 21.2389 45.6895 21.0719 45.2587 21.0661C44.7868 21.096 44.3441 21.3066 44.0207 21.6551C43.6973 22.0036 43.5178 22.4637 43.5187 22.9414V29.036H44.4467V23.4102Z" fill="black"/>
<path opacity="0.15" d="M36.5588 23.4102C36.5588 22.3553 37.1388 21.5349 37.9508 21.5349H38.1828C37.8969 21.2644 37.5291 21.0992 37.1388 21.0661C36.3268 21.0661 35.7468 22.0037 35.7468 22.9414V29.036H36.5588V23.4102Z" fill="black"/>
<path opacity="0.15" d="M29.8309 23.4102C29.7974 22.9621 29.935 22.5181 30.2155 22.1693C30.4959 21.8206 30.8979 21.5936 31.3388 21.5349H31.4548C31.2169 21.2637 30.8844 21.0957 30.5268 21.0661C30.0859 21.1247 29.6839 21.3518 29.4035 21.7005C29.123 22.0493 28.9854 22.4933 29.0189 22.9414V29.036H29.8309V23.4102Z" fill="black"/>
<path opacity="0.15" d="M23.5669 23.4102C23.5669 22.3553 24.1469 21.5349 24.7269 21.5349H24.9589C24.7443 21.2956 24.4599 21.1315 24.1469 21.0661C23.4509 21.0661 22.8709 22.0037 22.8709 22.9414V29.036H23.5669V23.4102Z" fill="black"/>
<path opacity="0.15" d="M18.811 23.4102C18.811 22.3553 19.159 21.5349 19.623 21.5349H19.739C19.6862 21.4158 19.606 21.3111 19.5051 21.2296C19.4042 21.148 19.2856 21.092 19.159 21.0661C18.695 21.0661 18.347 22.0037 18.347 22.9414V29.036H18.811V23.4102Z" fill="black"/>
<path opacity="0.15" d="M14.287 23.4102C14.287 22.3553 14.751 21.5349 15.215 21.5349C15.099 21.3005 14.867 21.0661 14.751 21.0661C14.635 21.0661 13.823 22.0037 13.823 22.9414V29.036H14.287V23.4102Z" fill="black"/>
<path d="M65.2105 29.622H11.271V30.2666H65.2105V29.622Z" fill="#EF9E67"/>
<path d="M65.2105 31.2629H11.271V31.9075H65.2105V31.2629Z" fill="#EF9E67"/>
<path d="M59.9906 31.4973H58.7146V34.4039H59.9906V31.4973Z" fill="#EF9E67"/>
<path d="M50.5947 31.4973H49.3187V34.4039H50.5947V31.4973Z" fill="#EF9E67"/>
<path d="M41.5468 31.4973H40.6188V34.4039H41.5468V31.4973Z" fill="#EF9E67"/>
<path d="M34.3548 31.4973H33.4268V34.4039H34.3548V31.4973Z" fill="#EF9E67"/>
<path d="M27.5109 31.4973H26.8149V34.4039H27.5109V31.4973Z" fill="#EF9E67"/>
<path d="M21.7109 31.4973H21.015V34.4039H21.7109V31.4973Z" fill="#EF9E67"/>
<path d="M17.071 31.4973H16.607V34.4039H17.071V31.4973Z" fill="#EF9E67"/>
<path d="M12.779 31.4973H12.315V34.4039H12.779V31.4973Z" fill="#EF9E67"/>
<path d="M64.6305 31.6145H63.4706V33.314H64.6305V31.6145Z" fill="#EF9E67"/>
<path d="M62.3105 34.193V33.7242H59.9906V34.193H62.3105Z" fill="#EF9E67"/>
<path d="M55.2346 31.6145H54.0746V33.314H55.2346V31.6145Z" fill="#EF9E67"/>
<path d="M52.9147 34.193V33.7242H50.5947V34.193H52.9147Z" fill="#EF9E67"/>
<path d="M58.7146 34.193V33.7242H56.3946V34.193H58.7146Z" fill="#EF9E67"/>
<path d="M45.9547 31.6145H44.7947V33.314H45.9547V31.6145Z" fill="#EF9E67"/>
<path d="M43.5187 34.193V33.7242H41.1987V34.193H43.5187Z" fill="#EF9E67"/>
<path d="M49.3187 34.0758V33.6069H46.9987V34.0758H49.3187Z" fill="#EF9E67"/>
<path d="M37.6028 31.6145H36.6748V33.314H37.6028V31.6145Z" fill="#EF9E67"/>
<path d="M35.7468 34.193V33.7242H33.856V34.193H35.7468Z" fill="#EF9E67"/>
<path d="M40.6188 34.193V33.7242H38.4844V34.193H40.6188Z" fill="#EF9E67"/>
<path d="M30.8749 31.6145H30.0629V33.314H30.8749V31.6145Z" fill="#EF9E67"/>
<path d="M29.2509 34.193V33.7242H27.4877V34.193H29.2509Z" fill="#EF9E67"/>
<path d="M33.7748 34.193V33.7242H31.7913V34.193H33.7748Z" fill="#EF9E67"/>
<path d="M24.3789 31.6145H23.6829V33.314H24.3789V31.6145Z" fill="#EF9E67"/>
<path d="M22.9869 34.193V33.7242H21.5138V34.193H22.9869Z" fill="#EF9E67"/>
<path d="M26.8149 34.193V33.7242H25.1561V34.193H26.8149Z" fill="#EF9E67"/>
<path d="M19.391 31.6145H18.811V33.314H19.391V31.6145Z" fill="#EF9E67"/>
<path d="M18.347 34.193V33.7242H16.9202V34.193H18.347Z" fill="#EF9E67"/>
<path d="M21.2469 34.193V33.7242H19.8202V34.193H21.2469Z" fill="#EF9E67"/>
<path d="M14.983 31.6145H14.403V33.314H14.983V31.6145Z" fill="#EF9E67"/>
<path d="M13.939 34.193V33.7242H12.5122V34.193H13.939Z" fill="#EF9E67"/>
<path d="M12.431 34.193V33.7242H11.2478V34.193H12.431Z" fill="#EF9E67"/>
<path d="M16.723 34.193V33.7242H15.2962V34.193H16.723Z" fill="#EF9E67"/>
<path d="M59.9906 40.8736H58.7146V44.0264H59.9906V40.8736Z" fill="#EF9E67"/>
<path d="M50.5947 40.8736H49.3187V44.0264H50.5947V40.8736Z" fill="#EF9E67"/>
<path d="M41.5468 40.8736H40.6188V44.0264H41.5468V40.8736Z" fill="#EF9E67"/>
<path d="M34.3548 40.8736H33.4268V44.0264H34.3548V40.8736Z" fill="#EF9E67"/>
<path d="M27.5109 40.8736H26.8149V44.0264H27.5109V40.8736Z" fill="#EF9E67"/>
<path d="M21.7109 40.8736H21.015V44.0264H21.7109V40.8736Z" fill="#EF9E67"/>
<path d="M17.071 40.8736H16.607V44.0264H17.071V40.8736Z" fill="#EF9E67"/>
<path d="M12.779 40.8736H12.315V44.0264H12.779V40.8736Z" fill="#EF9E67"/>
<path d="M59.9906 37.2403H58.7146V38.3303H59.9906V37.2403Z" fill="#D17E46"/>
<path d="M50.5947 37.2403H49.3187V38.3303H50.5947V37.2403Z" fill="#D17E46"/>
<path d="M41.5468 37.2403H40.6188V38.3303H41.5468V37.2403Z" fill="#D17E46"/>
<path d="M34.3548 37.2403H33.4268V38.3303H34.3548V37.2403Z" fill="#D17E46"/>
<path d="M27.5109 37.2403H26.8149V38.3303H27.5109V37.2403Z" fill="#D17E46"/>
<path d="M21.7109 37.2403H21.015V38.3303H21.7109V37.2403Z" fill="#D17E46"/>
<path d="M17.071 37.2403H16.607V38.3303H17.071V37.2403Z" fill="#D17E46"/>
<path d="M12.779 37.2403H12.315V38.3303H12.779V37.2403Z" fill="#D17E46"/>
<path d="M59.9906 35.2478H58.7146V36.3378H59.9906V35.2478Z" fill="#D17E46"/>
<path d="M50.5947 35.2478H49.3187V36.3378H50.5947V35.2478Z" fill="#D17E46"/>
<path d="M41.5468 35.2478H40.6188V36.3378H41.5468V35.2478Z" fill="#D17E46"/>
<path d="M34.3548 35.2478H33.4268V36.3378H34.3548V35.2478Z" fill="#D17E46"/>
<path d="M27.5109 35.2478H26.8149V36.3378H27.5109V35.2478Z" fill="#D17E46"/>
<path d="M21.7109 35.2478H21.015V36.3378H21.7109V35.2478Z" fill="#D17E46"/>
<path d="M17.071 35.2478H16.607V36.3378H17.071V35.2478Z" fill="#D17E46"/>
<path d="M12.779 35.2478H12.315V36.3378H12.779V35.2478Z" fill="#D17E46"/>
<path d="M59.9906 39.2327H58.7146V40.3227H59.9906V39.2327Z" fill="#D17E46"/>
<path d="M50.5947 39.2327H49.3187V40.3227H50.5947V39.2327Z" fill="#D17E46"/>
<path d="M41.5468 39.2327H40.6188V40.3227H41.5468V39.2327Z" fill="#D17E46"/>
<path d="M34.3548 39.2327H33.4268V40.3227H34.3548V39.2327Z" fill="#D17E46"/>
<path d="M27.5109 39.2327H26.8149V40.3227H27.5109V39.2327Z" fill="#D17E46"/>
<path d="M21.7109 39.2327H21.015V40.3227H21.7109V39.2327Z" fill="#D17E46"/>
<path d="M17.071 39.2327H16.607V40.3227H17.071V39.2327Z" fill="#D17E46"/>
<path d="M12.779 39.2327H12.315V40.3227H12.779V39.2327Z" fill="#D17E46"/>
<path d="M65.2105 18.722H11.271V19.3667H65.2105V18.722Z" fill="#EF9E67"/>
<path d="M65.2105 19.8941H11.271V20.5387H65.2105V19.8941Z" fill="#EF9E67"/>
<path d="M59.9906 19.0736H58.7146V29.997H59.9906V19.0736Z" fill="#EF9E67"/>
<path d="M50.5947 19.0736H49.3187V29.997H50.5947V19.0736Z" fill="#EF9E67"/>
<path d="M41.5468 19.0736H40.6188V29.997H41.5468V19.0736Z" fill="#EF9E67"/>
<path d="M34.3548 19.0736H33.4268V29.997H34.3548V19.0736Z" fill="#EF9E67"/>
<path d="M27.5109 19.0736H26.8149V29.997H27.5109V19.0736Z" fill="#EF9E67"/>
<path d="M21.7109 19.0736H21.015V29.997H21.7109V19.0736Z" fill="#EF9E67"/>
<path d="M17.071 19.0736H16.607V29.997H17.071V19.0736Z" fill="#EF9E67"/>
<path d="M12.779 19.0736H12.315V29.997H12.779V19.0736Z" fill="#EF9E67"/>
<path d="M59.9906 7.35333H58.7146V19.0503H59.9906V7.35333Z" fill="#EF9E67"/>
<path d="M50.5947 7.35333H49.3187V19.0503H50.5947V7.35333Z" fill="#EF9E67"/>
<path d="M41.5468 7.35333H40.6188V19.0503H41.5468V7.35333Z" fill="#EF9E67"/>
<path d="M34.3548 7.35333H33.4268V19.0503H34.3548V7.35333Z" fill="#EF9E67"/>
<path d="M27.5109 7.35333H26.8149V19.0503H27.5109V7.35333Z" fill="#EF9E67"/>
<path d="M21.7109 7.35333H21.015V19.0503H21.7109V7.35333Z" fill="#EF9E67"/>
<path d="M17.071 7.35333H16.607V19.0503H17.071V7.35333Z" fill="#EF9E67"/>
<path d="M12.779 7.35333H12.315V19.0503H12.779V7.35333Z" fill="#EF9E67"/>
<path d="M60.9186 18.0188V17.55H32.8468V18.0188H32.0349V19.1908H61.6146V18.0188H60.9186Z" fill="#EF9E67"/>
<path d="M28.9029 18.0188V17.55H20.551V18.0188H20.319V19.1908H29.1349V18.0188H28.9029Z" fill="#EF9E67"/>
<path d="M17.651 18.0188V17.55H11.735V18.0188H11.619V19.1908H17.767V18.0188H17.651Z" fill="#EF9E67"/>
<path d="M81.5664 44.0381V37.8263C81.5516 37.5645 81.4858 37.3082 81.3728 37.0721C81.2597 36.8361 81.1017 36.6249 80.9077 36.4507C80.7137 36.2764 80.4876 36.1426 80.2423 36.0569C79.9971 35.9711 79.7375 35.9352 79.4784 35.951C78.9429 35.9177 78.4153 36.0938 78.005 36.443C77.5946 36.7921 77.333 37.2875 77.2744 37.8263V44.0381H81.5664Z" fill="#A84E11"/>
<path opacity="0.15" d="M78.4344 38.8811V38.5295C78.5179 38.0017 78.7865 37.5219 79.1911 37.1776C79.5957 36.8333 80.1094 36.6476 80.6384 36.6543H81.3344C81.0968 36.3967 80.8096 36.1911 80.4904 36.05C80.1712 35.9089 79.8268 35.8353 79.4784 35.8338C78.9429 35.8005 78.4153 35.9766 78.005 36.3258C77.5946 36.675 77.333 37.1703 77.2744 37.7091V43.9209H78.4344V38.8811Z" fill="black"/>
<path d="M87.8303 44.0381V37.8263C87.8303 37.329 87.6348 36.852 87.2867 36.5003C86.9386 36.1486 86.4666 35.951 85.9743 35.951C85.4821 35.951 85.01 36.1486 84.662 36.5003C84.3139 36.852 84.1183 37.329 84.1183 37.8263V44.0381H87.8303Z" fill="#A84E11"/>
<path d="M93.2823 44.0381V37.8263C93.2823 36.7715 92.7023 35.951 91.8903 35.951C91.4494 36.0097 91.0474 36.2367 90.7669 36.5855C90.4865 36.9342 90.3489 37.3782 90.3823 37.8263V44.0381H93.2823Z" fill="#A84E11"/>
<path d="M97.6902 44.0381V37.8263C97.6902 36.7715 97.2262 35.951 96.7622 35.951C96.2982 35.951 95.8342 36.7715 95.8342 37.8263V44.0381H97.6902Z" fill="#A84E11"/>
<path d="M75.4184 16.964V11.3382C75.3598 10.7994 75.0982 10.304 74.6879 9.95489C74.2775 9.60573 73.7499 9.42957 73.2144 9.46292C72.9554 9.44707 72.6958 9.48305 72.4505 9.56879C72.2052 9.65452 71.9791 9.78834 71.7851 9.96256C71.5911 10.1368 71.4331 10.348 71.3201 10.584C71.207 10.8201 71.1413 11.0764 71.1265 11.3382V16.964H75.4184Z" fill="#A84E11"/>
<path opacity="0.15" d="M72.0545 12.1586V11.807C72.113 11.2682 72.3746 10.7729 72.785 10.4237C73.1954 10.0746 73.723 9.89841 74.2584 9.93177H74.8384C74.3808 9.55195 73.8067 9.34477 73.2144 9.34575C72.9554 9.32989 72.6958 9.36587 72.4505 9.45161C72.2052 9.53735 71.9791 9.67116 71.7851 9.84538C71.5911 10.0196 71.4331 10.2308 71.3201 10.4669C71.207 10.7029 71.1413 10.9592 71.1265 11.221V16.8468H72.0545V12.1586Z" fill="black"/>
<path d="M81.5664 16.964V11.3382C81.5516 11.0764 81.4858 10.8201 81.3728 10.584C81.2597 10.348 81.1017 10.1368 80.9077 9.96256C80.7137 9.78834 80.4876 9.65452 80.2423 9.56879C79.9971 9.48305 79.7375 9.44707 79.4784 9.46292C78.9429 9.42957 78.4153 9.60573 78.005 9.95489C77.5946 10.304 77.333 10.7994 77.2744 11.3382V16.964H81.5664Z" fill="#A84E11"/>
<path d="M87.8303 16.9639V11.3382C87.8303 10.8408 87.6348 10.3638 87.2867 10.0121C86.9386 9.66046 86.4666 9.46289 85.9743 9.46289C85.4821 9.46289 85.01 9.66046 84.662 10.0121C84.3139 10.3638 84.1183 10.8408 84.1183 11.3382V16.9639H87.8303Z" fill="#A84E11"/>
<path d="M93.2823 16.9639V11.3382C93.2823 10.2833 92.7023 9.46289 91.8903 9.46289C91.4494 9.52153 91.0474 9.74854 90.7669 10.0973C90.4865 10.446 90.3489 10.8901 90.3823 11.3382V16.9639H93.2823Z" fill="#A84E11"/>
<path d="M97.6902 16.9639V11.3382C97.6902 10.2833 97.2262 9.46289 96.7622 9.46289C96.2982 9.46289 95.8342 10.2833 95.8342 11.3382V16.9639H97.6902Z" fill="#A84E11"/>
<path opacity="0.15" d="M78.3184 12.1586V11.807C78.3324 11.5344 78.4016 11.2676 78.5219 11.0231C78.6422 10.7787 78.8109 10.5618 79.0175 10.386C79.2242 10.2102 79.4644 10.0791 79.7233 10.001C79.9821 9.92282 80.2541 9.89926 80.5224 9.93174H81.1024C80.6222 9.60932 80.0547 9.44551 79.4784 9.46292C78.9429 9.42957 78.4153 9.60573 78.005 9.95489C77.5946 10.304 77.333 10.7994 77.2744 11.3382V16.964H78.3184V12.1586Z" fill="black"/>
<path opacity="0.15" d="M84.9304 12.1586V11.807C84.96 11.2991 85.1807 10.822 85.5474 10.4733C85.9141 10.1246 86.3988 9.93085 86.9024 9.93173H87.3663C86.9975 9.55777 86.4969 9.347 85.9744 9.34571C85.7205 9.34521 85.4693 9.39731 85.2362 9.49879C85.0032 9.60028 84.7932 9.74899 84.6192 9.93573C84.4453 10.1225 84.3111 10.3433 84.2249 10.5845C84.1388 10.8257 84.1025 11.0822 84.1184 11.3382V16.964H84.9304V12.1586Z" fill="black"/>
<path opacity="0.15" d="M91.0783 12.1586V11.807C91.0783 10.7522 91.6583 9.93172 92.4703 9.93172H92.9343C92.7911 9.75876 92.6143 9.61746 92.4147 9.51664C92.2151 9.41581 91.9971 9.35762 91.7743 9.3457C90.9623 9.3457 90.3823 10.1661 90.3823 11.221V16.8468H91.0783V12.1586Z" fill="black"/>
<path opacity="0.15" d="M96.2982 12.1586V11.807C96.2982 10.7522 96.6462 9.93172 97.2262 9.93172H97.4582C97.413 9.77522 97.3226 9.6359 97.1986 9.53152C97.0747 9.42714 96.9227 9.36245 96.7622 9.3457C96.2982 9.3457 95.8342 10.1661 95.8342 11.221V16.8468H96.2982V12.1586Z" fill="black"/>
<path opacity="0.15" d="M85.0463 29.8564V23.4102C85.076 22.9023 85.2967 22.4251 85.6634 22.0765C86.03 21.7278 86.5148 21.534 87.0183 21.5349H87.2503C86.8776 21.2596 86.435 21.097 85.9743 21.0661C85.4513 21.0661 84.9497 21.276 84.5799 21.6497C84.2101 22.0233 84.0023 22.5301 84.0023 23.0586V29.3876C84.0266 29.8574 84.2146 30.3034 84.533 30.6466C84.8515 30.9898 85.2799 31.2081 85.7423 31.2628C85.5325 31.0933 85.3616 30.8797 85.2414 30.6369C85.1212 30.3941 85.0547 30.1278 85.0463 29.8564Z" fill="black"/>
<path opacity="0.15" d="M91.1943 29.8564V23.4102C91.1608 22.9621 91.2985 22.5181 91.5789 22.1693C91.8594 21.8206 92.2613 21.5936 92.7023 21.5349H92.9343C92.6362 21.2836 92.2746 21.1213 91.8903 21.0661C91.0783 21.0661 90.3823 22.0037 90.3823 23.0586V29.3876C90.3454 29.8184 90.467 30.2479 90.7238 30.5938C90.9806 30.9398 91.3546 31.178 91.7743 31.2628C91.4143 30.8834 91.2075 30.3818 91.1943 29.8564Z" fill="black"/>
<path opacity="0.15" d="M96.2982 29.8564V23.4102C96.2982 22.3553 96.7622 21.5349 97.2262 21.5349H97.3422C97.2894 21.4158 97.2093 21.3111 97.1084 21.2296C97.0075 21.148 96.8888 21.092 96.7622 21.0661C96.2982 21.0661 95.8342 22.0037 95.8342 23.0586V29.3876C95.8342 30.3252 96.1822 31.1456 96.6462 31.2628C96.4106 30.8328 96.2906 30.3479 96.2982 29.8564Z" fill="black"/>
<path opacity="0.15" d="M85.0464 38.8811V38.5295C85.076 38.0217 85.2968 37.5445 85.6634 37.1958C86.0301 36.8471 86.5148 36.6534 87.0183 36.6543H87.5983C87.4125 36.3961 87.168 36.1867 86.8854 36.044C86.6027 35.9012 86.2903 35.8291 85.9744 35.8338C85.7205 35.8333 85.4693 35.8854 85.2362 35.9869C85.0032 36.0884 84.7932 36.2371 84.6192 36.4239C84.4453 36.6106 84.3111 36.8314 84.2249 37.0726C84.1388 37.3138 84.1025 37.5704 84.1184 37.8263V44.0381H85.0464V38.8811Z" fill="black"/>
<path opacity="0.15" d="M91.1943 38.8812V38.5296C91.1608 38.0815 91.2985 37.6374 91.5789 37.2887C91.8594 36.9399 92.2614 36.7129 92.7023 36.6543H93.1663C93.0284 36.4293 92.8421 36.2387 92.6211 36.0967C92.4002 35.9546 92.1504 35.8648 91.8903 35.8339C91.4494 35.8925 91.0474 36.1195 90.7669 36.4683C90.4865 36.817 90.3489 37.261 90.3823 37.7091V43.9209H91.1943V38.8812Z" fill="black"/>
<path opacity="0.15" d="M96.2982 38.8812V38.5296C96.2982 37.5919 96.7622 36.6543 97.2262 36.6543H97.5742C97.3422 36.1855 97.1102 35.8339 96.7622 35.8339C96.4142 35.8339 95.8342 36.6543 95.8342 37.7091V43.9209H96.2982V38.8812Z" fill="black"/>
<path d="M83.4223 11.3383H82.2624V44.0264H83.4223V11.3383Z" fill="#DD8B52"/>
<path d="M76.9264 11.3383H75.7664V44.0264H76.9264V11.3383Z" fill="#DD8B52"/>
<path d="M89.8023 11.3383H88.6423V44.0264H89.8023V11.3383Z" fill="#DD8B52"/>
<path d="M94.9062 11.3383H94.2102V44.0264H94.9062V11.3383Z" fill="#DD8B52"/>
<path d="M98.8502 11.3383H98.1542V44.0264H98.8502V11.3383Z" fill="#DD8B52"/>
<path d="M83.4223 18.722H82.2624V20.82H83.4223V18.722Z" fill="#EF9E67"/>
<path d="M76.9264 18.722H75.7664V20.82H76.9264V18.722Z" fill="#EF9E67"/>
<path d="M89.8023 18.722H88.6423V20.82H89.8023V18.722Z" fill="#EF9E67"/>
<path d="M94.9062 18.722H94.2102V20.82H94.9062V18.722Z" fill="#EF9E67"/>
<path d="M98.8502 18.722H98.1542V20.82H98.8502V18.722Z" fill="#EF9E67"/>
<path d="M83.4223 33.8414H82.2624V35.9393H83.4223V33.8414Z" fill="#EF9E67"/>
<path d="M76.9264 33.8414H75.7664V35.9393H76.9264V33.8414Z" fill="#EF9E67"/>
<path d="M89.8023 33.8414H88.6423V35.9393H89.8023V33.8414Z" fill="#EF9E67"/>
<path d="M94.9062 33.8414H94.2102V35.9393H94.9062V33.8414Z" fill="#EF9E67"/>
<path d="M98.8502 33.8414H98.1542V35.9393H98.8502V33.8414Z" fill="#EF9E67"/>
<path d="M70.4305 1.61023H63.3545V4.24732H70.4305V1.61023Z" fill="#D17E46"/>
<path d="M69.0385 0.672668H64.7465V3.30976H69.0385V0.672668Z" fill="#D17E46"/>
<path d="M98.0382 1.61023H93.7463V4.24732H98.0382V1.61023Z" fill="#D17E46"/>
<path d="M97.2262 0.672668H94.5583V3.30976H97.2262V0.672668Z" fill="#D17E46"/>
<path d="M69.1545 44.0381H9.99506V46.0541H69.1545V44.0381Z" fill="#EF9E67"/>
<path d="M100.242 44.0381H69.0385V46.0541H100.242V44.0381Z" fill="#EF9E67"/>
<path opacity="0.1" d="M33.7748 3.36831C33.5428 3.36831 33.4268 3.13391 33.4268 2.54789H26.4669V1.61026H25.7709V0.55542H23.4509V1.61026H22.6389V2.43068H22.4069V7.35325H11.271V18.722H11.155V19.3081H11.271V19.8941H11.155V20.4801H11.271V29.622H11.155V30.208H11.271V31.1457H11.155V31.8489H11.271V33.6069H11.155V34.0758H11.271V44.0381H10.807V46.0306H33.7748V3.36831ZM27.6269 7.35325H26.6989V4.18874C26.6989 3.60272 26.9309 3.36831 27.1629 3.36831C27.3949 3.36831 27.6269 3.60272 27.6269 4.18874V7.35325Z" fill="white"/>
<path opacity="0.1" d="M99.3142 2.54793H97.9222V1.6103H97.1102V0.672668H94.4423V1.6103H93.5143V2.54793H70.3145V1.6103H68.9225V0.672668H66.4865V46.0306H100.242V44.0381H99.3142V2.54793ZM74.3744 4.77481V7.82211H71.8225V4.5404C71.8225 4.19847 71.9569 3.87055 72.1962 3.62877C72.4355 3.38699 72.7601 3.25116 73.0985 3.25116C73.4369 3.25116 73.7614 3.38699 74.0007 3.62877C74.24 3.87055 74.3744 4.19847 74.3744 4.5404V4.77481ZM80.5224 4.77481V7.82211H78.0864V4.5404C78.1009 4.38619 78.1455 4.23642 78.2176 4.09973C78.2898 3.96305 78.388 3.84217 78.5067 3.74408C78.6253 3.64599 78.762 3.57264 78.9089 3.52827C79.0558 3.48389 79.2099 3.46938 79.3624 3.48556C79.5089 3.46901 79.6573 3.484 79.7976 3.52954C79.938 3.57509 80.0672 3.65016 80.1768 3.74981C80.2864 3.84946 80.3739 3.97144 80.4334 4.1077C80.493 4.24397 80.5233 4.39144 80.5224 4.5404V4.77481ZM86.7863 4.89201V8.05652H84.9303V4.89201C84.9138 4.75941 84.9255 4.62477 84.9647 4.49711C85.0039 4.36946 85.0696 4.25174 85.1575 4.15185C85.2454 4.05196 85.3533 3.9722 85.4742 3.91793C85.5951 3.86366 85.7261 3.83613 85.8583 3.83717C86.1147 3.86612 86.3513 3.98992 86.5227 4.18469C86.694 4.37946 86.7879 4.63142 86.7863 4.89201ZM92.3543 4.89201V8.05652H91.0783V4.89201C91.0783 4.30599 91.3103 3.83717 91.6583 3.83717C92.0063 3.83717 92.3543 4.30599 92.3543 4.89201Z" fill="black"/>
<path opacity="0.1" d="M99.3142 2.54793H97.9222V1.6103H97.1102V0.672668H94.4422V1.6103H93.6302V2.54793H82.2624V46.0306H100.242V44.0381H99.3142V2.54793ZM86.7863 4.89201V8.05652H84.9303V4.89201C84.9138 4.75941 84.9255 4.62477 84.9647 4.49711C85.0038 4.36946 85.0696 4.25174 85.1575 4.15185C85.2453 4.05196 85.3533 3.9722 85.4742 3.91793C85.5951 3.86366 85.7261 3.83613 85.8583 3.83717C86.1146 3.86612 86.3513 3.98992 86.5226 4.18469C86.694 4.37946 86.7879 4.63142 86.7863 4.89201ZM92.3543 4.89201V8.05652H91.0783V4.89201C91.0783 4.30599 91.3103 3.83717 91.6583 3.83717C92.0063 3.83717 92.3543 4.30599 92.3543 4.89201Z" fill="black"/>
<path d="M124.022 37.4747V19.1909H89.9183V37.4747H88.6423V45.9134H100.706V37.2403C100.337 36.3077 100.14 35.3146 100.126 34.3102C100.126 31.2629 104.418 28.6844 106.274 27.7468C106.509 27.6325 106.767 27.5732 107.028 27.5732C107.289 27.5732 107.547 27.6325 107.782 27.7468C109.522 28.6844 113.93 31.2629 113.93 34.3102C113.945 35.2932 113.705 36.263 113.234 37.1231V45.9134H125.414V37.4747H124.022Z" fill="#E1A877"/>
<path opacity="0.15" d="M107.782 27.3951C107.547 27.2808 107.289 27.2215 107.028 27.2215C106.767 27.2215 106.509 27.2808 106.274 27.3951C104.418 28.3328 99.8942 31.0285 99.8942 34.193C99.8887 35.2496 100.127 36.293 100.59 37.2403V45.9134H101.402V36.7714C101.07 35.9955 100.912 35.1551 100.938 34.3102C100.938 31.6145 104.766 29.2704 106.39 28.45C106.584 28.3368 106.804 28.2772 107.028 28.2772C107.252 28.2772 107.472 28.3368 107.666 28.45C109.29 29.2704 113.118 31.6145 113.118 34.3102C113.091 35.1617 112.893 35.9988 112.538 36.7714V44.9757V45.9134H113.466V37.1231C113.846 36.1937 114.043 35.1985 114.046 34.193C114.046 31.0285 109.638 28.3328 107.782 27.3951Z" fill="url(#paint1_linear_5_8816)"/>
<path d="M91.4263 17.7845C91.4194 17.6357 91.3725 17.4917 91.2908 17.3678C91.2091 17.2439 91.0955 17.1449 90.9623 17.0812V16.1436C91.0462 16.0485 91.1101 15.937 91.15 15.8161C91.1899 15.6952 91.205 15.5674 91.1943 15.4404C91.1943 15.316 91.1454 15.1968 91.0584 15.1089C90.9714 15.021 90.8534 14.9716 90.7303 14.9716C90.6072 14.9716 90.4892 15.021 90.4022 15.1089C90.3152 15.1968 90.2663 15.316 90.2663 15.4404C90.2556 15.5674 90.2707 15.6952 90.3106 15.8161C90.3505 15.937 90.4144 16.0485 90.4983 16.1436V17.0812C90.3651 17.1449 90.2515 17.2439 90.1698 17.3678C90.088 17.4917 90.0412 17.6357 90.0343 17.7845H89.9183V18.0189H91.4263V17.7845Z" fill="#FED899"/>
<path d="M95.7182 17.7845C95.7113 17.6357 95.6645 17.4917 95.5828 17.3678C95.501 17.2439 95.3875 17.1449 95.2542 17.0812V16.1436C95.3382 16.0485 95.4021 15.937 95.4419 15.8161C95.4818 15.6952 95.4969 15.5674 95.4863 15.4404C95.4863 15.316 95.4374 15.1968 95.3504 15.1089C95.2633 15.021 95.1453 14.9716 95.0223 14.9716C94.8992 14.9716 94.7812 15.021 94.6942 15.1089C94.6071 15.1968 94.5583 15.316 94.5583 15.4404C94.5476 15.5674 94.5627 15.6952 94.6026 15.8161C94.6424 15.937 94.7063 16.0485 94.7903 16.1436V17.0812C94.657 17.1449 94.5435 17.2439 94.4617 17.3678C94.38 17.4917 94.3332 17.6357 94.3263 17.7845V18.0189H95.8342V17.7845H95.7182Z" fill="#FED899"/>
<path d="M100.01 17.7845C100.003 17.6357 99.9565 17.4917 99.8747 17.3678C99.793 17.2439 99.6794 17.1449 99.5462 17.0812V16.1436C99.6302 16.0485 99.694 15.937 99.7339 15.8161C99.7738 15.6952 99.7889 15.5674 99.7782 15.4404C99.7782 15.316 99.7293 15.1968 99.6423 15.1089C99.5553 15.021 99.4373 14.9716 99.3142 14.9716C99.1912 14.9716 99.0731 15.021 98.9861 15.1089C98.8991 15.1968 98.8502 15.316 98.8502 15.4404C98.8323 15.5793 98.8559 15.7204 98.9179 15.8457C98.9799 15.971 99.0775 16.0747 99.1982 16.1436V17.0812C99.1213 17.0952 99.048 17.1246 98.9827 17.1679C98.9173 17.2112 98.8613 17.2673 98.818 17.333C98.7746 17.3987 98.7449 17.4725 98.7305 17.5501C98.7161 17.6277 98.7174 17.7074 98.7342 17.7845H98.6182V18.0189H100.126V17.7845H100.01Z" fill="#FED899"/>
<path d="M97.9222 17.7845C97.9245 17.6166 97.8673 17.4534 97.761 17.3244C97.6546 17.1955 97.5061 17.1092 97.3422 17.0812V16.1436C97.463 16.0747 97.5606 15.971 97.6226 15.8457C97.6846 15.7204 97.7081 15.5793 97.6902 15.4404C97.6902 15.316 97.6413 15.1968 97.5543 15.1089C97.4673 15.021 97.3493 14.9716 97.2262 14.9716C97.1032 14.9716 96.9851 15.021 96.8981 15.1089C96.8111 15.1968 96.7622 15.316 96.7622 15.4404C96.7516 15.5674 96.7666 15.6952 96.8065 15.8161C96.8464 15.937 96.9103 16.0485 96.9942 16.1436V17.0812C96.861 17.1449 96.7475 17.2439 96.6657 17.3678C96.584 17.4917 96.5371 17.6357 96.5302 17.7845H96.4142V18.0189H97.9222V17.7845Z" fill="#FED899"/>
<path d="M93.5143 17.7844C93.5311 17.7074 93.5324 17.6276 93.518 17.5501C93.5036 17.4725 93.4738 17.3986 93.4305 17.333C93.3872 17.2673 93.3312 17.2111 93.2658 17.1679C93.2005 17.1246 93.1272 17.0951 93.0503 17.0812V16.1436C93.171 16.0747 93.2686 15.971 93.3306 15.8457C93.3926 15.7204 93.4162 15.5793 93.3983 15.4403C93.3983 15.0887 92.9343 14.7371 92.9343 14.7371C92.7862 14.7945 92.6551 14.8892 92.5536 15.0124C92.452 15.1355 92.3834 15.2828 92.3543 15.4403C92.3364 15.5793 92.3599 15.7204 92.4219 15.8457C92.4839 15.971 92.5816 16.0747 92.7023 16.1436V17.0812C92.6254 17.0951 92.5521 17.1246 92.4867 17.1679C92.4214 17.2111 92.3654 17.2673 92.322 17.333C92.2787 17.3986 92.2489 17.4725 92.2346 17.5501C92.2202 17.6276 92.2214 17.7074 92.2383 17.7844H92.1223V18.0188H93.6303V17.7844H93.5143Z" fill="#FED899"/>
<path d="M102.214 17.7844C102.231 17.7074 102.232 17.6276 102.218 17.5501C102.204 17.4725 102.174 17.3986 102.13 17.333C102.087 17.2673 102.031 17.2111 101.966 17.1679C101.9 17.1246 101.827 17.0951 101.75 17.0812V16.1436C101.871 16.0747 101.969 15.971 102.031 15.8457C102.093 15.7204 102.116 15.5793 102.098 15.4403C102.091 15.2916 102.044 15.1476 101.963 15.0237C101.881 14.8998 101.767 14.8008 101.634 14.7371C101.486 14.7945 101.355 14.8892 101.253 15.0124C101.152 15.1355 101.083 15.2828 101.054 15.4403C101.036 15.5793 101.06 15.7204 101.122 15.8457C101.184 15.971 101.281 16.0747 101.402 16.1436V17.0812C101.269 17.1448 101.155 17.2439 101.074 17.3678C100.992 17.4917 100.945 17.6357 100.938 17.7844H100.822V18.0188H102.33V17.7844H102.214Z" fill="#FED899"/>
<path d="M106.622 17.7845C106.624 17.6166 106.567 17.4534 106.461 17.3244C106.355 17.1955 106.206 17.1092 106.042 17.0812V16.1436C106.163 16.0747 106.261 15.971 106.323 15.8457C106.385 15.7204 106.408 15.5793 106.39 15.4404C106.39 15.316 106.341 15.1968 106.254 15.1089C106.167 15.021 106.049 14.9716 105.926 14.9716C105.803 14.9716 105.685 15.021 105.598 15.1089C105.511 15.1968 105.462 15.316 105.462 15.4404C105.452 15.5674 105.467 15.6952 105.506 15.8161C105.546 15.937 105.61 16.0485 105.694 16.1436V17.0812C105.561 17.1449 105.447 17.2439 105.366 17.3678C105.284 17.4917 105.237 17.6357 105.23 17.7845H105.114V18.0189H106.622V17.7845Z" fill="#FED899"/>
<path d="M110.914 17.7845C110.907 17.6357 110.86 17.4917 110.779 17.3678C110.697 17.2439 110.583 17.1449 110.45 17.0812V16.1436C110.534 16.0485 110.598 15.937 110.638 15.8161C110.678 15.6952 110.693 15.5674 110.682 15.4404C110.682 15.3788 110.67 15.3178 110.647 15.261C110.623 15.2041 110.589 15.1524 110.546 15.1089C110.503 15.0653 110.452 15.0308 110.396 15.0072C110.339 14.9837 110.279 14.9716 110.218 14.9716C110.157 14.9716 110.097 14.9837 110.041 15.0072C109.984 15.0308 109.933 15.0653 109.89 15.1089C109.847 15.1524 109.813 15.2041 109.789 15.261C109.766 15.3178 109.754 15.3788 109.754 15.4404C109.743 15.5674 109.759 15.6952 109.798 15.8161C109.838 15.937 109.902 16.0485 109.986 16.1436V17.0812C109.853 17.1449 109.739 17.2439 109.658 17.3678C109.576 17.4917 109.529 17.6357 109.522 17.7845V18.0189H110.914V17.7845Z" fill="#FED899"/>
<path d="M108.71 17.7844C108.703 17.6357 108.656 17.4917 108.575 17.3678C108.493 17.2439 108.379 17.1448 108.246 17.0812V16.1436C108.33 16.0484 108.394 15.937 108.434 15.8161C108.474 15.6952 108.489 15.5673 108.478 15.4403C108.471 15.2916 108.424 15.1476 108.343 15.0237C108.261 14.8998 108.147 14.8008 108.014 14.7371C108.014 14.7371 107.55 15.0887 107.55 15.4403C107.532 15.5793 107.556 15.7204 107.618 15.8457C107.68 15.971 107.777 16.0747 107.898 16.1436V17.0812C107.821 17.0951 107.748 17.1246 107.683 17.1679C107.617 17.2111 107.561 17.2673 107.518 17.333C107.475 17.3986 107.445 17.4725 107.43 17.5501C107.416 17.6276 107.417 17.7074 107.434 17.7844H107.318V18.0188H108.826V17.7844H108.71Z" fill="#FED899"/>
<path d="M104.418 17.7845C104.411 17.6357 104.364 17.4917 104.283 17.3678C104.201 17.2439 104.087 17.1449 103.954 17.0812V16.1436C104.038 16.0485 104.102 15.937 104.142 15.8161C104.182 15.6952 104.197 15.5674 104.186 15.4404C104.186 15.316 104.137 15.1968 104.05 15.1089C103.963 15.021 103.845 14.9716 103.722 14.9716C103.599 14.9716 103.481 15.021 103.394 15.1089C103.307 15.1968 103.258 15.316 103.258 15.4404C103.248 15.5674 103.263 15.6952 103.302 15.8161C103.342 15.937 103.406 16.0485 103.49 16.1436V17.0812C103.357 17.1449 103.243 17.2439 103.162 17.3678C103.08 17.4917 103.033 17.6357 103.026 17.7845V18.0189H104.534V17.7845H104.418Z" fill="#FED899"/>
<path d="M113.118 17.7845C113.111 17.6357 113.064 17.4917 112.983 17.3678C112.901 17.2439 112.787 17.1449 112.654 17.0812V16.1436C112.738 16.0485 112.802 15.937 112.842 15.8161C112.882 15.6952 112.897 15.5674 112.886 15.4404C112.886 15.316 112.837 15.1968 112.75 15.1089C112.663 15.021 112.545 14.9716 112.422 14.9716C112.299 14.9716 112.181 15.021 112.094 15.1089C112.007 15.1968 111.958 15.316 111.958 15.4404C111.947 15.5674 111.962 15.6952 112.002 15.8161C112.042 15.937 112.106 16.0485 112.19 16.1436V17.0812C112.057 17.1449 111.943 17.2439 111.862 17.3678C111.78 17.4917 111.733 17.6357 111.726 17.7845V18.0189H113.118V17.7845Z" fill="#FED899"/>
<path d="M117.41 17.7845C117.403 17.6357 117.356 17.4917 117.275 17.3678C117.193 17.2439 117.079 17.1449 116.946 17.0812V16.1436C117.03 16.0485 117.094 15.937 117.134 15.8161C117.174 15.6952 117.189 15.5674 117.178 15.4404C117.178 15.316 117.129 15.1968 117.042 15.1089C116.955 15.021 116.837 14.9716 116.714 14.9716C116.591 14.9716 116.473 15.021 116.386 15.1089C116.299 15.1968 116.25 15.316 116.25 15.4404C116.232 15.5793 116.256 15.7204 116.318 15.8457C116.38 15.971 116.477 16.0747 116.598 16.1436V17.0812C116.521 17.0952 116.448 17.1246 116.382 17.1679C116.317 17.2112 116.261 17.2673 116.218 17.333C116.174 17.3987 116.145 17.4725 116.13 17.5501C116.116 17.6277 116.117 17.7074 116.134 17.7845H116.018V18.0189H117.526V17.7845H117.41Z" fill="#FED899"/>
<path d="M121.702 17.7844C121.719 17.7074 121.72 17.6276 121.706 17.5501C121.691 17.4725 121.662 17.3986 121.618 17.333C121.575 17.2673 121.519 17.2111 121.454 17.1679C121.388 17.1246 121.315 17.0951 121.238 17.0812V16.1436C121.359 16.0747 121.456 15.971 121.518 15.8457C121.58 15.7204 121.604 15.5793 121.586 15.4403C121.586 15.0887 121.122 14.7371 121.122 14.7371C120.974 14.7945 120.843 14.8892 120.741 15.0124C120.64 15.1355 120.571 15.2828 120.542 15.4403C120.524 15.5793 120.548 15.7204 120.61 15.8457C120.672 15.971 120.769 16.0747 120.89 16.1436V17.0812C120.813 17.0951 120.74 17.1246 120.674 17.1679C120.609 17.2111 120.553 17.2673 120.51 17.333C120.466 17.3986 120.437 17.4725 120.422 17.5501C120.408 17.6276 120.409 17.7074 120.426 17.7844H120.31V18.0188H121.818V17.7844H121.702Z" fill="#FED899"/>
<path d="M119.614 17.7845C119.607 17.6357 119.56 17.4917 119.479 17.3678C119.397 17.2439 119.283 17.1449 119.15 17.0812V16.1436C119.234 16.0485 119.298 15.937 119.338 15.8161C119.378 15.6952 119.393 15.5674 119.382 15.4404C119.382 15.316 119.333 15.1968 119.246 15.1089C119.159 15.021 119.041 14.9716 118.918 14.9716C118.795 14.9716 118.677 15.021 118.59 15.1089C118.503 15.1968 118.454 15.316 118.454 15.4404C118.443 15.5674 118.458 15.6952 118.498 15.8161C118.538 15.937 118.602 16.0485 118.686 16.1436V17.0812C118.553 17.1449 118.439 17.2439 118.358 17.3678C118.276 17.4917 118.229 17.6357 118.222 17.7845H118.106V18.0189H119.614V17.7845Z" fill="#FED899"/>
<path d="M115.206 17.7845C115.223 17.7074 115.224 17.6277 115.21 17.5501C115.195 17.4725 115.166 17.3987 115.122 17.333C115.079 17.2673 115.023 17.2112 114.958 17.1679C114.892 17.1246 114.819 17.0952 114.742 17.0812V16.1436C114.863 16.0747 114.96 15.971 115.022 15.8457C115.084 15.7204 115.108 15.5793 115.09 15.4404C115.09 15.316 115.041 15.1968 114.954 15.1089C114.867 15.021 114.749 14.9716 114.626 14.9716C114.503 14.9716 114.385 15.021 114.298 15.1089C114.211 15.1968 114.162 15.316 114.162 15.4404C114.151 15.5674 114.166 15.6952 114.206 15.8161C114.246 15.937 114.31 16.0485 114.394 16.1436V17.0812C114.261 17.1449 114.147 17.2439 114.066 17.3678C113.984 17.4917 113.937 17.6357 113.93 17.7845H113.814V18.0189H115.322V17.7845H115.206Z" fill="#FED899"/>
<path d="M123.906 17.7845C123.923 17.7074 123.924 17.6277 123.91 17.5501C123.895 17.4725 123.866 17.3987 123.822 17.333C123.779 17.2673 123.723 17.2112 123.658 17.1679C123.592 17.1246 123.519 17.0952 123.442 17.0812V16.1436C123.563 16.0747 123.66 15.971 123.722 15.8457C123.784 15.7204 123.808 15.5793 123.79 15.4404C123.79 15.316 123.741 15.1968 123.654 15.1089C123.567 15.021 123.449 14.9716 123.326 14.9716C123.203 14.9716 123.085 15.021 122.998 15.1089C122.911 15.1968 122.862 15.316 122.862 15.4404C122.851 15.5674 122.866 15.6952 122.906 15.8161C122.946 15.937 123.01 16.0485 123.094 16.1436V17.0812C122.961 17.1449 122.847 17.2439 122.765 17.3678C122.684 17.4917 122.637 17.6357 122.63 17.7845H122.514V18.0189H124.022V17.7845H123.906Z" fill="#FED899"/>
<path d="M124.486 18.0188H89.4543V19.2143H124.486V18.0188Z" fill="#EFC286"/>
<path d="M124.486 18.3704H89.4543V18.7806H124.486V18.3704Z" fill="#FED899"/>
<path opacity="0.05" d="M124.022 19.1909H89.9183V20.3864H124.022V19.1909Z" fill="black"/>
<path d="M111.726 21.4177H102.33V25.5902H111.726V21.4177Z" fill="#EFC286"/>
<path d="M111.146 21.8865H102.91V25.051H111.146V21.8865Z" fill="#FED899"/>
<path d="M97.5742 25.4026V45.9133H100.706V37.2402C100.337 36.3077 100.14 35.3145 100.126 34.3101C100.126 31.2628 104.418 28.6844 106.274 27.7467C106.509 27.6324 106.767 27.5731 107.028 27.5731C107.289 27.5731 107.547 27.6324 107.782 27.7467C109.522 28.6844 113.93 31.2628 113.93 34.3101C113.945 35.2931 113.705 36.263 113.234 37.123V45.9133H116.366V25.4026H97.5742Z" fill="#EFC286"/>
<path opacity="0.05" d="M95.6023 25.051H93.9783C93.4658 25.051 93.0503 25.4498 93.0503 25.9418C93.0503 26.4337 93.4658 26.8325 93.9783 26.8325H95.6023C96.1148 26.8325 96.5302 26.4337 96.5302 25.9418C96.5302 25.4498 96.1148 25.051 95.6023 25.051Z" fill="black"/>
<path opacity="0.05" d="M97.8062 22.8242H96.1822C95.6697 22.8242 95.2542 23.223 95.2542 23.715C95.2542 24.2069 95.6697 24.6057 96.1822 24.6057H97.8062C98.3187 24.6057 98.7342 24.2069 98.7342 23.715C98.7342 23.223 98.3187 22.8242 97.8062 22.8242Z" fill="black"/>
<path opacity="0.05" d="M121.934 38.8811H120.31C119.797 38.8811 119.382 39.2799 119.382 39.7719C119.382 40.2638 119.797 40.6626 120.31 40.6626H121.934C122.447 40.6626 122.862 40.2638 122.862 39.7719C122.862 39.2799 122.447 38.8811 121.934 38.8811Z" fill="black"/>
<path opacity="0.05" d="M93.2823 35.7166H91.6583C91.1458 35.7166 90.7303 36.1154 90.7303 36.6074C90.7303 37.0993 91.1458 37.4981 91.6583 37.4981H93.2823C93.7948 37.4981 94.2103 37.0993 94.2103 36.6074C94.2103 36.1154 93.7948 35.7166 93.2823 35.7166Z" fill="black"/>
<path opacity="0.05" d="M125.414 41.108H124.138C124.015 41.108 123.897 41.1574 123.81 41.2453C123.723 41.3332 123.674 41.4525 123.674 41.5768V42.3972C123.674 42.5216 123.723 42.6408 123.81 42.7287C123.897 42.8166 124.015 42.866 124.138 42.866H125.414V41.108Z" fill="black"/>
<path opacity="0.05" d="M116.366 28.6845H117.642C117.765 28.6845 117.883 28.6351 117.97 28.5471C118.057 28.4592 118.106 28.34 118.106 28.2156V27.3952C118.106 27.2709 118.057 27.1516 117.97 27.0637C117.883 26.9758 117.765 26.9264 117.642 26.9264H116.366V28.6845Z" fill="black"/>
<path opacity="0.05" d="M88.6423 41.3425H89.8023C89.938 41.3452 90.0703 41.2998 90.1763 41.2142C90.2823 41.1285 90.3552 41.008 90.3823 40.8737V40.0532C90.3552 39.9189 90.2823 39.7984 90.1763 39.7127C90.0703 39.627 89.938 39.5816 89.8023 39.5844H88.6423V41.3425Z" fill="black"/>
<path opacity="0.05" d="M97.5742 43.8037H96.4142C96.2785 43.8009 96.1462 43.8463 96.0402 43.932C95.9342 44.0177 95.8613 44.1382 95.8342 44.2725V45.093C95.8613 45.2273 95.9342 45.3478 96.0402 45.4335C96.1462 45.5191 96.2785 45.5645 96.4142 45.5618H97.5742V43.8037Z" fill="black"/>
<path d="M79.2464 44.1553C78.7616 44.1746 78.3036 44.385 77.9704 44.7413C77.8387 44.5558 77.6642 44.4056 77.4621 44.3035C77.26 44.2014 77.0363 44.1505 76.8104 44.1553C76.3256 44.1746 75.8676 44.385 75.5344 44.7413C75.3913 44.5683 75.2144 44.427 75.0148 44.3262C74.8153 44.2254 74.5973 44.1672 74.3744 44.1553C73.9017 44.1543 73.4463 44.3357 73.1014 44.6625C72.7565 44.9892 72.548 45.4366 72.5185 45.9133H81.1024C81.0482 45.4461 80.8322 45.0132 80.4925 44.6915C80.1528 44.3697 79.7114 44.1798 79.2464 44.1553Z" fill="#D9EF5B"/>
<path d="M93.3983 46.1478C93.197 44.6916 92.4814 43.3581 91.3835 42.393C90.2857 41.4279 88.8795 40.8964 87.4243 40.8964C85.9691 40.8964 84.563 41.4279 83.4651 42.393C82.3672 43.3581 81.6517 44.6916 81.4504 46.1478H93.3983Z" fill="#90B700"/>
<path d="M87.4823 46.1477H93.3983C93.3107 44.6131 92.6525 43.1685 91.5554 42.1035C90.4583 41.0385 89.0035 40.4317 87.4823 40.4047V46.1477Z" fill="#4F9934"/>
<path d="M95.2542 32.4349C95.2542 32.4349 94.3262 39.5844 93.9782 46.6166L96.0662 46.9682V32.7866L95.2542 32.4349Z" fill="#FFAD76"/>
<path d="M87.4823 40.2876C87.4823 40.2876 87.9463 34.193 93.0503 33.2554C93.3982 33.1382 87.7143 31.9662 85.6263 32.9038C83.5383 33.8414 87.5983 27.0436 93.3983 30.5597C94.4422 31.1457 91.1943 26.9264 91.1943 26.9264C91.1943 26.9264 95.2542 27.278 95.6022 30.7941C95.6022 31.3801 97.5742 25.2855 103.258 30.0909C103.258 30.2081 97.5742 31.7318 97.6902 31.9662C97.8062 32.2006 104.534 30.5597 104.882 36.5371C104.998 36.5371 99.3142 34.4274 97.6902 34.5447C99.174 35.4069 100.269 36.8169 100.745 38.4782C101.221 40.1394 101.041 41.9224 100.242 43.4521C100.126 43.6866 96.6462 40.9909 96.0662 37.1231C95.866 36.119 95.7495 35.0997 95.7182 34.0758C94.8828 35.6601 93.7114 37.0384 92.2877 38.1122C90.864 39.186 89.2231 39.9289 87.4823 40.2876Z" fill="#D9EF5B"/>
<path d="M95.7183 44.3897C95.2875 44.3955 94.8742 44.5625 94.5583 44.8585C94.2019 44.5529 93.7497 44.3852 93.2823 44.3852C92.8149 44.3852 92.3627 44.5529 92.0063 44.8585C91.6904 44.5625 91.2771 44.3955 90.8463 44.3897C90.3735 44.3888 89.9182 44.5702 89.5733 44.8969C89.2284 45.2236 89.0199 45.671 88.9903 46.1478H97.5742C97.5447 45.671 97.3362 45.2236 96.9913 44.8969C96.6464 44.5702 96.191 44.3888 95.7183 44.3897Z" fill="#D9EF5B"/>
<path d="M106.506 44.3898C106.045 44.4207 105.603 44.5833 105.23 44.8586C104.857 44.5833 104.415 44.4207 103.954 44.3898C103.529 44.4228 103.124 44.5864 102.794 44.8586C102.421 44.5833 101.979 44.4207 101.518 44.3898C101.057 44.3898 100.614 44.575 100.288 44.9047C99.9615 45.2344 99.7782 45.6816 99.7782 46.1478H108.246C108.246 45.6816 108.063 45.2344 107.736 44.9047C107.41 44.575 106.968 44.3898 106.506 44.3898Z" fill="#D9EF5B"/>
<path d="M8.95106 25.9887C8.95106 25.9887 8.48706 37.7091 7.79107 46.3822H9.99505L9.53105 25.8715L8.95106 25.9887Z" fill="#FFAD76"/>
<path d="M3.26711 33.2553C3.26711 33.2553 3.15111 28.3328 7.09508 27.1607C7.32708 27.0435 2.80312 26.6919 1.17913 27.6295C-0.444852 28.5672 2.22312 22.8242 7.09508 24.9339C8.02307 25.4027 5.1231 22.2382 5.1231 22.2382C5.1231 22.2382 8.37106 22.2382 8.95106 24.9339C8.95106 25.4027 9.99505 20.4801 14.867 23.7618C14.983 23.879 10.575 25.5199 10.691 25.6371C10.807 25.7543 15.911 23.9962 16.839 28.6844C16.839 28.6844 12.199 27.5123 10.923 27.7467C12.172 28.2902 13.1618 29.3047 13.6817 30.5742C14.2017 31.8438 14.2108 33.2683 13.707 34.5446C13.707 34.779 10.691 33.0209 9.76305 29.9736C8.83506 26.9263 9.29906 27.5123 9.29906 27.5123C8.79515 28.8719 7.98936 30.0965 6.94366 31.0921C5.89796 32.0877 4.64021 32.8278 3.26711 33.2553Z" fill="#B4D335"/>
<path d="M124.834 42.8661C124.359 42.8498 123.886 42.9354 123.446 43.1172C123.006 43.299 122.609 43.5729 122.282 43.9209C121.955 43.5729 121.558 43.299 121.118 43.1172C120.678 42.9354 120.205 42.8498 119.73 42.8661C119.274 42.8661 118.824 42.9596 118.405 43.1409C117.986 43.3222 117.608 43.5876 117.294 43.9209C116.989 43.5759 116.613 43.3026 116.192 43.1203C115.771 42.9381 115.316 42.8513 114.858 42.8661C113.924 42.8656 113.027 43.2323 112.355 43.8885C111.684 44.5447 111.292 45.4391 111.262 46.3822H128.43C128.372 45.4486 127.972 44.5704 127.307 43.9199C126.641 43.2694 125.759 42.8935 124.834 42.8661Z" fill="#B4D335"/>
<path d="M124.602 36.5371C124.602 36.5371 124.254 41.9285 123.674 46.0306H125.066V36.5371H124.602Z" fill="#FFAD76"/>
<path d="M119.962 42.7489C119.962 42.7489 119.846 38.7639 122.978 37.8263C123.21 37.8263 119.498 37.3575 118.222 38.1779C116.946 38.9983 119.15 34.3102 123.094 36.0682C123.79 36.4199 121.47 33.8414 121.47 33.8414C121.47 33.8414 124.022 33.8414 124.486 36.0682C124.602 36.4199 125.414 32.4349 129.358 35.1306C129.358 35.1306 125.878 36.5371 125.878 36.6543C125.878 36.7715 130.17 35.2478 130.866 39.1155C129.309 38.6943 127.717 38.4196 126.11 38.2951C127.123 38.736 127.93 39.5543 128.362 40.58C128.794 41.6058 128.818 42.7602 128.43 43.8037C128.314 44.0381 125.878 42.5145 125.182 40.0532L124.834 38.1779C124.407 39.2565 123.749 40.2259 122.906 41.0163C122.064 41.8068 121.058 42.3985 119.962 42.7489Z" fill="#B4D335"/>
<path d="M37.4868 28.9188C37.4868 28.9188 37.1388 38.4123 36.5588 45.5617H38.2988L37.9508 28.9188H37.4868Z" fill="#FFAD76"/>
<path d="M28.7869 32.4349C28.7869 32.4349 28.5549 39.936 28.0909 45.5618H29.4829L29.1349 32.4349H28.7869Z" fill="#FFAD76"/>
<path d="M42.1267 46.0306C41.903 44.2474 41.0432 42.6078 39.7085 41.4193C38.3738 40.2309 36.6558 39.5752 34.8768 39.5752C33.0978 39.5752 31.3798 40.2309 30.0451 41.4193C28.7104 42.6078 27.8506 44.2474 27.6269 46.0306H42.1267Z" fill="#90B700"/>
<path d="M34.9348 46.0305H42.1267C42.0384 44.1539 41.2454 42.3818 39.9092 41.0753C38.573 39.7687 36.7941 39.026 34.9348 38.9983V46.0305Z" fill="#4F9934"/>
<path d="M43.1707 34.4274C43.0372 33.4686 42.6058 32.5774 41.9387 31.8823C41.2715 31.1872 40.4032 30.7241 39.4588 30.5597C39.2268 30.5597 42.8227 29.7393 44.2147 30.2081C45.6067 30.6769 42.8228 27.0436 39.1108 29.0361C38.5308 29.3877 40.5028 26.9264 40.5028 26.9264C40.5028 26.9264 37.9508 27.278 37.7188 29.2705C37.4868 31.2629 36.3268 26.106 32.8468 29.0361C34.0711 29.2382 35.2747 29.552 36.4428 29.9737C36.3268 30.0909 32.0349 29.2705 31.9189 32.6694C33.4196 32.086 34.9738 31.6541 36.5588 31.3801C36.1077 31.6006 35.7072 31.9138 35.3829 32.2998C35.0586 32.6858 34.8177 33.136 34.6758 33.6216C34.5338 34.1071 34.4938 34.6173 34.5584 35.1194C34.623 35.6215 34.7907 36.1044 35.0508 36.5371C35.7113 36.1261 36.2795 35.5801 36.719 34.9342C37.1584 34.2884 37.4595 33.5569 37.6028 32.7866C37.7188 31.7318 37.7188 31.1457 37.7188 31.1457C38.3369 32.0602 39.1448 32.8276 40.0864 33.3944C41.028 33.9611 42.0805 34.3137 43.1707 34.4274Z" fill="#B4D335"/>
<path d="M51.4066 41.9285C50.3286 41.9373 49.2933 42.3557 48.5067 43.1005C47.7265 42.3455 46.687 41.9254 45.6067 41.9285C44.5642 41.9435 43.5674 42.3632 42.8227 43.1005C42.0244 42.3744 40.9965 41.9589 39.9228 41.9285C38.8437 41.9564 37.8147 42.3941 37.0407 43.1543C36.2668 43.9146 35.8048 44.9416 35.7468 46.0306H55.5826C55.5246 44.9416 55.0626 43.9146 54.2887 43.1543C53.5147 42.3941 52.4857 41.9564 51.4066 41.9285Z" fill="#B4D335"/>
<path d="M21.5949 40.9909C21.5949 40.9909 22.0589 35.5995 26.5829 34.7791C26.8149 34.6619 21.8269 33.607 19.855 34.4275C17.883 35.2479 21.7109 29.1533 26.9309 32.3178C27.8589 32.7866 24.9589 29.0361 24.9589 29.0361C24.9589 29.0361 28.5549 29.3877 28.9029 32.5522C28.9029 33.021 30.7589 27.5124 35.7468 31.9662C35.8628 31.9662 30.6429 33.3726 30.7589 33.4898C30.8749 33.607 36.9068 32.2006 37.2548 37.592C37.2548 37.7092 32.2668 35.8339 30.7589 35.8339C31.4305 36.2019 32.0235 36.7004 32.5038 37.3006C32.9842 37.9009 33.3425 38.5911 33.558 39.3317C33.7736 40.0723 33.8423 40.8486 33.76 41.616C33.6778 42.3835 33.4463 43.127 33.0788 43.8038C32.9628 44.1554 29.8309 41.6941 29.2509 38.178C29.1165 37.2854 29.039 36.3849 29.0189 35.4823C28.2808 36.913 27.2277 38.1535 25.9407 39.1085C24.6536 40.0635 23.1669 40.7075 21.5949 40.9909Z" fill="#D9EF5B"/>
<path d="M28.9029 44.6241C28.5453 44.6537 28.2129 44.8216 27.9749 45.0929C27.8668 44.9473 27.7267 44.8292 27.5657 44.7478C27.4046 44.6664 27.227 44.6241 27.0469 44.6241C26.8668 44.6241 26.6892 44.6664 26.5281 44.7478C26.3671 44.8292 26.2269 44.9473 26.1189 45.0929C25.8809 44.8216 25.5485 44.6537 25.1909 44.6241C24.8306 44.6512 24.4919 44.808 24.2364 45.0662C23.981 45.3243 23.8257 45.6665 23.7989 46.0305H30.2949C30.2949 45.8458 30.2589 45.6629 30.1889 45.4923C30.1189 45.3217 30.0164 45.1666 29.8872 45.036C29.7579 44.9054 29.6044 44.8018 29.4356 44.7311C29.2667 44.6605 29.0857 44.6241 28.9029 44.6241Z" fill="#D9EF5B"/>
<path d="M57.3226 44.6241C56.965 44.6537 56.6326 44.8216 56.3946 45.0929C56.2866 44.9473 56.1465 44.8292 55.9854 44.7478C55.8243 44.6664 55.6467 44.6241 55.4666 44.6241C55.2865 44.6241 55.1089 44.6664 54.9479 44.7478C54.7868 44.8292 54.6467 44.9473 54.5386 45.0929C54.3007 44.8216 53.9682 44.6537 53.6106 44.6241C53.4278 44.6241 53.2468 44.6605 53.078 44.7311C52.9091 44.8018 52.7556 44.9054 52.6264 45.036C52.4971 45.1666 52.3946 45.3217 52.3246 45.4923C52.2547 45.6629 52.2187 45.8458 52.2187 46.0305H58.7146C58.7146 45.8458 58.6786 45.6629 58.6086 45.4923C58.5387 45.3217 58.4362 45.1666 58.3069 45.036C58.1776 44.9054 58.0242 44.8018 57.8553 44.7311C57.6864 44.6605 57.5054 44.6241 57.3226 44.6241Z" fill="#D9EF5B"/>
</g>
<defs>
<linearGradient id="paint0_linear_5_8816" x1="55.3158" y1="46.3705" x2="55.3158" y2="0.918763" gradientUnits="userSpaceOnUse">
<stop stop-color="#3F2533"/>
<stop offset="0.1" stop-color="#543434"/>
<stop offset="0.73" stop-color="#CE8D3C"/>
<stop offset="1" stop-color="#FFB03F"/>
</linearGradient>
<linearGradient id="paint1_linear_5_8816" x1="99.929" y1="36.5605" x2="114.081" y2="36.5605" gradientUnits="userSpaceOnUse">
<stop stop-color="#3F2533"/>
<stop offset="0.1" stop-color="#543434"/>
<stop offset="0.73" stop-color="#CE8D3C"/>
<stop offset="1" stop-color="#FFB03F"/>
</linearGradient>
<clipPath id="clip0_5_8816">
<rect width="132" height="46" fill="white"/>
</clipPath>
</defs>
</svg>
