<svg width="29" height="19" viewBox="0 0 29 19" fill="none" xmlns="http://www.w3.org/2000/svg">
    <g clip-path="url(#clip0_701_3592)">
        <path
            d="M0 9.36116C0.264991 8.99777 0.513421 8.61708 0.778412 8.25369C2.66648 5.64076 4.9189 3.44313 7.68475 1.86844C9.83781 0.657152 12.1399 -0.0177119 14.6077 -0.000407664C17.2576 0.0168965 19.7087 0.812889 21.9777 2.23183C24.7933 3.99686 27.0622 6.38484 28.9006 9.22272C29.0166 9.41307 29.0497 9.5342 28.9172 9.74185C26.8304 12.9258 24.2633 15.5907 20.9343 17.3384C16.4792 19.6572 12.0405 19.536 7.68475 17.0788C4.5711 15.3138 2.15306 12.7528 0.182182 9.74185C0.132496 9.65533 0.0496859 9.56881 0 9.49959C0 9.44768 0 9.41307 0 9.36116ZM14.3427 17.0788C15.9657 17.0788 17.3735 16.8366 18.7316 16.3174C22.0605 15.0542 24.5945 12.7528 26.6151 9.75916C26.7641 9.55151 26.7641 9.41307 26.6151 9.18812C25.1245 6.93857 23.3027 5.06972 21.0337 3.7373C17.5888 1.71271 13.9783 1.29741 10.2353 2.68174C6.88978 3.92764 4.37236 6.28101 2.36836 9.29194C2.26899 9.44768 2.30211 9.55151 2.38492 9.68994C3.41176 11.2992 4.65391 12.7009 6.11136 13.8776C8.59566 15.9021 11.3615 17.0615 14.3427 17.0788Z"
            fill="#2B3492"/>
        <path
            d="M14.5085 15.1757C11.5108 15.1757 9.07617 12.6147 9.07617 9.46532C9.07617 6.33327 11.5273 3.78955 14.5416 3.78955C17.5393 3.78955 19.9739 6.35057 19.9739 9.49993C19.9739 12.6493 17.5228 15.193 14.5085 15.1757Z"
            fill="#2B3492"/>
    </g>
    <defs>
        <clipPath id="clip0_701_3592">
            <rect width="29" height="19" fill="white"/>
        </clipPath>
    </defs>
</svg>
